<svg width="80" height="80" viewBox="0 0 80 80" fill="none" xmlns="http://www.w3.org/2000/svg">
<rect width="80" height="80" fill="white"/>
<rect x="3.5" y="3.5" width="73" height="73" rx="36.5" stroke="#DEE4E8" stroke-width="7"/>
<rect x="14" y="14" width="52" height="52" rx="26" fill="#FCE38D"/>
<path opacity="0.32" d="M49.2884 24.6L33.6001 40.2267L40 59L44.9978 65.4895C57 63 65.5 53.5 65.9596 41.2059L49.2884 24.6Z" fill="#59483E"/>
<path d="M39.9401 20C31.7115 20 25 26.7615 25 34.9579C25 38.2089 26.0344 41.2996 27.988 43.9096L39.9401 59.0736L51.8923 43.8867C53.8459 41.2996 54.8802 38.2089 54.8802 34.9579C54.8802 26.7615 48.1687 20 39.9401 20Z" fill="#FF9100"/>
<path d="M54.8801 34.9579C54.8801 38.2089 53.8458 41.2996 51.8922 43.8867L39.94 59.0736V20C48.1687 20 54.8801 26.7615 54.8801 34.9579Z" fill="#FF641A"/>
<path d="M46.8358 33.8131H47.9851V26.9447H43.1812C42.7216 25.6168 41.4344 24.6552 39.9403 24.6552C38.4463 24.6552 37.1591 25.6168 36.6995 26.9447H31.8956V31.7295C30.5625 32.1875 29.5971 33.4695 29.5971 34.9578C29.5971 36.4459 30.5625 37.728 31.8956 38.1859V42.971H38.7911V41.8262C38.7911 41.1851 39.2967 40.6815 39.9403 40.6815C40.584 40.6815 41.0896 41.1851 41.0896 41.8262V42.971H47.9851V36.1025H46.8358C46.1922 36.1025 45.6866 35.5988 45.6866 34.9578C45.6866 34.3168 46.1921 33.8131 46.8358 33.8131Z" fill="#FFCEBF"/>
<path d="M45.6862 34.9579C45.6862 35.5989 46.1919 36.1026 46.8355 36.1026H47.9848V42.9711H41.0893V41.8263C41.0893 41.1852 40.5837 40.6816 39.94 40.6816V24.6553C41.4341 24.6553 42.7212 25.6169 43.1809 26.9448H47.9848V33.8132H46.8355C46.1918 33.8131 45.6862 34.3168 45.6862 34.9579Z" fill="#FFB99C"/>
<g clip-path="url(#clip0)">
<path d="M58.9351 57.7633L63.354 53.4386C63.903 52.9013 64.6598 52.5917 65.4551 52.5791C66.2504 52.5666 67.0179 52.8521 67.5862 53.3718L72.382 57.7599L74.9585 55.8468C75.719 55.282 76.782 55.2372 77.5938 55.7358C78.4056 56.2344 78.7825 57.1635 78.5282 58.0392L75.1697 69.5909C74.8698 70.6231 73.8664 71.3399 72.721 71.3399H58.1666C57.0208 71.3401 56.017 70.6234 55.717 69.5909L52.4092 58.2075C52.1425 57.2899 52.5276 56.3153 53.3687 55.7793C54.2098 55.2433 55.3222 55.2636 56.1402 55.8299L58.9342 57.7633H58.9351Z" fill="#DEE4E8" stroke="white" stroke-width="2"/>
</g>
<defs>
<clipPath id="clip0">
<rect width="29" height="22" fill="white" transform="translate(51 50)"/>
</clipPath>
</defs>
</svg>
