<svg width="80" height="80" viewBox="0 0 80 80" fill="none" xmlns="http://www.w3.org/2000/svg">
<rect width="80" height="80" fill="white"/>
<rect x="3" y="3" width="74" height="74" rx="37" stroke="#DEE4E8" stroke-width="6"/>
<rect x="14" y="14" width="52" height="52" rx="26" fill="#56B9F2"/>
<path opacity="0.32" d="M66 39.8046C66 38.2964 65.8707 36.8185 65.626 35.38L54.9291 24.6832L24.6841 54.928L35.3827 65.6265C36.8203 65.871 38.2971 66 39.8044 66C54.2718 66 66 54.2719 66 39.8046Z" fill="#3E5959"/>
<path d="M45.3383 29.8451L36.4861 38.6973V32.7959L39.4367 23.9437L45.3383 29.8451Z" fill="#FF9100"/>
<path d="M36.486 38.6974L29.1091 46.0742L23.2076 40.1728L32.0599 37.222L36.486 38.6974Z" fill="#FF9100"/>
<path d="M45.4856 23.9733L55.6362 34.1238C51.8592 36.3662 48.3626 39.0073 45.1463 41.9579L40.971 43.1825L40.8383 46.2955C38.035 49.3937 36.2632 52.0215 34.1239 55.636C33.9615 55.9164 33.755 56.1819 33.5337 56.4033C31.4681 58.4688 27.5731 57.8196 24.6814 54.9279C21.7897 52.0362 21.1405 48.1413 23.2061 46.0757C23.4274 45.8544 23.6929 45.6478 23.9733 45.4855C27.2634 43.5233 29.6253 41.9875 32.5172 39.4793C33.845 38.3285 35.1433 37.1482 36.3531 35.8795C36.5744 35.6581 36.7957 35.4073 37.0023 35.1713C40.2333 31.7631 43.0808 28.0009 45.4856 23.9733Z" fill="#E0F4FF"/>
<path d="M50.5611 29.0485L55.6364 34.1238C51.8594 36.3663 48.3628 39.0073 45.1465 41.9579L40.9711 43.1825L40.8384 46.2955C38.0352 49.3938 36.2633 52.0215 34.1241 55.636C33.9617 55.9164 33.7552 56.1819 33.5338 56.4033C31.4683 58.4688 27.5732 57.8196 24.6816 54.9279L50.5611 29.0485Z" fill="#BBDCFF"/>
<path d="M46.0757 23.206C45.8544 23.4274 45.6478 23.6928 45.4855 23.9733C44.1872 26.1568 45.0576 29.5649 47.551 32.0582C50.0444 34.5516 53.4525 35.4221 55.6361 34.1238C55.9164 33.9614 56.182 33.7549 56.4033 33.5336C58.4689 31.468 57.8196 27.573 54.928 24.6814C52.0362 21.7896 48.1413 21.1405 46.0757 23.206Z" fill="#BBDCFF"/>
<path d="M54.928 24.6814C57.8196 27.573 58.4689 31.468 56.4033 33.5336C56.182 33.7549 55.9165 33.9614 55.6361 34.1238C53.4526 35.4221 50.0445 34.5516 47.5511 32.0582L54.928 24.6814Z" fill="#9ABADB"/>
<path d="M39.4809 40.1284C41.2661 41.6481 43.6561 41.9136 45.1463 41.9579C43.6414 43.3449 42.2103 44.776 40.8382 46.2955C38.4628 46.0447 36.7071 45.2038 35.4531 44.1563C32.281 41.4858 32.1335 37.3549 32.0598 37.2221L36.5155 32.7664C36.5891 33.1353 37.1793 36.0269 37.2237 36.2483C37.5923 38.0629 38.4186 39.3023 39.4809 40.1284Z" fill="#FDBF00"/>
<path d="M45.1465 41.9578C43.6416 43.3448 42.2105 44.7759 40.8384 46.2954C38.463 46.0446 36.7073 45.2037 35.4533 44.1562L39.4812 40.1284C41.2663 41.6481 43.6564 41.9135 45.1465 41.9578Z" fill="#FF9100"/>
<g clip-path="url(#clip0)">
<path d="M58.9351 57.7633L63.354 53.4386C63.903 52.9012 64.6598 52.5917 65.4551 52.5791C66.2504 52.5666 67.0179 52.852 67.5862 53.3718L72.382 57.7599L74.9585 55.8468C75.719 55.282 76.782 55.2372 77.5938 55.7358C78.4056 56.2344 78.7825 57.1635 78.5282 58.0391L75.1697 69.5908C74.8698 70.6231 73.8664 71.3398 72.721 71.3398H58.1666C57.0208 71.3401 56.017 70.6234 55.717 69.5908L52.4092 58.2075C52.1425 57.2899 52.5276 56.3153 53.3687 55.7793C54.2098 55.2433 55.3222 55.2636 56.1402 55.8298L58.9342 57.7633H58.9351Z" fill="#DEE4E8" stroke="white" stroke-width="2"/>
</g>
<defs>
<clipPath id="clip0">
<rect width="29" height="22" fill="white" transform="translate(51 50)"/>
</clipPath>
</defs>
</svg>
