<svg width="16" height="16" viewBox="0 0 16 16" fill="none" xmlns="http://www.w3.org/2000/svg">
<g clip-path="url(#clip0)">
<path d="M8.00001 16C12.3807 16 15.932 12.4487 15.932 8.06797C15.932 3.68724 12.3807 0.135956 8.00001 0.135956C3.61928 0.135956 0.0679932 3.68724 0.0679932 8.06797C0.0679932 12.4487 3.61928 16 8.00001 16Z" fill="url(#paint0_linear)"/>
<path d="M15.4539 10.7866V10.7869C15.4163 10.8898 15.3765 10.9918 15.3347 11.0928C14.809 12.3668 13.9607 13.474 12.8917 14.3126C12.4698 14.6434 12.0136 14.9326 11.5296 15.1737C10.5726 15.6497 9.50616 15.9381 8.37788 15.9909C7.022 15.5292 5.74834 14.7574 4.66731 13.6761C1.39999 10.4087 0.959361 5.3847 3.34609 1.64403C3.71777 1.06094 4.1584 0.509282 4.66734 0L5.2815 0.614157L5.61109 0.944064L5.85359 1.18656L6.13041 1.46307V1.46338L11.2043 6.53726H11.2046V6.53758L11.8058 7.1388H11.8061V7.13911L15.4539 10.7866Z" fill="#4AC688"/>
<path d="M15.4538 10.7869C15.4163 10.8899 15.3764 10.9918 15.3347 11.0928C14.8089 12.3668 13.9606 13.4741 12.8916 14.3126C12.4698 14.6435 12.0136 14.9326 11.5296 15.1738C9.38793 15.1802 7.24465 14.3663 5.61067 12.7326C2.35563 9.4773 2.35563 4.19944 5.61099 0.944061L6.1303 1.46337L11.2042 6.53726L11.2045 6.53757L15.4538 10.7869Z" fill="#C9F4C9"/>
<path d="M15.4538 10.7866V10.7869C15.4162 10.8898 15.3764 10.9918 15.3346 11.0928C14.8089 12.3668 13.9606 13.474 12.8916 14.3126C12.5325 14.3789 12.1696 14.4191 11.8057 14.4333C11.6056 14.4414 11.4046 14.4414 11.2045 14.433C9.4536 14.3644 7.7225 13.6939 6.34719 12.4215C6.27403 12.3542 6.2015 12.2842 6.13028 12.213C6.05906 12.1418 5.98912 12.0692 5.92178 11.9961C4.64943 10.6208 3.97893 8.88933 3.91027 7.1388C3.90187 6.93839 3.90187 6.73767 3.90996 6.53758C3.97859 4.78639 4.64909 3.05526 5.92178 1.67994C5.98912 1.60679 6.05872 1.53457 6.13028 1.46335L11.2042 6.53723H11.2045V6.53755L11.8057 7.13877H11.806V7.13908L15.4538 10.7866Z" fill="#D4D65B"/>
<path d="M15.4538 10.7869C15.4163 10.8899 15.3764 10.9918 15.3347 11.0928L5.64111 1.39927L5.85349 1.18655L6.1303 1.46337L11.2042 6.53725L11.2045 6.53756L15.4538 10.7869Z" fill="#C9F4C9"/>
<path d="M11.2046 6.53751L11.8061 7.13898L11.8058 7.56404V14.8308L11.2043 14.8306V14.4331V7.56432V7.13898V6.96254V6.7136L11.2046 6.53751Z" fill="#C9F4C9"/>
<path d="M11.7179 7.05083L11.2926 6.62549L5.64111 12.277L6.06646 12.7023L11.7179 7.05083Z" fill="#C9F4C9"/>
<path d="M11.2043 6.5372L11.8061 7.13898H11.6297H11.3807H3.51276L3.51245 6.53751H3.90992H10.7792L11.2043 6.5372Z" fill="#C9F4C9"/>
<path d="M15.454 10.7866C15.4165 10.8895 15.377 10.9915 15.3349 11.0925C14.8117 12.3607 13.9689 13.4637 12.9067 14.3009C12.4855 14.6328 12.0303 14.9229 11.5466 15.165C10.5912 15.6432 9.52604 15.9343 8.39872 15.99C7.92538 15.83 7.46178 15.6322 7.01306 15.3965C11.3281 13.4057 13.1233 8.45584 13.1233 8.45584L15.454 10.7866Z" fill="#32A066"/>
<path d="M15.454 10.7866C15.4164 10.8895 15.3769 10.9915 15.3348 11.0925C14.8116 12.3607 13.9689 13.4637 12.9066 14.3009C12.4854 14.6328 12.0302 14.9229 11.5465 15.165C10.4898 15.1708 9.43209 14.9766 8.43494 14.5823C11.7262 12.3079 13.1232 8.45584 13.1232 8.45584L15.454 10.7866Z" fill="#ADDBAD"/>
<path d="M15.4539 10.7865C15.4164 10.8895 15.3769 10.9915 15.3348 11.0925C14.8116 12.3606 13.9688 13.4637 12.9066 14.3009C12.5414 14.3692 12.172 14.4106 11.802 14.4252C11.6019 14.4333 11.4011 14.4333 11.2007 14.4249C10.4891 14.3971 9.78074 14.2698 9.09827 14.0426C11.7605 11.8727 12.9859 8.77732 13.1122 8.44482L15.4539 10.7865Z" fill="#D4D65B"/>
<path d="M11.2008 11.8268C11.4213 11.5328 11.6214 11.2421 11.802 10.9623V14.8225L11.2008 14.8222V11.8268Z" fill="#ADDBAD"/>
<path d="M15.454 10.7865C15.4165 10.8895 15.377 10.9915 15.3349 11.0925L12.9893 8.74689C13.0537 8.59667 13.0942 8.49242 13.1123 8.44482L15.454 10.7865Z" fill="#ADDBAD"/>
</g>
<defs>
<linearGradient id="paint0_linear" x1="0.0679932" y1="8.06797" x2="15.932" y2="8.06797" gradientUnits="userSpaceOnUse">
<stop stop-color="#0F8F62"/>
<stop offset="0.458333" stop-color="#0F8F62"/>
<stop offset="1" stop-color="#2BB47E"/>
</linearGradient>
<clipPath id="clip0">
<rect width="16" height="16" fill="white"/>
</clipPath>
</defs>
</svg>
