<svg
    width="111"
    height="110"
    viewBox="0 0 111 110"
    fill="none"
    xmlns="http://www.w3.org/2000/svg"
  >
    <path
      d="M27.2397 25.2663C24.9995 25.2663 22.851 24.3763 21.267 22.7923C19.6829 21.2082 18.793 19.0597 18.793 16.8195C18.793 14.5793 19.6829 12.4308 21.267 10.8468C22.851 9.26269 24.9995 8.37277 27.2397 8.37277C29.4799 8.37277 31.6284 9.26269 33.2125 10.8468C34.7965 12.4308 35.6865 14.5793 35.6865 16.8195C35.6865 19.0597 34.7965 21.2082 33.2125 22.7923C31.6284 24.3763 29.4799 25.2663 27.2397 25.2663Z"
      fill="#EBEBEB"
    />
    <path d="M25.1566 14.9384H23.4087V20.5863H25.1566V14.9384Z" fill="white" />
    <path
      d="M24.2742 14.1985C24.4808 14.2005 24.6834 14.141 24.8562 14.0276C25.029 13.9142 25.1641 13.752 25.2446 13.5617C25.325 13.3713 25.3471 13.1613 25.308 12.9584C25.2689 12.7555 25.1703 12.5687 25.0249 12.4219C24.8795 12.2751 24.6937 12.1748 24.4911 12.1337C24.2886 12.0927 24.0784 12.1128 23.8873 12.1914C23.6961 12.27 23.5327 12.4037 23.4177 12.5754C23.3026 12.7471 23.2412 12.9491 23.2412 13.1557C23.2412 13.4306 23.3497 13.6944 23.5431 13.8896C23.7366 14.0849 23.9993 14.1959 24.2742 14.1985Z"
      fill="white"
    />
    <path
      d="M27.9523 17.6206C27.9523 16.8267 28.3171 16.3534 29.0173 16.3534C29.6583 16.3534 29.9689 16.807 29.9689 17.6206V20.5789H31.7069V17.0092C31.7069 15.4955 30.8514 14.7658 29.6533 14.7658C29.3135 14.7614 28.9784 14.8449 28.6803 15.0082C28.3823 15.1714 28.1315 15.4089 27.9523 15.6976V14.9383H26.2734V20.5838H27.9523V17.6206Z"
      fill="white"
    />
    <path
      d="M38.5585 0L39.7147 2.1152L41.8299 3.27141L39.7147 4.42762L38.5585 6.54282L37.4023 4.42762L35.2871 3.27141L37.4023 2.1152L38.5585 0Z"
      fill="#F5F5F5"
    />
    <path
      d="M86.7962 57.2954L87.664 58.8805L89.2491 59.7483L87.664 60.6161L86.7962 62.2012L85.9284 60.6161L84.3433 59.7483L85.9284 58.8805L86.7962 57.2954Z"
      fill="#EBEBEB"
    />
    <path
      d="M89.2495 49.4625L89.6415 50.1799L90.3564 50.5694L89.6415 50.9614L89.2495 51.6763L88.8575 50.9614L88.1426 50.5694L88.8575 50.1799L89.2495 49.4625Z"
      fill="#E0E0E0"
    />
    <path
      d="M30.2973 0.796356L30.6893 1.51128L31.4042 1.90326L30.6893 2.29277L30.2973 3.01017L29.9054 2.29277L29.1904 1.90326L29.9054 1.51128L30.2973 0.796356Z"
      fill="#E0E0E0"
    />
    <path
      d="M10.6764 67.2752C11.1312 67.0668 11.5151 66.7298 11.7806 66.3057C12.0461 65.8816 12.1816 65.389 12.1703 64.8888C12.1784 64.5632 12.1222 64.2391 12.0048 63.9353C11.8874 63.6314 11.7112 63.3537 11.4863 63.118C11.2614 62.8824 10.9923 62.6934 10.6942 62.562C10.3962 62.4305 10.0751 62.3592 9.74942 62.3521C8.42558 62.3619 7.36304 63.5181 7.37537 64.9307C7.37179 65.4351 7.51793 65.9292 7.79527 66.3505C8.07262 66.7718 8.46871 67.1013 8.93342 67.2974C5.25031 67.9014 5.46725 71.9099 5.46725 71.9099L14.1918 71.836C14.1918 71.836 14.3422 67.7806 10.6764 67.2752Z"
      fill="#E0E0E0"
    />
    <path
      d="M94.3821 93.7006C94.3206 93.3844 94.1487 93.1003 93.8972 92.899C93.6456 92.6978 93.3307 92.5925 93.0087 92.602C92.6867 92.6115 92.3785 92.7351 92.1392 92.9508C91.8999 93.1665 91.7451 93.4602 91.7023 93.7795C91.6575 93.4607 91.501 93.1681 91.2606 92.954C91.0201 92.7399 90.7115 92.6181 90.3896 92.6104C90.0678 92.6027 89.7537 92.7096 89.5033 92.912C89.2529 93.1143 89.0825 93.3991 89.0226 93.7154C88.9581 94.1827 89.0764 94.6569 89.3529 95.0392C89.6267 95.4161 89.9482 95.7559 90.3094 96.05C90.8025 96.4863 91.2487 96.8931 91.7368 97.327C92.2299 96.8882 92.6317 96.4765 93.1149 96.0377C93.4747 95.7405 93.7938 95.3974 94.064 95.017C94.3339 94.6347 94.4476 94.1639 94.3821 93.7006Z"
      fill="#EBEBEB"
    />
    <path
      d="M100.065 41.7303L101 41.5454L102.479 38.2962L102.109 36.43C102.109 36.43 103.537 36.0552 103.852 38.5328C104.168 41.0104 104.227 40.3522 104.227 40.3522C104.227 40.3522 107.296 39.7556 107.604 39.9701C107.829 40.1279 108.516 43.1602 108.876 44.807C108.976 45.2017 108.94 45.6184 108.776 45.9906C108.611 46.3628 108.326 46.6691 107.967 46.8605C107.864 46.9109 107.756 46.9474 107.644 46.969C106.879 47.1218 102.846 47.2747 102.846 47.2747L101.232 47.5952L100.065 41.7303Z"
      fill="#E0E0E0"
    />
    <path
      d="M97.2866 41.7505L99.1282 48.032L100.731 47.7139L99.4881 41.4472L97.2866 41.7505Z"
      fill="#E0E0E0"
    />
    <path
      d="M109.627 109.82C109.627 109.857 85.1764 109.884 55.0235 109.884C24.8707 109.884 0.413086 109.857 0.413086 109.82C0.413086 109.783 24.8583 109.756 55.0235 109.756C85.1887 109.756 109.627 109.785 109.627 109.82Z"
      fill="#263238"
    />
    <path
      d="M90.6326 39.2653C88.2432 40.4267 85.4904 40.5916 82.9794 39.7238C80.4684 38.856 78.4049 37.0265 77.2425 34.6376C76.0811 32.2482 75.9162 29.4954 76.784 26.9844C77.6518 24.4734 79.4813 22.4099 81.8703 21.2475C83.0533 20.6721 84.3381 20.3354 85.6513 20.2566C86.9645 20.1777 88.2804 20.3583 89.5238 20.7881C90.7672 21.2178 91.9137 21.8882 92.898 22.7611C93.8823 23.6339 94.685 24.6921 95.2603 25.8752C95.8357 27.0583 96.1724 28.3431 96.2513 29.6563C96.3301 30.9695 96.1495 32.2854 95.7198 33.5288C95.29 34.7722 94.6196 35.9187 93.7467 36.903C92.8739 37.8873 91.8157 38.69 90.6326 39.2653Z"
      fill="#E8505B"
    />
    <path
      d="M83.7759 32.4951C83.8126 32.4942 83.8487 32.4852 83.8815 32.4686C83.9143 32.452 83.9429 32.4284 83.9654 32.3993C83.9878 32.3702 84.0035 32.3365 84.0112 32.3006C84.019 32.2647 84.0186 32.2276 84.0102 32.1918C83.9855 32.071 83.9189 31.7653 83.8943 31.6395C83.8896 31.57 83.8633 31.5036 83.8191 31.4497C83.7749 31.3958 83.715 31.357 83.6477 31.3388C83.2059 31.1357 82.8547 30.7766 82.6615 30.3304C81.9071 28.7771 82.3928 26.822 84.2567 25.9172C85.9061 25.1134 87.304 25.6706 87.9549 27.0266C88.8154 28.7993 88.7587 30.6755 87.595 31.2426C87.4499 31.3225 87.2881 31.3671 87.1226 31.373C86.9571 31.3789 86.7926 31.3459 86.6422 31.2766C86.4918 31.2073 86.3598 31.1036 86.2568 30.9739C86.1538 30.8443 86.0826 30.6923 86.0491 30.5301C85.8568 29.6622 85.8026 28.6489 85.5314 28.0868C85.2848 27.5937 84.8114 27.2954 84.2542 27.5666C83.596 27.8871 83.3987 28.824 83.8425 29.7337C84.0008 30.0702 84.2285 30.3693 84.5107 30.6114C84.5107 30.6114 85.2256 33.787 85.3489 34.3442C85.5955 35.4512 86.3893 36.5631 86.4658 36.6889C86.4767 36.7028 86.4913 36.7134 86.508 36.7194C86.5247 36.7253 86.5428 36.7265 86.5601 36.7226C86.5774 36.7187 86.5932 36.71 86.6058 36.6975C86.6183 36.685 86.627 36.6692 86.631 36.6519C86.6532 36.5434 86.9663 35.1972 86.7616 34.1026C86.7049 33.7919 86.3721 32.2017 86.3721 32.2017C86.7838 32.5049 87.5826 32.5616 88.2459 32.2387C90.2182 31.2771 90.6867 28.824 89.5131 26.4127C88.628 24.5907 86.2562 23.644 83.9115 24.7855C80.9899 26.2056 80.5363 29.0138 81.3844 30.7594C81.8972 31.8171 82.7478 32.5715 83.7759 32.4951Z"
      fill="white"
    />
    <path
      d="M100.635 67.5222C99.7866 67.1988 99.0108 66.7115 98.3514 66.088C97.692 65.4646 97.162 64.7172 96.7917 63.8887C96.4215 63.0602 96.2182 62.1668 96.1935 61.2597C96.1688 60.3526 96.3232 59.4495 96.6479 58.6021C96.971 57.7542 97.4581 56.9784 98.0812 56.3189C98.7044 55.6595 99.4515 55.1294 100.28 54.7589C101.108 54.3884 102.001 54.1848 102.908 54.1597C103.815 54.1347 104.718 54.2887 105.566 54.6129C106.413 54.9363 107.189 55.4236 107.849 56.0471C108.508 56.6705 109.038 57.4179 109.408 58.2464C109.779 59.0749 109.982 59.9683 110.007 60.8754C110.031 61.7825 109.877 62.6856 109.552 63.533C109.229 64.3809 108.742 65.1567 108.119 65.8161C107.496 66.4756 106.749 67.0057 105.92 67.3762C105.092 67.7467 104.199 67.9503 103.292 67.9754C102.385 68.0004 101.482 67.8464 100.635 67.5222Z"
      fill="#E8505B"
    />
    <path
      fillRule="evenodd"
      clipRule="evenodd"
      d="M106.709 62.2407C107.017 61.3345 106.964 60.3444 106.561 59.4763C106.157 58.6082 105.435 57.9289 104.544 57.5797C103.653 57.2304 102.661 57.2381 101.776 57.6012C100.89 57.9642 100.178 58.6546 99.7887 59.5289C99.7665 59.5782 99.7468 59.63 99.7271 59.6793C99.4858 60.3073 99.4227 60.9898 99.5446 61.6515L98.2109 63.2613L100.371 63.3846C100.787 63.8767 101.324 64.2523 101.929 64.4745C102.534 64.6966 103.186 64.7577 103.822 64.6519C104.458 64.546 105.055 64.2767 105.556 63.8704C106.056 63.4642 106.442 62.9349 106.677 62.3344C106.689 62.3038 106.7 62.2725 106.709 62.2407ZM102.094 63.8998C101.522 63.6829 101.027 63.3021 100.671 62.8052L99.4115 62.7337L100.188 61.7969C100.014 61.1658 100.046 60.4956 100.279 59.8839C100.316 59.7902 100.358 59.6965 100.403 59.6078C100.754 58.9121 101.352 58.3725 102.08 58.0947C102.808 57.8169 103.614 57.8209 104.339 58.1059C105.065 58.3908 105.657 58.9362 106.002 59.6354C106.346 60.3345 106.417 61.137 106.201 61.8857C106.179 61.9646 106.154 62.041 106.124 62.1174C105.826 62.8879 105.234 63.5084 104.478 63.8426C103.722 64.1768 102.865 64.1973 102.094 63.8998Z"
      fill="white"
    />
    <path
      fillRule="evenodd"
      clipRule="evenodd"
      d="M104.53 62.3049C104.459 62.231 104.121 61.8661 104.052 61.8119C103.983 61.7577 103.934 61.7182 103.845 61.7823C103.756 61.8464 103.517 61.9721 103.448 62.0091C103.379 62.0461 103.325 62.0338 103.256 61.9598C103.042 61.7644 102.864 61.5334 102.73 61.2769C102.611 61.0358 102.528 60.7783 102.484 60.5127C102.469 60.4091 102.528 60.3796 102.587 60.3549C102.647 60.3303 102.711 60.2884 102.772 60.2563L102.819 60.2267C102.851 60.2018 102.882 60.1746 102.91 60.1454C102.931 60.127 102.947 60.1034 102.956 60.0771C102.965 60.0507 102.967 60.0224 102.962 59.995C102.962 59.9457 102.945 59.4625 102.938 59.2677C102.93 59.073 102.849 59.073 102.8 59.0533C102.75 59.0335 102.696 59.0039 102.639 58.9842C102.596 58.9685 102.549 58.9619 102.503 58.9649C102.457 58.9679 102.412 58.9803 102.371 59.0015C102.24 59.0561 102.123 59.1371 102.025 59.2393C101.927 59.3415 101.852 59.4629 101.804 59.5956C101.768 59.6932 101.745 59.7952 101.737 59.8988C101.723 60.136 101.75 60.3738 101.818 60.6014C101.841 60.6729 102.05 61.7626 102.785 62.4331C103.519 63.1037 103.566 62.9903 103.729 63.0347C103.858 63.0599 103.991 63.0566 104.119 63.0251C104.247 62.9936 104.366 62.9346 104.468 62.8522C104.573 62.7482 104.645 62.6151 104.673 62.4701C104.631 62.4105 104.583 62.3552 104.53 62.3049Z"
      fill="white"
    />
    <path
      d="M10.7995 35.5879C9.40229 35.5879 8.06229 35.0329 7.07429 34.0449C6.0863 33.0569 5.53125 31.7169 5.53125 30.3196C5.53125 28.9224 6.0863 27.5824 7.07429 26.5944C8.06229 25.6064 9.40229 25.0514 10.7995 25.0514C11.4914 25.0514 12.1764 25.1876 12.8156 25.4524C13.4548 25.7171 14.0356 26.1052 14.5248 26.5944C15.014 27.0836 15.402 27.6644 15.6668 28.3036C15.9315 28.9427 16.0678 29.6278 16.0678 30.3196C16.0678 31.0115 15.9315 31.6965 15.6668 32.3357C15.402 32.9749 15.014 33.5557 14.5248 34.0449C14.0356 34.5341 13.4548 34.9221 12.8156 35.1869C12.1764 35.4517 11.4914 35.5879 10.7995 35.5879Z"
      fill="#E8505B"
    />
    <path
      d="M7.99414 32.0774C8.5001 32.4001 9.08494 32.5779 9.68494 32.5911C10.2849 32.6044 10.8771 32.4528 11.3968 32.1527C11.9166 31.8527 12.344 31.4157 12.6326 30.8895C12.9211 30.3632 13.0596 29.7679 13.0331 29.1684C13.2559 29.0066 13.4486 28.8072 13.6026 28.5792C13.3916 28.6718 13.1682 28.7332 12.9395 28.7616C13.1806 28.6207 13.3627 28.3974 13.4522 28.1329C13.2241 28.2686 12.9737 28.363 12.7127 28.4115C12.5398 28.2224 12.3088 28.0962 12.0563 28.0529C11.8037 28.0095 11.5439 28.0515 11.3179 28.1722C11.0918 28.2928 10.9124 28.4853 10.8078 28.7192C10.7033 28.9532 10.6796 29.2153 10.7404 29.4642C10.2824 29.4406 9.8344 29.3211 9.42544 29.1135C9.01649 28.9058 8.65569 28.6146 8.3664 28.2587C8.21981 28.5126 8.17519 28.8128 8.24156 29.0984C8.30792 29.384 8.48032 29.6337 8.72386 29.797C8.54065 29.7923 8.36132 29.7432 8.20122 29.654C8.19817 29.9225 8.28882 30.1836 8.45757 30.3924C8.62631 30.6012 8.86259 30.7446 9.1257 30.7979C8.95609 30.8441 8.77815 30.8508 8.60553 30.8176C8.67934 31.046 8.82255 31.2457 9.01521 31.3889C9.20787 31.5321 9.44039 31.6116 9.68038 31.6164C9.20016 31.9845 8.59487 32.15 7.99414 32.0774Z"
      fill="white"
    />
    <path
      d="M20.2603 94.6055C17.9204 95.1612 15.4556 94.7652 13.4076 93.5045C11.3596 92.2438 9.8959 90.2215 9.33818 87.8821C9.06167 86.7224 9.01647 85.5195 9.20515 84.3422C9.39383 83.1649 9.8127 82.0364 10.4378 81.0211C11.0629 80.0059 11.882 79.1237 12.8482 78.4252C13.8144 77.7267 14.9089 77.2255 16.0689 76.9502C17.2281 76.6739 18.4302 76.6287 19.6068 76.8171C20.7834 77.0055 21.9113 77.4238 22.9263 78.0481C23.9412 78.6724 24.8232 79.4906 25.5219 80.4558C26.2206 81.421 26.7223 82.5144 26.9984 83.6736C27.2748 84.8338 27.3197 86.0372 27.1306 87.2149C26.9414 88.3925 26.5219 89.5213 25.8961 90.5367C25.2702 91.552 24.4503 92.434 23.4833 93.1322C22.5162 93.8304 21.421 94.331 20.2603 94.6055Z"
      fill="#455A64"
    />
    <path
      d="M17.2196 81.812C18.5114 81.5038 18.6667 81.4718 19.1918 81.3732C19.4991 81.3042 19.816 81.2883 20.1286 81.3263C20.3575 81.354 20.5773 81.4323 20.7721 81.5556C20.9686 81.6749 21.1369 81.8356 21.2651 82.0265C21.4396 82.2887 21.568 82.5789 21.6448 82.8844C21.7902 83.3898 21.8321 83.5426 22.1378 84.8344C22.4435 86.1262 22.4756 86.2815 22.5742 86.8066C22.6445 87.1138 22.6603 87.4308 22.621 87.7434C22.5958 87.9729 22.5173 88.1932 22.3917 88.3869C22.274 88.5839 22.114 88.7523 21.9233 88.8799C21.6601 89.0543 21.3692 89.1827 21.063 89.2596C20.5699 89.405 20.4072 89.4469 19.1154 89.7526C17.8236 90.0583 17.6683 90.0928 17.1432 90.1914C16.8352 90.2616 16.5173 90.2775 16.2039 90.2383C15.9749 90.2114 15.7549 90.133 15.5605 90.009C15.3659 89.886 15.2022 89.7198 15.0822 89.5234C14.9062 89.2616 14.7769 88.9714 14.7001 88.6654C14.5571 88.1601 14.5152 88.0097 14.2071 86.7179C13.8989 85.4261 13.8668 85.2708 13.7682 84.7457C13.7005 84.4374 13.6847 84.1199 13.7214 83.8064C13.7517 83.5784 13.8297 83.3594 13.9504 83.1636C14.071 82.9677 14.2315 82.7995 14.4215 82.6699C14.6835 82.4944 14.9737 82.3651 15.2794 82.2878C15.7725 82.1448 15.9377 82.1029 17.2295 81.7947L17.2196 81.812ZM17.0224 80.922C15.7084 81.2351 15.5432 81.2795 15.0329 81.4274C14.6336 81.5265 14.2542 81.6933 13.9112 81.9205C13.6202 82.1217 13.3742 82.3812 13.1887 82.6825C13.0033 82.9838 12.8824 83.3204 12.8339 83.6708C12.7821 84.0818 12.8004 84.4986 12.8881 84.9035C12.9892 85.4236 13.0213 85.5913 13.3344 86.9052C13.6474 88.2192 13.6918 88.3844 13.8274 88.8923C13.926 89.2917 14.0928 89.6712 14.3205 90.0139C14.5211 90.3158 14.7863 90.5693 15.097 90.756C15.396 90.9442 15.7326 91.0645 16.0831 91.1085C16.4941 91.1606 16.9109 91.1423 17.3158 91.0543C17.8359 90.9557 18.0036 90.9212 19.3176 90.6081C20.6315 90.295 20.7967 90.2506 21.3046 90.115C21.7033 90.0142 22.0824 89.8476 22.4263 89.622C22.7203 89.4237 22.9676 89.1637 23.151 88.8602C23.3382 88.5605 23.4592 88.2243 23.506 87.8741C23.5571 87.463 23.5379 87.0462 23.4493 86.6415C23.3507 86.1188 23.3162 85.9537 23.0031 84.6397C22.69 83.3257 22.6457 83.1605 22.5101 82.6502C22.4088 82.2516 22.2422 81.8726 22.017 81.5285C21.8186 81.2352 21.5587 80.9887 21.2553 80.8062C20.9567 80.6166 20.62 80.4954 20.2691 80.4512C19.8582 80.3991 19.4413 80.4174 19.0365 80.5054C18.5139 80.6065 18.3487 80.6385 17.0347 80.9516"
      fill="white"
    />
    <path
      d="M17.5724 83.2939C17.081 83.411 16.6354 83.6711 16.2919 84.0414C15.9484 84.4117 15.7224 84.8755 15.6425 85.3743C15.5626 85.873 15.6324 86.3843 15.843 86.8433C16.0536 87.3024 16.3956 87.6888 16.8258 87.9535C17.256 88.2182 17.755 88.3494 18.2597 88.3306C18.7645 88.3117 19.2523 88.1436 19.6615 87.8475C20.0707 87.5514 20.383 87.1407 20.5588 86.6671C20.7345 86.1936 20.7659 85.6786 20.649 85.1872C20.5714 84.8608 20.4302 84.553 20.2336 84.2812C20.0369 84.0094 19.7886 83.779 19.5029 83.6032C19.2172 83.4274 18.8997 83.3096 18.5684 83.2565C18.2372 83.2034 17.8987 83.2161 17.5724 83.2939ZM18.5585 87.3936C18.185 87.4818 17.7925 87.4378 17.4478 87.2691C17.1031 87.1004 16.8275 86.8174 16.6681 86.4683C16.5086 86.1192 16.4751 85.7257 16.5732 85.3546C16.6713 84.9836 16.8951 84.6581 17.2063 84.4335C17.5175 84.2089 17.8969 84.0992 18.2799 84.123C18.663 84.1467 19.0259 84.3026 19.307 84.5639C19.588 84.8252 19.7698 85.1759 19.8213 85.5562C19.8728 85.9365 19.7909 86.3229 19.5895 86.6496C19.475 86.8353 19.325 86.9966 19.1481 87.1243C18.9712 87.2519 18.7708 87.3435 18.5585 87.3936Z"
      fill="white"
    />
    <path
      d="M20.7136 82.4432C20.7444 82.577 20.728 82.7174 20.6671 82.8404C20.6062 82.9634 20.5045 83.0616 20.3795 83.1181C20.2544 83.1747 20.1135 83.1862 19.9809 83.1507C19.8483 83.1152 19.7321 83.0348 19.652 82.9233C19.572 82.8117 19.533 82.6759 19.5417 82.5389C19.5505 82.4019 19.6064 82.2721 19.7 82.1717C19.7936 82.0713 19.9191 82.0064 20.0552 81.988C20.1912 81.9696 20.3295 81.999 20.4463 82.071C20.5132 82.1124 20.5713 82.1665 20.6171 82.2304C20.663 82.2943 20.6958 82.3666 20.7136 82.4432Z"
      fill="white"
    />
    <path
      d="M89 86.6191C88.4442 86.6194 87.8938 86.5102 87.3803 86.2978C86.8668 86.0853 86.4001 85.7737 86.007 85.3809C85.6139 84.988 85.3021 84.5216 85.0893 84.0081C84.8766 83.4947 84.7671 82.9444 84.7671 82.3887C84.7671 81.8329 84.8766 81.2826 85.0893 80.7692C85.3021 80.2558 85.6139 79.7893 86.007 79.3965C86.4001 79.0036 86.8668 78.692 87.3803 78.4796C87.8938 78.2671 88.4442 78.1579 89 78.1583C89.5561 78.1573 90.107 78.266 90.6211 78.4782C91.1352 78.6903 91.6025 79.0018 91.9961 79.3947C92.3897 79.7876 92.702 80.2543 92.915 80.7681C93.1281 81.2818 93.2377 81.8325 93.2377 82.3887C93.2377 82.9448 93.1281 83.4955 92.915 84.0093C92.702 84.523 92.3897 84.9897 91.9961 85.3826C91.6025 85.7756 91.1352 86.087 90.6211 86.2992C90.107 86.5113 89.5561 86.62 89 86.6191Z"
      fill="#455A64"
    />
    <path
      d="M88.3543 84.9453H89.3848V82.374H90.1022L90.1811 81.5112H89.3848V81.0181C89.3848 80.816 89.4267 80.7346 89.6314 80.7346H90.191V79.8373H89.476C88.7093 79.8373 88.3642 80.175 88.3642 80.8234V81.5137H87.8145V82.374H88.3494L88.3543 84.9453Z"
      fill="white"
    />
    <path
      d="M74.5673 110L40.5708 109.988C38.6091 109.988 36.7278 109.208 35.3407 107.821C33.9536 106.434 33.1743 104.553 33.1743 102.591L33.1891 17.3644C33.1891 16.3918 33.3809 15.4288 33.7535 14.5305C34.1262 13.6321 34.6723 12.8161 35.3607 12.1291C36.0491 11.4421 36.8662 10.8976 37.7653 10.5267C38.6644 10.1559 39.6278 9.96601 40.6003 9.96796L74.5944 9.98768C76.5561 9.98768 78.4374 10.7669 79.8245 12.1541C81.2116 13.5412 81.9909 15.4225 81.9909 17.3841L81.9761 102.591C81.9777 103.565 81.7872 104.529 81.4154 105.428C81.0437 106.328 80.498 107.145 79.8097 107.834C79.1214 108.522 78.3041 109.068 77.4044 109.439C76.5048 109.811 75.5407 110.002 74.5673 110Z"
      fill="#263238"
    />
    <path
      d="M74.557 12.9756H67.9643C67.5316 12.9859 67.1206 13.167 66.8208 13.4792C66.5211 13.7914 66.3569 14.2095 66.3642 14.6422V15.838C66.3691 16.0529 66.3316 16.2666 66.2538 16.467C66.176 16.6673 66.0595 16.8504 65.9108 17.0057C65.7622 17.1609 65.5844 17.2853 65.3877 17.3718C65.1909 17.4583 64.979 17.5051 64.7641 17.5096H51.9165C51.7015 17.5048 51.4895 17.4577 51.2927 17.3709C51.0959 17.2842 50.9182 17.1595 50.7696 17.0041C50.621 16.8486 50.5045 16.6654 50.4267 16.4649C50.349 16.2644 50.3115 16.0505 50.3164 15.8355V14.6324C50.325 14.1985 50.1615 13.7789 49.8617 13.4652C49.5619 13.1516 49.1501 12.9693 48.7163 12.9583H40.627C39.9461 12.9567 39.2715 13.0894 38.6419 13.3489C38.0123 13.6084 37.4401 13.9895 36.958 14.4704C36.4759 14.9513 36.0934 15.5227 35.8325 16.1516C35.5715 16.7806 35.4372 17.4549 35.4372 18.1358L35.4199 101.324C35.4199 102.697 35.9654 104.014 36.9364 104.985C37.9074 105.956 39.2243 106.501 40.5974 106.501L74.5274 106.521C75.2073 106.521 75.8806 106.387 76.5088 106.127C77.1369 105.867 77.7077 105.485 78.1885 105.004C78.6692 104.524 79.0506 103.953 79.3108 103.325C79.571 102.697 79.7049 102.023 79.7049 101.343L79.7222 18.1531C79.7222 16.7821 79.1784 15.467 78.2101 14.4964C77.2418 13.5258 75.928 12.9788 74.557 12.9756Z"
      fill="white"
    />
    <path
      d="M75.0527 19.7337C75.0527 19.7559 74.1948 19.7806 73.1396 19.788C72.0845 19.7953 71.2241 19.788 71.2241 19.7658C71.2241 19.7436 72.0796 19.7165 73.1372 19.7091C74.1948 19.7017 75.0527 19.7115 75.0527 19.7337Z"
      fill="#263238"
    />
    <path
      d="M75.06 20.7125C75.06 20.7347 74.2046 20.7594 73.147 20.7692C72.0894 20.7791 71.2314 20.7692 71.2314 20.7446C71.2314 20.7199 72.0894 20.6977 73.147 20.6879C74.2046 20.678 75.06 20.6903 75.06 20.7125Z"
      fill="#263238"
    />
    <path
      d="M75.0698 21.6913C75.0698 21.7135 74.2119 21.7406 73.1543 21.748C72.0967 21.7554 71.2412 21.748 71.2388 21.7234C71.2363 21.6987 72.0967 21.6765 73.1543 21.6667C74.2119 21.6568 75.0698 21.6691 75.0698 21.6913Z"
      fill="#263238"
    />
    <path
      d="M38.9971 22.6468H39.3768L40.4072 22.6222L40.3777 22.6493C40.3777 22.4225 40.3777 22.1735 40.3653 21.9097V21.4807C40.3816 21.3979 40.4238 21.3224 40.4859 21.2653C40.5479 21.2081 40.6266 21.1722 40.7105 21.1627H41.2035C41.2978 21.178 41.3836 21.2263 41.4455 21.299C41.5073 21.3717 41.5413 21.4641 41.5413 21.5596C41.5413 21.9097 41.5413 22.2721 41.5536 22.6493L41.5067 22.6024H42.8059L42.7566 22.6517C42.7566 22.1291 42.7566 21.5867 42.7418 21.0321V20.6204C42.7362 20.559 42.717 20.4997 42.6854 20.4468C42.6538 20.3939 42.6108 20.3487 42.5594 20.3147L41.9924 19.7526L41.4426 19.2127L41.1789 18.9514C41.0877 18.8626 41.0162 18.7714 40.9101 18.7492C40.8593 18.7359 40.8062 18.734 40.7546 18.7438C40.703 18.7536 40.6542 18.7748 40.6119 18.8059C40.533 18.8725 40.4491 18.9662 40.3653 19.0525L39.8969 19.5233C39.6036 19.8265 39.2979 20.1051 39.076 20.3689C39.0101 20.5244 38.988 20.6948 39.0119 20.862V22.5285C39.0154 22.5851 39.0154 22.6419 39.0119 22.6986C39.009 22.6469 39.009 22.595 39.0119 22.5433V22.0773C39.0119 21.8924 39.0119 21.6163 38.9946 21.3378V20.6228C38.994 20.5277 39.0187 20.4341 39.0661 20.3516C39.3127 20.0583 39.5937 19.797 39.8895 19.4839L40.353 19.0081C40.4368 18.9267 40.5034 18.8454 40.5995 18.7615C40.6525 18.7212 40.714 18.6933 40.7794 18.6801C40.8447 18.6668 40.9122 18.6686 40.9767 18.6851C41.0995 18.7302 41.2077 18.8077 41.2898 18.9095L41.5561 19.1708L42.1058 19.7107L42.6753 20.2678C42.7286 20.3157 42.7773 20.3685 42.8207 20.4256C42.8634 20.491 42.8873 20.5669 42.8898 20.645C42.8898 20.7831 42.8898 20.9211 42.8898 21.0592C42.8898 21.6139 42.8898 22.1562 42.9021 22.6789V22.7282H41.4624V21.5917C41.464 21.5165 41.4385 21.4432 41.3905 21.3852C41.3425 21.3273 41.2753 21.2885 41.2011 21.2761H40.7277C40.6613 21.2828 40.5986 21.3102 40.5486 21.3544C40.4986 21.3987 40.4638 21.4575 40.4491 21.5227V22.706H39.0982C39.0625 22.6898 39.0287 22.67 38.9971 22.6468Z"
      fill="#263238"
    />
    <path
      d="M61.4325 87.6528C61.3143 87.6714 61.1947 87.6797 61.075 87.6775L60.1037 87.6972C59.2852 87.7095 58.1512 87.7169 56.8989 87.7169C55.6465 87.7169 54.5125 87.7169 53.694 87.6972L52.7227 87.6775C52.6031 87.6795 52.4835 87.6713 52.3652 87.6528C52.4833 87.6329 52.603 87.6246 52.7227 87.6282L53.694 87.606C54.5125 87.606 55.6465 87.5887 56.8989 87.5887C58.1512 87.5887 59.2828 87.5887 60.1037 87.606L61.075 87.6282C61.1947 87.6244 61.3145 87.6327 61.4325 87.6528Z"
      fill="#455A64"
    />
    <path
      d="M75.6764 89.8816C75.6764 89.9186 70.457 89.9457 64.0196 89.9457C57.5822 89.9457 52.3628 89.9186 52.3628 89.8816C52.3628 89.8447 57.5822 89.8175 64.0196 89.8175C70.457 89.8175 75.6764 89.8471 75.6764 89.8816Z"
      fill="#455A64"
    />
    <path
      d="M68.3909 91.9896C68.3909 92.0266 64.8036 92.0537 60.3781 92.0537C55.9525 92.0537 52.3628 92.0266 52.3628 91.9896C52.3628 91.9527 55.9501 91.9255 60.3781 91.9255C64.8061 91.9255 68.3909 91.9453 68.3909 91.9896Z"
      fill="#455A64"
    />
    <path
      d="M76.1377 96.0649L75.4129 95.3376L74.7227 96.0255V93.9448H76.1353L76.1377 96.0649ZM75.4129 95.2464L75.4351 95.2686L76.0736 95.9096V94.0113H74.7892V95.8726L75.4129 95.2464Z"
      fill="#263238"
    />
    <path
      d="M56.8499 95.7938L56.6033 95.6804C56.4561 95.7496 56.2884 95.7615 56.1329 95.7136C55.9775 95.6657 55.8454 95.5615 55.7627 95.4215C55.68 95.2814 55.6525 95.1155 55.6856 94.9562C55.7187 94.797 55.81 94.6558 55.9417 94.5603C56.0734 94.4648 56.236 94.4219 56.3977 94.44C56.5594 94.458 56.7085 94.5357 56.8159 94.6579C56.9233 94.7801 56.9812 94.938 56.9784 95.1006C56.9756 95.2633 56.9121 95.419 56.8005 95.5374L56.8499 95.7938ZM56.2557 94.4083C56.0872 94.42 55.9295 94.4957 55.8148 94.6198C55.7001 94.7438 55.6371 94.907 55.6387 95.076C55.6403 95.245 55.7063 95.4069 55.8232 95.5289C55.9402 95.6508 56.0993 95.7235 56.2681 95.7321C56.3806 95.7244 56.4897 95.6897 56.5861 95.631L56.7759 95.7149L56.7315 95.53C56.8184 95.4351 56.8758 95.3168 56.8964 95.1898C56.9171 95.0628 56.9002 94.9325 56.8478 94.8149C56.7955 94.6973 56.7099 94.5976 56.6016 94.528C56.4934 94.4584 56.3672 94.4219 56.2385 94.4231L56.2557 94.4083Z"
      fill="#263238"
    />
    <path
      d="M58.492 95.6878L58.2011 94.9728L57.6514 94.4798H58.9826L58.492 95.6878ZM57.7746 94.5217L58.243 94.9506L58.4896 95.5596L58.9087 94.5118L57.7746 94.5217Z"
      fill="#263238"
    />
    <path
      d="M58.952 94.4658L58.2246 94.9391L58.2515 94.9804L58.9789 94.5072L58.952 94.4658Z"
      fill="#263238"
    />
    <path
      d="M54.7516 94.6178C54.732 94.5227 54.6794 94.4376 54.6031 94.3775C54.5268 94.3175 54.4317 94.2863 54.3346 94.2895C54.2376 94.2928 54.1448 94.3302 54.0727 94.3953C54.0006 94.4603 53.9538 94.5487 53.9405 94.6449C53.9272 94.5476 53.8796 94.4582 53.8061 94.3929C53.7327 94.3276 53.6383 94.2908 53.5401 94.289C53.4419 94.2872 53.3462 94.3206 53.2705 94.3832C53.1947 94.4457 53.1438 94.5333 53.127 94.6301C53.108 94.7721 53.1442 94.9159 53.2281 95.032C53.3114 95.1461 53.4092 95.2488 53.519 95.3377C53.6694 95.4683 53.805 95.5842 53.9529 95.7223C54.1008 95.5891 54.224 95.4634 54.372 95.3303C54.4804 95.2396 54.5765 95.1352 54.6579 95.0197C54.7404 94.9031 54.774 94.7589 54.7516 94.6178Z"
      fill="#E8505B"
    />
    <path
      d="M77.6218 97.9068V96.9995C77.6218 96.4053 77.6218 95.5202 77.6095 94.3959C77.6095 92.1302 77.5971 88.8338 77.5873 84.6992L77.6292 84.7411L38.2037 84.7633L38.2678 84.6992V97.9068L38.2061 97.8451L66.4186 97.8723L74.6534 97.8895H74.6903L66.468 97.9068L38.2135 97.9364H38.1494V84.6351H38.2184L77.644 84.6573H77.6859V84.6992C77.6859 88.8437 77.6686 92.1499 77.6637 94.4231V97.6824C77.6681 97.7595 77.6537 97.8365 77.6218 97.9068Z"
      fill="#263238"
    />
    <path
      d="M39.8385 86.9108L39.7861 95.6427L50.7073 95.7083L50.7597 86.9763L39.8385 86.9108Z"
      fill="#EBEBEB"
    />
    <path
      d="M50.7546 86.965H47.7075L39.8187 86.9477L39.8778 86.891C39.8655 89.4919 39.8507 92.4699 39.8359 95.6205C39.8483 95.6378 39.7151 95.4997 39.7718 95.5564H42.7425L45.5775 95.5737L50.6905 95.6107L50.6387 95.6649C50.6634 93.0419 50.6856 90.8675 50.7028 89.339C50.7028 88.5797 50.7201 87.9831 50.725 87.5665V95.7167H50.6708L45.5578 95.6969L42.7228 95.6822H39.7521L39.6855 95.6156C39.7077 92.4625 39.725 89.4845 39.7423 86.8861V86.8269H39.8014L47.7149 86.8984L49.9337 86.928H50.6659L50.7546 86.965Z"
      fill="#263238"
    />
    <path
      d="M40.2123 87.4627L40.1665 95.0952L50.3209 95.1561L50.3667 87.5236L40.2123 87.4627Z"
      fill="#E0E0E0"
    />
    <path
      d="M40.1616 95.0883L43.7363 90.3649L45.9156 93.3454L47.4144 91.7652L50.3161 95.145L40.1616 95.0883Z"
      fill="#F5F5F5"
    />
    <path
      d="M46.8699 89.8002C46.8688 89.985 46.8037 90.1636 46.6856 90.3057C46.5676 90.4478 46.4039 90.5446 46.2225 90.5796C46.0411 90.6146 45.8532 90.5856 45.6907 90.4976C45.5283 90.4096 45.4014 90.268 45.3316 90.0969C45.2618 89.9259 45.2535 89.7359 45.3081 89.5594C45.3627 89.3829 45.4767 89.2308 45.6309 89.1289C45.785 89.0271 45.9697 88.9818 46.1534 89.0008C46.3372 89.0198 46.5087 89.102 46.6387 89.2332C46.7878 89.3841 46.871 89.5881 46.8699 89.8002Z"
      fill="#F5F5F5"
    />
    <path
      d="M58.2503 30.3205C58.2112 30.3271 58.1712 30.3271 58.132 30.3205L57.7992 30.3328L56.5664 30.355C55.5284 30.355 54.1009 30.3723 52.5082 30.3723C50.9155 30.3723 49.488 30.3723 48.45 30.355L47.2173 30.3328L46.882 30.3205C46.8437 30.3273 46.8044 30.3273 46.7661 30.3205C46.804 30.3111 46.843 30.307 46.882 30.3082H47.2173L48.45 30.2884C49.488 30.2761 50.9155 30.2687 52.5082 30.2687C54.1009 30.2687 55.5284 30.2687 56.5664 30.2884L57.7992 30.3082H58.132C58.1718 30.3072 58.2116 30.3113 58.2503 30.3205Z"
      fill="#263238"
    />
    <path
      d="M74.3846 78.5895L73.3098 77.5097L72.2817 78.5328V75.4413H74.3821L74.3846 78.5895ZM73.3098 77.3765L73.3418 77.4086L74.2909 78.3602V75.5399H72.3779V78.3059L73.3098 77.3765Z"
      fill="#263238"
    />
    <path
      d="M47.052 78.264L46.5589 78.0397C46.2718 78.1732 45.9452 78.1949 45.643 78.1004C45.3408 78.0059 45.0847 77.8021 44.9247 77.5289C44.7647 77.2556 44.7125 76.9325 44.7781 76.6227C44.8436 76.313 45.0224 76.0388 45.2794 75.8538C45.5364 75.6688 45.8532 75.5864 46.1677 75.6225C46.4823 75.6586 46.7721 75.8108 46.9805 76.0493C47.1888 76.2877 47.3007 76.5953 47.2944 76.9119C47.288 77.2284 47.1638 77.5313 46.946 77.7611L47.052 78.264ZM45.8761 75.5399C45.7051 75.5414 45.5362 75.5765 45.3788 75.6433C45.2214 75.71 45.0787 75.8071 44.9589 75.929C44.8391 76.0509 44.7444 76.1952 44.6803 76.3537C44.6163 76.5122 44.584 76.6818 44.5855 76.8527C44.587 77.0236 44.6221 77.1926 44.6888 77.35C44.7556 77.5073 44.8527 77.65 44.9746 77.7699C45.0965 77.8897 45.2408 77.9843 45.3993 78.0484C45.5578 78.1125 45.7273 78.1447 45.8983 78.1433C46.12 78.1299 46.3351 78.0622 46.5244 77.946L46.5466 77.9337L46.9164 78.0989L46.8326 77.734L46.8498 77.7168C47.0211 77.5299 47.1339 77.297 47.1745 77.0467C47.215 76.7965 47.1814 76.5399 47.0779 76.3085C46.9744 76.0771 46.8055 75.8811 46.5919 75.7445C46.3784 75.6079 46.1295 75.5368 45.8761 75.5399Z"
      fill="#263238"
    />
    <path
      d="M50.287 78.0496L49.7102 76.6419L48.6304 75.6558L51.2534 75.6361L50.287 78.0496ZM48.8744 75.7495L49.7964 76.5951L50.2895 77.7932L51.1129 75.7322L48.8744 75.7495Z"
      fill="#263238"
    />
    <path
      d="M51.2009 75.6315L49.771 76.5619L49.8234 76.6425L51.2534 75.7121L51.2009 75.6315Z"
      fill="#263238"
    />
    <path
      d="M42.9248 75.9639C42.8876 75.7752 42.7845 75.6058 42.6339 75.4861C42.4833 75.3664 42.2951 75.304 42.1028 75.3103C41.9106 75.3165 41.7268 75.3908 41.5843 75.5201C41.4417 75.6493 41.3498 75.825 41.3248 76.0157C41.2966 75.8257 41.2018 75.652 41.0574 75.5254C40.913 75.3987 40.7284 75.3274 40.5364 75.3242C40.3443 75.3209 40.1574 75.3859 40.0088 75.5076C39.8602 75.6292 39.7596 75.7997 39.7249 75.9886C39.6879 76.2674 39.7593 76.5498 39.9246 76.7775C40.09 77.0021 40.283 77.205 40.499 77.3815C40.7923 77.628 41.0611 77.8745 41.3544 78.1383C41.6404 77.877 41.8869 77.6305 42.1754 77.3667C42.3884 77.1874 42.5781 76.982 42.7399 76.7553C42.9003 76.5248 42.9665 76.2417 42.9248 75.9639Z"
      fill="#E8505B"
    />
    <path
      d="M42.6857 32.1027C43.6687 32.1027 44.4656 31.3058 44.4656 30.3228C44.4656 29.3398 43.6687 28.5429 42.6857 28.5429C41.7027 28.5429 40.9058 29.3398 40.9058 30.3228C40.9058 31.3058 41.7027 32.1027 42.6857 32.1027Z"
      fill="#EBEBEB"
    />
    <path
      d="M73.7141 68.3826C73.7141 68.4196 66.2536 68.4492 57.0524 68.4492C47.8512 68.4492 40.3882 68.4196 40.3882 68.3826C40.3882 68.3456 47.8487 68.3185 57.0524 68.3185C66.256 68.3185 73.7141 68.3481 73.7141 68.3826Z"
      fill="#455A64"
    />
    <path
      d="M73.7141 65.609C73.7141 65.6435 66.2536 65.6731 57.0524 65.6731C47.8512 65.6731 40.3882 65.6435 40.3882 65.609C40.3882 65.5744 47.8487 65.5449 57.0524 65.5449C66.256 65.5449 73.7141 65.5744 73.7141 65.609Z"
      fill="#455A64"
    />
    <path
      d="M58.5267 71.1958C58.5267 71.2303 54.4661 71.2599 49.4587 71.2599C44.4513 71.2599 40.3882 71.2303 40.3882 71.1958C40.3882 71.1612 44.4488 71.1316 49.4587 71.1316C54.4686 71.1316 58.5267 71.1612 58.5267 71.1958Z"
      fill="#455A64"
    />
    <path
      d="M56.2906 101.43C56.2883 101.595 56.229 101.754 56.1227 101.879C56.0165 102.005 55.8699 102.091 55.7078 102.121C55.5458 102.151 55.3784 102.124 55.2341 102.044C55.0898 101.964 54.9776 101.837 54.9165 101.684C54.8554 101.531 54.8492 101.362 54.8991 101.205C54.9489 101.048 55.0516 100.913 55.1897 100.823C55.3279 100.733 55.4929 100.694 55.6566 100.712C55.8204 100.73 55.9728 100.804 56.0879 100.922C56.1536 100.989 56.2053 101.069 56.2401 101.156C56.2748 101.243 56.292 101.336 56.2906 101.43Z"
      fill="#263238"
    />
    <path
      d="M58.4751 101.44C58.4722 101.604 58.4126 101.762 58.3064 101.887C58.2002 102.012 58.054 102.096 57.8925 102.126C57.7311 102.155 57.5645 102.128 57.4209 102.048C57.2774 101.969 57.1659 101.842 57.1053 101.69C57.0447 101.537 57.0389 101.368 57.0887 101.212C57.1385 101.056 57.2409 100.921 57.3786 100.832C57.5162 100.743 57.6806 100.704 57.8436 100.722C58.0067 100.74 58.1585 100.814 58.2732 100.931C58.3389 100.999 58.3906 101.078 58.4252 101.165C58.4599 101.253 58.4768 101.346 58.4751 101.44Z"
      fill="#263238"
    />
    <path
      d="M60.6763 101.45C60.674 101.614 60.6147 101.773 60.5085 101.899C60.4022 102.025 60.2556 102.11 60.0936 102.14C59.9316 102.17 59.7642 102.143 59.6199 102.064C59.4756 101.984 59.3633 101.857 59.3022 101.704C59.2412 101.551 59.235 101.381 59.2848 101.224C59.3346 101.067 59.4373 100.932 59.5755 100.843C59.7136 100.753 59.8786 100.714 60.0424 100.732C60.2061 100.75 60.3586 100.824 60.4737 100.942C60.5394 101.009 60.5912 101.088 60.626 101.175C60.6608 101.263 60.6779 101.356 60.6763 101.45Z"
      fill="#263238"
    />
    <path
      d="M77.8587 33.8437H38.4282V57.9561H77.8587V33.8437Z"
      fill="#E0E0E0"
    />
    <path
      d="M42.0669 57.961L53.3662 42.8378L60.3706 52.2954L65.1192 47.2362L74.4288 57.9512L42.0669 57.961Z"
      fill="#F5F5F5"
    />
    <path
      d="M63.3413 40.981C63.3418 41.4853 63.1927 41.9784 62.9129 42.3979C62.6331 42.8174 62.2352 43.1445 61.7695 43.3378C61.3037 43.5312 60.7911 43.582 60.2965 43.4839C59.8018 43.3858 59.3474 43.1432 58.9906 42.7868C58.6339 42.4305 58.3909 41.9762 58.2923 41.4817C58.1938 40.9872 58.2441 40.4745 58.437 40.0086C58.6298 39.5426 58.9565 39.1444 59.3758 38.8642C59.795 38.584 60.288 38.4344 60.7922 38.4344C61.4679 38.4344 62.1159 38.7026 62.5939 39.1801C63.0718 39.6577 63.3407 40.3054 63.3413 40.981Z"
      fill="#F5F5F5"
    />
    <path
      d="M77.7527 80.3649C77.7527 79.8496 77.7281 58.067 77.6936 25.8185L77.7527 25.8777H38.3272L38.3913 25.8136V80.3599L38.3371 80.3082L77.7675 80.3599L38.3371 80.4142H38.2853V80.3599C38.2853 65.0912 38.2853 46.213 38.2729 25.8136V25.7495H77.8267V25.8062C77.8144 41.9477 77.8045 55.5892 77.7971 65.1997C77.7971 69.9975 77.7848 73.787 77.7823 76.3807V80.0986C77.7848 80.1883 77.7748 80.2779 77.7527 80.3649Z"
      fill="#263238"
    />
    <path
      d="M59.215 87.1326L60.0878 84.2012C60.2406 83.5651 60.4428 82.8156 60.714 81.96C60.9605 81.1908 61.5868 80.3821 62.1588 79.8003C63.0488 78.8955 63.4729 78.8905 64.0695 78.4098C64.1238 78.3752 64.1854 78.3235 64.2372 78.2963C64.35 78.2349 64.449 78.151 64.5281 78.0498C65.0434 77.4926 64.5478 76.6272 63.5 76.711C62.7135 76.7727 61.4265 76.997 59.3358 79.1543C59.3087 79.1888 59.2815 79.216 59.2569 79.248C58.1598 80.6755 57.1292 76.6026 56.9418 75.0863C56.9055 74.8513 56.8167 74.6275 56.6821 74.4314C56.5476 74.2354 56.3706 74.0721 56.1644 73.9538C55.9582 73.8354 55.7279 73.7649 55.4908 73.7476C55.2536 73.7302 55.0156 73.7664 54.7944 73.8535L49.7007 76.2352C49.2148 76.0943 48.6968 76.1115 48.2214 76.2845C47.8649 76.4096 47.5679 76.6631 47.3883 76.9954C47.2087 77.3278 47.1594 77.7151 47.25 78.0818L49.3185 86.319L43.251 106.511H56.3304L59.215 87.1326Z"
      fill="#FFBE9D"
    />
    <path
      d="M69.2739 68.5873L65.2305 76.5113L63.2088 75.9492L53.0511 84.216C52.6365 84.5552 52.1059 84.7192 51.5722 84.6731C51.0385 84.6271 50.5439 84.3746 50.1936 83.9694L46.3228 79.4748C46.3228 79.4748 54.126 76.1144 55.5683 73.3333C57.0106 70.5522 55.344 69.9186 55.344 69.9186L59.0151 65.747L69.2739 68.5873Z"
      fill="#E8505B"
    />
    <path
      d="M64.0299 52.4038C64.0299 52.4038 58.1127 51.0947 49.7818 43.0868C41.451 35.0789 37.5407 24.4354 36.5323 24.4946C35.524 24.5538 31.0614 22.4803 22.595 40.895C14.1285 59.3097 17.4643 63.5774 19.1433 63.5528C20.8223 63.5281 32.2646 60.3304 39.4096 61.1415C46.5545 61.9527 55.7385 65.678 55.7385 65.678L64.0299 52.4038Z"
      fill="#E8505B"
    />
    <path
      d="M76.6015 62.4408L74.5822 66.2796L73.6774 68.0054C73.0802 69.1415 72.0698 70.005 70.8546 70.4179C69.6393 70.8307 68.312 70.7615 67.1463 70.2244L54.4614 65.8037L61.8579 48.9398L74.5305 55.6928C75.6963 56.3166 76.5682 57.3761 76.9562 58.6401C77.3441 59.9042 77.2166 61.2704 76.6015 62.4408Z"
      fill="#E8505B"
    />
    <g opacity="0.4">
      <path
        opacity="0.4"
        d="M76.6015 62.4408L74.5822 66.2796L73.6774 68.0054C73.0802 69.1415 72.0698 70.005 70.8546 70.4179C69.6393 70.8307 68.312 70.7615 67.1463 70.2244L54.4614 65.8037L61.8579 48.9398L74.5305 55.6928C75.6963 56.3166 76.5682 57.3761 76.9562 58.6401C77.3441 59.9042 77.2166 61.2704 76.6015 62.4408Z"
        fill="black"
      />
    </g>
    <path
      d="M23.2704 41.2302C18.7659 51.2056 16.8897 60.0961 19.0791 61.0848C21.2684 62.0734 26.6999 54.7904 31.2043 44.8126C35.7087 34.8348 37.585 25.9492 35.3956 24.9581C33.2063 23.9669 27.7748 31.2549 23.2704 41.2302Z"
      fill="#E8505B"
    />
    <g opacity="0.5">
      <path
        opacity="0.5"
        d="M23.2704 41.2302C18.7659 51.2056 16.8897 60.0961 19.0791 61.0848C21.2684 62.0734 26.6999 54.7904 31.2043 44.8126C35.7087 34.8348 37.585 25.9492 35.3956 24.9581C33.2063 23.9669 27.7748 31.2549 23.2704 41.2302Z"
        fill="black"
      />
    </g>
    <path
      d="M77.6885 67.9902L74.252 66.9104L76.3795 62.8649L78.9557 64.4673L77.6885 67.9902Z"
      fill="#E8505B"
    />
    <g opacity="0.6">
      <path
        opacity="0.6"
        d="M76.3795 62.8649L74.252 66.9104L74.957 67.1323L76.6876 63.0572L76.3795 62.8649Z"
        fill="black"
      />
    </g>
    <path
      d="M74.007 63.7965C73.9577 63.9075 72.2419 63.2419 70.176 62.3174C68.1101 61.3929 66.4781 60.535 66.5249 60.4241C66.5717 60.3131 68.29 60.9812 70.3584 61.9155C72.4268 62.8499 74.0588 63.6856 74.007 63.7965Z"
      fill="#E8505B"
    />
    <path
      d="M75.0672 61.3878C75.0129 61.4962 73.4598 60.8429 71.5986 59.9259C69.7373 59.0088 68.2729 58.178 68.3271 58.0671C68.3814 57.9561 69.932 58.6119 71.7933 59.529C73.6546 60.446 75.1214 61.2768 75.0672 61.3878Z"
      fill="#E8505B"
    />
    <path
      d="M72.676 66.3237C72.6588 66.3829 72.2495 66.2892 71.5987 66.0772C71.2733 65.9761 70.8862 65.8479 70.4597 65.7024C70.0333 65.557 69.5969 65.3253 69.126 65.1108C67.245 64.2381 65.8078 63.3851 65.8546 63.2816C65.9015 63.178 67.4472 63.8461 69.306 64.7114C69.7744 64.9234 70.2083 65.1552 70.6175 65.3253C71.0268 65.4954 71.3941 65.6457 71.7022 65.7838C72.3186 66.0673 72.6933 66.2645 72.676 66.3237Z"
      fill="#E8505B"
    />
    <path
      d="M32.4545 39.0138C32.4545 39.0138 27.3115 35.8235 24.4984 42.7737C21.6853 49.7239 27.0946 50.8654 27.0946 50.8654C29.4305 47.187 31.2349 43.1971 32.4545 39.0138Z"
      fill="#E8505B"
    />
    <g opacity="0.5">
      <path
        opacity="0.5"
        d="M37.9248 30.7292C37.9568 30.7292 37.8829 31.2075 37.7251 32.0581C37.5673 32.9087 37.3306 34.139 37.0002 35.6528L36.2852 38.0862C36.1554 38.5218 36.0214 38.973 35.8834 39.4398L35.6738 40.1474C35.5974 40.3939 35.4963 40.6183 35.4075 40.8574L34.2463 43.8555C34.1452 44.1168 34.0417 44.3781 33.9406 44.642C33.8395 44.9058 33.694 45.1572 33.5781 45.4186L32.8138 46.9965L32.0471 48.5719C31.9164 48.8185 31.8005 49.0946 31.66 49.3362C31.5195 49.5778 31.3715 49.8293 31.231 50.0635L29.5915 52.8323C29.4583 53.0492 29.3449 53.2736 29.197 53.4807L28.7705 54.0848L27.9519 55.2386L26.4726 57.3022C25.4864 58.493 24.663 59.4324 24.0959 60.0857C23.8174 60.4395 23.5098 60.7694 23.1763 61.0719C23.4081 60.6871 23.672 60.3225 23.9652 59.9822C24.5126 59.2845 25.2843 58.3081 26.231 57.1074L27.6487 55.029L28.4425 53.8727C28.5806 53.6755 28.7187 53.4733 28.8592 53.2687C28.9997 53.064 29.1058 52.8397 29.2414 52.6203L30.8612 49.854L31.2828 49.1291C31.4282 48.8826 31.5293 48.636 31.6649 48.3698L32.4243 46.8042C32.6708 46.2741 32.9346 45.7539 33.1861 45.2386C33.3045 44.9921 33.4475 44.7307 33.5461 44.4694L33.8543 43.6903L35.0328 40.7317C35.124 40.4852 35.2275 40.2657 35.3064 40.029C35.3853 39.7923 35.4519 39.5606 35.5234 39.3288L35.9425 37.9901L36.6994 35.5862L37.555 32.0359C37.6408 31.5906 37.7645 31.1535 37.9248 30.7292Z"
        fill="black"
      />
    </g>
    <g opacity="0.4">
      <path
        opacity="0.4"
        d="M47.5508 78.9219C48.0216 79.7749 48.4999 80.6476 49.1927 81.3207C49.8854 81.9937 50.8321 82.4719 51.8182 82.3733C52.8043 82.2747 53.7041 81.471 53.714 80.4997C54.1774 80.8473 54.8899 80.66 55.2745 80.2236C55.6287 79.7574 55.8232 79.1894 55.8292 78.6039C56.4603 78.9762 57.3379 78.6828 57.7595 78.0838C57.953 77.7717 58.0755 77.4208 58.1181 77.0561C58.1607 76.6914 58.1224 76.3218 58.006 75.9735C57.7658 75.2803 57.4243 74.6265 56.9928 74.0333C57.4858 74.0728 57.9937 74.1073 58.4275 73.8879C58.8614 73.6685 59.1671 73.0916 58.9033 72.6774C58.7301 72.4462 58.4786 72.2858 58.1958 72.2263C57.434 71.9797 56.9015 71.7973 56.1077 71.8885C55.9253 71.8885 56.4257 73.9791 51.4533 76.8339C48.5024 78.5226 47.5508 78.9219 47.5508 78.9219Z"
        fill="black"
      />
    </g>
    <path
      d="M58.7486 81.9304C58.7486 81.9526 58.4158 81.8885 57.8783 81.9033C57.1799 81.92 56.493 82.0849 55.8632 82.3871C55.2333 82.6892 54.6749 83.1218 54.2248 83.6561C53.8772 84.0654 53.7318 84.3637 53.6997 84.3513C53.7202 84.2744 53.7526 84.2012 53.7959 84.1344C53.9014 83.9466 54.0209 83.7669 54.1533 83.597C54.5965 83.0345 55.1627 82.5812 55.8085 82.2718C56.4542 81.9623 57.1623 81.8051 57.8783 81.8121C58.0933 81.8135 58.3077 81.8332 58.5193 81.8713C58.5986 81.8773 58.6762 81.8973 58.7486 81.9304Z"
      fill="#EB996E"
    />
    <path
      d="M47.8735 77.5884C48.6747 78.3575 49.222 79.2081 50.0627 79.9821C50.4448 80.3347 51.0488 81.0003 51.5419 81.0891C52.0349 81.1778 52.38 81.1112 52.5822 80.633C52.7474 80.2459 52.4515 79.7159 52.2494 79.4003C51.7144 78.5597 51.2016 77.9039 50.8023 77.2506C50.6124 76.9449 50.8565 76.8808 50.9453 77.0238C51.3298 77.4232 51.9067 77.7634 52.2519 78.2047C52.7252 78.7988 52.809 79.5902 54.0466 79.3387C54.2121 79.3119 54.3691 79.2469 54.5051 79.1489C54.971 78.7914 54.9982 78.1628 54.796 77.6697C54.6214 77.2891 54.3886 76.9381 54.1057 76.6294C54.6333 77.2235 55.2077 77.862 56.0459 77.9163C56.2827 77.945 56.5225 77.8994 56.7323 77.7859C56.942 77.6724 57.1114 77.4966 57.2169 77.2827C57.4634 76.7206 57.1109 76.1758 56.7534 75.737C56.1207 74.9567 55.4167 74.237 54.6506 73.5872C54.3644 73.3469 54.0036 73.2135 53.6299 73.2101C53.1961 73.2101 52.6438 73.2889 52.3973 73.6637C52.2565 73.8444 52.1539 74.0519 52.0958 74.2736C52.0378 74.4953 52.0254 74.7264 52.0596 74.953C52.0596 74.953 50.9748 74.4032 50.1021 74.9777C49.5649 75.355 49.1789 75.9105 49.0125 76.5456L47.8735 77.5884Z"
      fill="#FFBE9D"
    />
    <path
      d="M53.6552 72.9732C53.4817 72.7717 53.3741 72.522 53.3467 72.2576C53.3194 71.9931 53.3737 71.7267 53.5023 71.494C53.6872 71.1316 53.919 70.7791 54.1556 70.7002C55.1886 70.3526 59.7049 71.1341 59.663 72.135C59.6211 73.1359 59.2908 73.6141 56.8428 73.2616C56.4113 73.2 55.7359 73.1162 55.7359 73.1162L55.1442 74.0036L53.6552 72.9732Z"
      fill="#FFBE9D"
    />
    <path
      d="M54.4635 77.1694C53.8708 76.1921 53.0066 75.4083 51.9761 74.9137C52.1442 74.9408 52.3061 74.9975 52.4543 75.0813C53.1964 75.4401 53.8195 76.005 54.2491 76.7084C54.3485 76.8474 54.4212 77.0038 54.4635 77.1694Z"
      fill="#EB996E"
    />
    <path
      d="M55.2234 74.0902C55.2012 74.1099 54.9029 73.8683 54.4962 73.6193C54.326 73.5115 54.1499 73.4136 53.9686 73.3259C53.8281 73.2618 53.7344 73.2446 53.7369 73.2248C53.7393 73.2051 53.8429 73.1953 53.9982 73.2421C54.1982 73.3064 54.3888 73.3967 54.5652 73.5108C54.9818 73.7647 55.2555 74.063 55.2234 74.0902Z"
      fill="#EB996E"
    />
    <path
      d="M55.9825 73.1582C55.6887 73.1925 55.3909 73.1587 55.1123 73.0596C54.9084 72.9973 54.719 72.895 54.5551 72.7588C54.4318 72.6528 54.3801 72.5666 54.3924 72.5542C54.6295 72.7076 54.8835 72.8334 55.1492 72.9289C55.4318 72.9868 55.7101 73.0634 55.9825 73.1582Z"
      fill="#EB996E"
    />
    <path
      d="M51.5938 78.4096C51.4381 78.2462 51.3001 78.0669 51.1821 77.8746C50.9006 77.4192 50.5448 77.0142 50.1294 76.6765C49.6989 76.3615 49.1654 76.2207 48.6355 76.282C48.4181 76.3209 48.2068 76.3881 48.0068 76.4817C48.0497 76.4372 48.0987 76.399 48.1523 76.3683C48.2962 76.281 48.455 76.2208 48.6207 76.1908C48.8967 76.1462 49.1787 76.1571 49.4505 76.2227C49.7222 76.2883 49.9782 76.4074 50.2034 76.5729C50.6324 76.9177 50.9906 77.3421 51.2585 77.8228C51.3866 78.0086 51.4987 78.2049 51.5938 78.4096Z"
      fill="#EB996E"
    />
    <path
      d="M55.0481 88.395C54.44 88.5243 53.824 88.6124 53.204 88.6587C52.5876 88.7481 51.9657 88.7942 51.3428 88.7968C51.9517 88.6676 52.5685 88.5795 53.1893 88.533C53.805 88.4452 54.4261 88.3991 55.0481 88.395Z"
      fill="#EB996E"
    />
    <path
      d="M93.8865 6.40039L94.1651 6.90824L94.6729 7.18681L94.1651 7.46539L93.8865 7.97323L93.6079 7.46539L93.1001 7.18681L93.6079 6.90824L93.8865 6.40039Z"
      fill="#E8505B"
    />
    <path
      d="M99.7054 19.0163L99.9839 19.5241L100.494 19.8027L99.9839 20.0812L99.7054 20.5891L99.4268 20.0812L98.9189 19.8027L99.4268 19.5241L99.7054 19.0163Z"
      fill="#E8505B"
    />
    <path
      d="M6.42851 52.675L6.70709 53.1829L7.21493 53.4615L6.70709 53.74L6.42851 54.2479L6.14994 53.74L5.64209 53.4615L6.14994 53.1829L6.42851 52.675Z"
      fill="#E8505B"
    />
    <path
      d="M86.251 9.53648L86.892 10.71L88.0679 11.3534L86.892 11.9968L86.251 13.1703L85.6075 11.9968L84.4341 11.3534L85.6075 10.71L86.251 9.53648Z"
      fill="#E8505B"
    />
    <path
      d="M11.6455 44.677L12.2865 45.8505L13.4575 46.4914L12.2865 47.1324L11.6455 48.3059L11.0045 47.1324L9.83105 46.4914L11.0045 45.8505L11.6455 44.677Z"
      fill="#E8505B"
    />
    <path
      d="M101.288 72.6528L101.931 73.8263L103.102 74.4673L101.931 75.1083L101.288 76.2793L100.647 75.1083L99.4761 74.4673L100.647 73.8263L101.288 72.6528Z"
      fill="#E8505B"
    />
  </svg>
