<svg width="86" height="72" viewBox="0 0 86 72" fill="none" xmlns="http://www.w3.org/2000/svg">
<path d="M85.1133 51.6226C84.9435 46.6981 84.7737 41.6038 84.6038 36.6792V34.8113C84.6038 34.1321 84.434 33.283 84.0944 32.7736C83.4152 31.4151 82.0567 30.566 80.6982 30.566C78.151 30.566 75.7737 30.7359 73.2265 30.9057L80.6982 31.4151C81.717 31.5849 82.7359 32.434 83.0755 33.283C83.2453 33.7925 83.4152 34.3019 83.2454 34.8113L82.9057 36.6792C82.7359 41.6038 82.5661 46.6981 82.3963 51.6226L82.2265 59.0943V60.4528C80.6982 60.1132 79.3397 59.7736 77.8114 59.6038C75.7737 59.434 73.9057 59.2642 71.868 59.2642C69.8303 59.2642 67.9623 59.434 65.9246 59.6038C64.3963 59.7736 63.0378 60.1132 61.5095 60.4528C61.5095 56.717 61.3397 53.151 61.3397 49.4151C61.1699 44.4906 61.0001 39.3962 60.8303 34.4717C60.8303 33.4528 61.3397 32.434 62.1887 31.9245C62.6982 31.5849 63.2076 31.4151 63.717 31.4151L65.585 31.2453C68.1321 31.0755 70.5095 30.9057 73.0567 30.7358C72.8869 30.7358 72.717 30.7358 72.5472 30.7358C72.717 26.4906 72.8869 22.2453 73.0567 18L73.2265 11.5472L73.3963 8.32076C73.3963 7.81132 73.3963 7.30189 73.3963 6.62264C73.3963 5.9434 73.2265 5.43396 73.0567 4.75472C72.2076 2.37736 69.8303 0.679245 67.2831 0.679245L60.8303 0.509434L47.9246 0.339622C39.434 0.169811 30.7736 0.169811 22.2831 0H9.37742H7.67931C7.00006 0 6.32082 0.169811 5.64157 0.339622C4.28308 1.01887 3.0944 1.86792 2.24534 2.88679C1.22647 4.07547 0.717041 5.43396 0.717041 6.79245V8.49057V10.0189L0.886852 35.6604L1.05666 45C0.886852 45.1698 0.886852 45.5094 0.886852 45.6793V49.9245V52.1321C0.886852 52.9811 1.05666 54 1.5661 54.8491C2.24534 56.5472 3.60383 57.9057 5.30195 58.5849C6.151 58.9245 7.00006 59.0943 8.01893 59.0943H10.0567L26.868 58.7547C27.8869 58.7547 28.7359 58.7547 29.7548 58.5849C29.585 60.4528 29.2453 62.1509 28.5661 63.6792C27.717 65.5472 26.3586 67.2453 24.8302 68.6038C22.4529 68.7736 20.0755 69.1132 17.868 69.6226C20.2453 70.1321 22.6227 70.4717 24.8302 70.6415C25.1699 70.9811 25.5095 71.1509 25.8491 71.1509H26.0189C29.7548 71.3208 33.4906 71.3208 37.2265 71.3208H37.7359H38.2453C41.9812 71.3208 45.5472 71.3208 49.2831 71.1509H49.4529C49.7925 71.1509 50.1321 70.9811 50.3019 70.8113C52.6793 70.6415 55.0567 70.3019 57.434 69.7925C55.0567 69.283 52.6793 68.9434 50.3019 68.7736C48.7736 67.4151 47.2453 65.717 46.3963 63.8491C45.5472 62.151 45.2076 60.283 45.2076 58.2453C49.9623 58.0755 54.5472 57.9057 59.302 57.566C59.302 59.7736 59.302 61.9811 59.1321 64.1887V66.0566C59.1321 66.7359 59.302 67.7547 59.6416 68.6038C60.3208 70.3019 62.0189 71.4906 63.717 71.6604H64.3963H64.9057H65.7548H67.6227H71.3586H78.8303H80.6982C81.5472 71.6604 82.3963 71.3208 83.2454 70.9811C84.7737 70.1321 85.7925 68.434 85.9623 66.566L85.7925 58.9245L85.1133 51.6226ZM45.3774 68.434C42.8302 68.434 40.1133 68.2642 37.5661 68.2642C37.3963 68.2642 37.2265 68.2642 37.0567 68.2642C36.8869 68.2642 36.717 68.2642 36.5472 68.2642C34.0001 68.2642 31.2831 68.2642 28.7359 68.434C29.4152 67.2453 30.0944 66.0566 30.6038 64.6981C31.2831 62.6604 31.4529 60.6226 31.2831 58.5849C35.1887 58.4151 39.2642 58.4151 43.1699 58.2453C42.8302 60.283 43.0001 62.4906 43.6793 64.6981C44.0189 66.0566 44.5284 67.4151 45.3774 68.434ZM58.7925 49.4151C58.6227 52.1321 58.6227 54.8491 58.6227 57.566C53.5284 57.2264 48.434 57.0566 43.3397 56.717C37.7359 56.5472 32.1321 56.3774 26.5284 56.2076L9.88685 55.8679H7.84912C7.33968 55.8679 6.83025 55.6981 6.49063 55.5283C5.64157 55.1887 4.79251 54.3396 4.45289 53.4906C4.28308 52.9811 4.11327 52.6415 4.11327 52.1321V50.0943V47.5472C13.1133 47.5472 22.2831 47.3774 31.2831 47.2076C36.0378 47.0377 40.9623 46.8679 45.717 46.6981C50.1321 46.5283 54.5472 46.3585 58.9623 46.0189C58.7925 47.0377 58.7925 48.2264 58.7925 49.4151ZM59.302 34.3019C59.1321 38.2076 58.9623 41.9434 58.9623 45.8491C54.5472 45.5094 50.1321 45.3396 45.717 45.1698C40.9623 45 36.0378 44.8302 31.2831 44.6604C22.1133 44.3208 13.1133 44.3208 3.94346 44.3208V35.8302L4.11327 10.1887V8.66038C4.11327 8.15094 4.11327 7.4717 4.11327 7.13208C4.11327 6.28302 4.28308 5.60377 4.79251 5.09434C5.30195 4.58491 5.81138 4.07547 6.66044 3.90566C7.00006 3.73585 7.33968 3.73585 7.67931 3.73585H9.20761H22.1133C30.6038 3.56604 39.2642 3.56604 47.7548 3.39623L60.6604 3.22641L67.1133 2.88679C68.8114 2.88679 70.6793 3.90566 71.3586 5.60377C71.6982 6.45283 71.868 7.30189 71.868 8.49057L72.0378 11.717L72.2076 18.1698C72.3774 22.4151 72.5472 26.6604 72.717 30.9057C70.3397 30.7359 68.1321 30.566 65.7548 30.566L63.8869 30.3962C63.2076 30.3962 62.5284 30.566 61.8491 30.9057C60.3208 31.4151 59.302 32.7736 59.302 34.3019ZM82.2265 66.3962C82.2265 67.0755 81.717 67.7547 81.0378 68.0943C80.6982 68.2642 80.3586 68.434 80.0189 68.434H78.151H70.6793H66.9435H65.0755H64.2265H63.717C63.5472 68.434 63.5472 68.434 63.3774 68.434C62.6982 68.434 62.0189 67.9245 61.6793 67.2453C61.5095 66.9057 61.5095 66.7359 61.5095 66.2264V64.3585C61.5095 63.3396 61.5095 62.4906 61.5095 61.4717C63.0378 61.8113 64.3963 62.1509 65.9246 62.3208C67.9623 62.4906 69.8303 62.6604 71.868 62.6604C73.9057 62.6604 75.7737 62.4906 77.8114 62.3208C79.3397 62.1509 80.6982 61.8113 82.2265 61.4717V66.3962Z" fill="#57D4F6"/>
<path d="M69.6604 46.3586C69.151 47.2076 68.4717 48.0567 68.1321 49.2454C69.1509 48.9057 70.1698 48.3963 71.0189 47.7171C71.8679 47.2076 72.717 46.5284 73.3962 45.8491C74.0755 45.1699 74.7547 44.3208 75.2642 43.4718C75.7736 42.6227 76.4528 41.7736 76.7925 40.585C75.7736 40.9246 74.7547 41.434 73.9057 42.1133C73.0566 42.6227 72.2076 43.3019 71.5283 43.9812C70.8491 44.8303 70.1698 45.5095 69.6604 46.3586Z" fill="#57D4F6"/>
<path d="M70.1698 42.1131C70.5094 41.7735 71.0188 41.2641 71.1887 40.7546C71.5283 40.2452 71.6981 39.566 71.6981 38.8867C70.849 38.8867 70.3396 39.2263 69.8302 39.3962C69.3207 39.7358 68.8113 40.0754 68.4717 40.415C68.132 40.7546 67.6226 41.2641 67.4528 41.7735C67.1132 42.2829 66.9434 42.9622 66.9434 43.6414C67.7924 43.6414 68.3019 43.4716 68.8113 43.132C69.3207 42.9622 69.6604 42.6226 70.1698 42.1131Z" fill="#57D4F6"/>
<path d="M37.566 25.6415C36.2076 27 34.8491 28.5283 33.6604 30.0566C32.4717 31.5849 31.283 33.1132 30.2642 34.9811C31.9623 33.9622 33.6604 32.7736 35.1887 31.5849C36.717 30.3962 38.0755 29.0377 39.6038 27.6792C40.9623 26.3207 42.3208 24.7924 43.5094 23.2641C44.6981 21.7358 45.8868 20.2075 46.9057 18.3396C45.2076 19.3585 43.5094 20.5471 41.9811 21.7358C40.4528 22.9245 38.9245 24.283 37.566 25.6415Z" fill="#57D4F6"/>
<path d="M33.8303 20.8867C34.6794 20.0377 35.3586 19.1886 36.0379 18.3396C36.7171 17.4905 37.2266 16.4716 37.736 15.283C36.5473 15.6226 35.5285 16.3018 34.6794 16.9811C33.6605 17.6603 32.8115 18.3396 32.1322 19.1886C31.2832 20.0377 30.6039 20.8867 29.9247 21.7358C29.2454 22.5848 28.736 23.6037 28.2266 24.7924C29.4152 24.4528 30.4341 23.7735 31.2832 23.0943C32.1322 22.415 32.9813 21.7358 33.8303 20.8867Z" fill="#57D4F6"/>
</svg>
