<svg xmlns="http://www.w3.org/2000/svg" width="96" height="96" viewBox="0 0 96 96" fill="none">
    <g clip-path="url(#default_modal_icon)">
        <path d="M8.10725 30.5569H9.47525V79.8673H8.10725C6.86604 79.8673 5.67566 79.3742 4.79799 78.4965C3.92032 77.6189 3.42725 76.4285 3.42725 75.1873V35.2417C3.42662 34.6267 3.5472 34.0176 3.78211 33.4492C4.01702 32.8809 4.36165 32.3644 4.79629 31.9293C5.23093 31.4942 5.74706 31.1491 6.31518 30.9136C6.8833 30.6781 7.49226 30.5569 8.10725 30.5569V30.5569Z" fill="#7BCB27" fill-opacity="0.32"/>
        <path d="M3.4224 34.8865H0V75.5377H3.4224V34.8865Z" fill="#0AC36A"/>
        <path d="M35.3281 30.3503H30.7873V79.8671H35.3281V30.3503Z" fill="#0AC36A"/>
        <path d="M87.8785 31.7568H83.1169V44.5392H87.8785V31.7568Z" fill="#7BCB27" fill-opacity="0.32"/>
        <path d="M83.112 44.6304H78.3504V57.3215H83.112V44.6304Z" fill="#7BCB27" fill-opacity="0.32"/>
        <path d="M87.8785 57.3215H83.1169V70.1951H87.8785V57.3215Z" fill="#7BCB27" fill-opacity="0.32"/>
        <path d="M91.6896 70.1953H86.928V82.9729H91.6896V70.1953Z" fill="#7BCB27" fill-opacity="0.32"/>
        <path d="M83.112 27.432H78.3504V31.7568H83.112V27.432Z" fill="#7BCB27" fill-opacity="0.32"/>
        <path d="M55.8577 16.6368L68.3809 26.856L71.7649 23.088L61.7569 17.8176L56.9329 15.4512L55.8577 16.6368Z" fill="#7BCB27" fill-opacity="0.32"/>
        <path d="M68.4191 27.432L61.7663 35.7696C58.6369 39.6958 56.9327 44.568 56.9327 49.5888V51.9888C56.9333 54.9727 56.1225 57.9006 54.5871 60.4591C53.0516 63.0176 50.8493 65.1104 48.2159 66.5136L43.6031 68.976L44.0831 70.6992C44.4804 72.1012 45.3245 73.3353 46.4872 74.2138C47.6498 75.0923 49.0675 75.5672 50.5248 75.5664H62.9327C66.4473 75.5654 69.8296 76.9063 72.3887 79.3152L76.1951 82.9056C76.1951 82.9056 72.6191 79.9296 72.6191 76.512C72.6191 73.0944 75.2159 70.08 75.2159 70.08C75.2159 70.08 68.8223 69.9168 68.8223 63.6912C68.8223 57.4656 73.6943 57.48 73.6943 57.48L70.4495 57.2976C70.4495 57.2976 64.0608 57.5616 64.0608 50.9088C64.0608 44.256 70.4495 44.52 70.4495 44.52L72.6335 43.9728C72.6335 43.9728 68.8223 41.7216 68.8223 38.1264C68.8223 34.5312 75.2159 31.7568 75.2159 31.7568H78.3503V27.4368L68.4191 27.432Z" fill="#0AC36A"/>
        <path d="M40.7569 5.63998V4.19998C41.4885 4.19872 42.1898 3.90752 42.7071 3.3902C43.2244 2.87287 43.5156 2.17159 43.5169 1.43998V-1.52588e-05H44.9569V1.43998C44.9569 2.55389 44.5144 3.62218 43.7267 4.40983C42.9391 5.19749 41.8708 5.63998 40.7569 5.63998V5.63998Z" fill="#0AC36A"/>
        <path d="M50.1457 5.63998C49.0318 5.63998 47.9635 5.19749 47.1758 4.40983C46.3882 3.62218 45.9457 2.55389 45.9457 1.43998V-1.52588e-05H47.3857V1.43998C47.3869 2.17159 47.6781 2.87287 48.1955 3.3902C48.7128 3.90752 49.4141 4.19872 50.1457 4.19998V5.63998Z" fill="#0AC36A"/>
        <path d="M44.9569 12.2688H43.5169V10.8288C43.5156 10.0972 43.2244 9.39588 42.7071 8.87856C42.1898 8.36123 41.4885 8.07004 40.7569 8.06877V6.62877C41.8704 6.63004 42.938 7.07295 43.7253 7.86032C44.5127 8.6477 44.9556 9.71525 44.9569 10.8288V12.2688Z" fill="#0AC36A"/>
        <path d="M47.3857 12.2688H45.9457V10.8288C45.9469 9.71525 46.3899 8.6477 47.1772 7.86032C47.9646 7.07295 49.0322 6.63004 50.1457 6.62877V8.06877C49.4141 8.07004 48.7128 8.36123 48.1955 8.87856C47.6781 9.39588 47.3869 10.0972 47.3857 10.8288V12.2688Z" fill="#0AC36A"/>
        <path d="M85.3969 23.3472C84.479 23.3472 83.5988 22.9826 82.9497 22.3336C82.3007 21.6846 81.9361 20.8043 81.9361 19.8864C81.9361 18.9686 82.3007 18.0883 82.9497 17.4393C83.5988 16.7903 84.479 16.4256 85.3969 16.4256V17.8656C84.9972 17.8656 84.6065 17.9842 84.2742 18.2062C83.9419 18.4283 83.6829 18.7439 83.5299 19.1131C83.377 19.4824 83.337 19.8887 83.4149 20.2807C83.4929 20.6727 83.6854 21.0328 83.968 21.3154C84.2506 21.598 84.6107 21.7904 85.0027 21.8684C85.3947 21.9464 85.801 21.9064 86.1702 21.7534C86.5395 21.6005 86.8551 21.3415 87.0771 21.0091C87.2992 20.6768 87.4177 20.2861 87.4177 19.8864H88.8577C88.8564 20.8039 88.4914 21.6834 87.8427 22.3322C87.1939 22.9809 86.3144 23.346 85.3969 23.3472V23.3472Z" fill="#0AC36A"/>
        <path d="M36.9121 95.8464C36.1222 95.8464 35.3501 95.6122 34.6933 95.1734C34.0366 94.7346 33.5247 94.1109 33.2225 93.3811C32.9202 92.6514 32.8411 91.8484 32.9952 91.0737C33.1493 90.299 33.5296 89.5875 34.0882 89.0289C34.6467 88.4704 35.3583 88.0901 36.1329 87.936C36.9076 87.7819 37.7106 87.861 38.4403 88.1632C39.1701 88.4655 39.7938 88.9774 40.2326 89.6341C40.6714 90.2909 40.9057 91.063 40.9057 91.8528H39.4657C39.4657 91.3478 39.3159 90.8541 39.0353 90.4341C38.7547 90.0142 38.3559 89.6869 37.8893 89.4936C37.4227 89.3003 36.9092 89.2498 36.4139 89.3483C35.9185 89.4468 35.4635 89.69 35.1064 90.0472C34.7493 90.4043 34.5061 90.8593 34.4075 91.3547C34.309 91.85 34.3596 92.3635 34.5528 92.8301C34.7461 93.2967 35.0734 93.6955 35.4934 93.9761C35.9133 94.2567 36.407 94.4064 36.9121 94.4064V95.8464Z" fill="#0AC36A"/>
        <path d="M25.0848 12.1584C24.2238 12.1571 23.3985 11.8142 22.7901 11.2049C22.1817 10.5956 21.84 9.76981 21.84 8.9088H23.28C23.2813 9.38752 23.4717 9.84634 23.8097 10.1853C24.1478 10.5242 24.6061 10.7159 25.0848 10.7184V12.1584Z" fill="#0AC36A"/>
        <path d="M17.6113 12.1584H16.0561V10.7184H17.6113C18.0908 10.7171 18.5504 10.5261 18.8895 10.187C19.2286 9.84789 19.4196 9.38834 19.4209 8.9088H20.8609C20.8596 9.77026 20.5168 10.5961 19.9077 11.2052C19.2986 11.8144 18.4727 12.1571 17.6113 12.1584Z" fill="#0AC36A"/>
        <path d="M23.28 16.3823H21.84C21.84 15.5213 22.1817 14.6954 22.7901 14.0862C23.3985 13.4769 24.2238 13.1339 25.0848 13.1327V14.5727C24.6057 14.5739 24.1467 14.7652 23.8083 15.1044C23.47 15.4436 23.28 15.9032 23.28 16.3823V16.3823Z" fill="#0AC36A"/>
        <path d="M20.8607 16.3823H19.4207C19.4207 15.9023 19.2301 15.4421 18.8907 15.1027C18.5514 14.7633 18.0911 14.5727 17.6111 14.5727V13.1327C18.4726 13.1339 19.2984 13.4767 19.9076 14.0859C20.5167 14.695 20.8595 15.5208 20.8607 16.3823V16.3823Z" fill="#0AC36A"/>
        <path d="M17.6113 13.1327H16.0561V14.5727H17.6113V13.1327Z" fill="#0AC36A"/>
        <path d="M26.4767 13.1327H25.0847V14.5727H26.4767V13.1327Z" fill="#0AC36A"/>
        <path d="M26.4767 10.7184H25.0847V12.1584H26.4767V10.7184Z" fill="#0AC36A"/>
        <path d="M59.7369 85.5917L58.7187 86.61L62.252 90.1432L63.2702 89.125L59.7369 85.5917Z" fill="#0AC36A"/>
        <path d="M62.2552 85.5918L58.7219 89.1251L59.7402 90.1433L63.2734 86.6101L62.2552 85.5918Z" fill="#0AC36A"/>
        <path d="M31.3823 18.6H29.9423V24.6672H31.3823V18.6Z" fill="#0AC36A"/>
        <path d="M33.696 20.9136H27.6288V22.3536H33.696V20.9136Z" fill="#0AC36A"/>
        <path d="M22.7568 79.872C25.148 79.872 27.0864 77.9335 27.0864 75.5424C27.0864 73.1512 25.148 71.2128 22.7568 71.2128C20.3657 71.2128 18.4272 73.1512 18.4272 75.5424C18.4272 77.9335 20.3657 79.872 22.7568 79.872Z" fill="#0AC36A"/>
        <path d="M12.3935 27.432V65.0832C12.3935 65.8075 12.6812 66.5022 13.1934 67.0144C13.7056 67.5266 14.4003 67.8144 15.1247 67.8144H20.0207C20.7455 67.8144 21.4407 67.5268 21.9536 67.0147C22.4666 66.5027 22.7554 65.808 22.7567 65.0832V27.432H12.3935ZM17.5727 63.7584C17.193 63.7584 16.8217 63.6458 16.506 63.4348C16.1903 63.2238 15.9442 62.924 15.7988 62.5731C15.6535 62.2223 15.6155 61.8363 15.6896 61.4638C15.7637 61.0914 15.9465 60.7493 16.215 60.4807C16.4836 60.2122 16.8257 60.0294 17.1981 59.9553C17.5706 59.8812 17.9566 59.9192 18.3074 60.0645C18.6583 60.2099 18.9581 60.456 19.1691 60.7717C19.3801 61.0874 19.4927 61.4587 19.4927 61.8384C19.4927 62.3476 19.2904 62.836 18.9303 63.196C18.5703 63.5561 18.0819 63.7584 17.5727 63.7584ZM17.5727 53.7552C17.193 53.7552 16.8217 53.6426 16.506 53.4316C16.1903 53.2206 15.9442 52.9208 15.7988 52.5699C15.6535 52.2191 15.6155 51.8331 15.6896 51.4606C15.7637 51.0882 15.9465 50.7461 16.215 50.4775C16.4836 50.209 16.8257 50.0262 17.1981 49.9521C17.5706 49.878 17.9566 49.916 18.3074 50.0613C18.6583 50.2067 18.9581 50.4528 19.1691 50.7685C19.3801 51.0842 19.4927 51.4555 19.4927 51.8352C19.4933 52.0877 19.4441 52.3379 19.3479 52.5714C19.2517 52.8049 19.1104 53.0171 18.932 53.1959C18.7537 53.3747 18.5418 53.5166 18.3086 53.6134C18.0753 53.7102 17.8252 53.76 17.5727 53.76V53.7552ZM17.5727 43.7472C17.193 43.7472 16.8217 43.6346 16.506 43.4236C16.1903 43.2126 15.9442 42.9128 15.7988 42.5619C15.6535 42.2111 15.6155 41.8251 15.6896 41.4526C15.7637 41.0802 15.9465 40.7381 16.215 40.4695C16.4836 40.201 16.8257 40.0182 17.1981 39.9441C17.5706 39.87 17.9566 39.908 18.3074 40.0533C18.6583 40.1987 18.9581 40.4448 19.1691 40.7605C19.3801 41.0762 19.4927 41.4475 19.4927 41.8272C19.4927 42.3364 19.2904 42.8248 18.9303 43.1848C18.5703 43.5449 18.0819 43.7472 17.5727 43.7472Z" fill="#7BCB27" fill-opacity="0.32"/>
        <path d="M27.8401 26.7119H12.4129C11.5351 26.7131 10.6871 27.0298 10.0235 27.6044C9.36 28.1789 8.92518 28.973 8.79848 29.8415H8.10728C6.67511 29.8415 5.3016 30.4104 4.2889 31.4231C3.2762 32.4358 2.70728 33.8093 2.70728 35.2415V75.1871C2.70728 76.6193 3.2762 77.9928 4.2889 79.0055C5.3016 80.0182 6.67511 80.5871 8.10728 80.5871H8.79848C8.92612 81.4552 9.36121 82.2487 10.0246 82.823C10.6879 83.3974 11.5354 83.7145 12.4129 83.7167H27.8401C28.811 83.7154 29.7418 83.3292 30.4284 82.6426C31.1149 81.956 31.5012 81.0252 31.5025 80.0543V30.3743C31.5012 29.4034 31.1149 28.4726 30.4284 27.786C29.7418 27.0994 28.811 26.7132 27.8401 26.7119V26.7119ZM8.75528 79.1471H8.10728C7.05696 79.1458 6.04997 78.7284 5.30683 77.9861C4.5637 77.2439 4.14501 76.2374 4.14248 75.1871V35.2415C4.14501 34.1907 4.56354 33.1838 5.30654 32.4408C6.04953 31.6978 7.05652 31.2792 8.10728 31.2767H8.75528V79.1471ZM30.0673 80.0543C30.066 80.6442 29.8308 81.2094 29.4132 81.6261C28.9957 82.0427 28.4299 82.2767 27.8401 82.2767H12.4129C11.8243 82.2754 11.2602 82.0407 10.8445 81.6241C10.4288 81.2074 10.1953 80.6429 10.1953 80.0543V30.3743C10.1946 30.0827 10.2515 29.7938 10.3627 29.5242C10.4739 29.2546 10.6371 29.0095 10.8431 28.8031C11.0491 28.5967 11.2938 28.4329 11.5631 28.3212C11.8325 28.2094 12.1213 28.1519 12.4129 28.1519H27.8401C28.4295 28.1519 28.9948 28.386 29.4115 28.8028C29.8283 29.2196 30.0625 29.7849 30.0625 30.3743L30.0673 80.0543Z" fill="#002D6E"/>
        <path d="M74.8031 80.4576C73.0207 78.6658 70.9007 77.2452 68.5658 76.2779C66.2309 75.3107 63.7273 74.816 61.1999 74.8224H50.1935C48.7072 74.82 47.2769 74.2548 46.1904 73.2405C45.1039 72.2261 44.4419 70.838 44.3376 69.3552L48 67.2C51.0068 65.4256 53.5004 62.8995 55.2357 59.8699C56.971 56.8403 57.8883 53.4114 57.8976 49.92C57.9073 44.8637 59.624 39.9588 62.7696 36L72.8495 23.3376L76.7999 16.2912C77.4023 15.2039 77.7786 14.006 77.9064 12.7696C78.0342 11.5331 77.9108 10.2836 77.5437 9.096C77.1765 7.90842 76.5731 6.8073 75.7698 5.85873C74.9664 4.91017 73.9797 4.13373 72.8687 3.57604C70.7898 2.54567 68.3998 2.33299 66.1715 2.98005C63.9432 3.62711 62.0389 5.0868 60.8351 7.07044L56.3855 14.4768L44.04 26.712H37.5648C37.1758 26.712 36.7907 26.7886 36.4314 26.9375C36.0721 27.0863 35.7456 27.3045 35.4706 27.5795C35.1956 27.8545 34.9774 28.181 34.8286 28.5403C34.6798 28.8996 34.6031 29.2847 34.6031 29.6736V80.64C34.6044 81.4251 34.9169 82.1777 35.472 82.7328C36.0271 83.2879 36.7797 83.6004 37.5648 83.6016H77.9471L74.8031 80.4576ZM62.0447 7.81444C63.0587 6.13925 64.665 4.90609 66.5453 4.35934C68.4255 3.81259 70.4426 3.99215 72.1967 4.86244C73.1347 5.33223 73.9681 5.98684 74.6466 6.78692C75.3251 7.58701 75.8348 8.51604 76.1451 9.51817C76.4554 10.5203 76.5598 11.5748 76.4521 12.6183C76.3444 13.6619 76.0268 14.6728 75.5183 15.5904L71.9999 21.8976L57.9263 14.6256L62.0447 7.81444ZM57.0671 15.8064L71.2031 23.0928L68.4575 26.5344L56.2799 16.584L57.0671 15.8064ZM37.5648 82.1616C37.1616 82.1604 36.7753 81.9997 36.4902 81.7146C36.2051 81.4295 36.0444 81.0432 36.0431 80.64V29.6736C36.0444 29.2705 36.2051 28.8842 36.4902 28.5991C36.7753 28.314 37.1616 28.1533 37.5648 28.152H44.64L55.2623 17.592L67.5696 27.672L61.6655 35.0784C58.3122 39.2995 56.4822 44.5291 56.472 49.92C56.4649 53.1621 55.6147 56.3466 54.0048 59.1608C52.3949 61.9749 50.0807 64.3219 47.2895 65.9712L42.8831 68.5536V68.9664C42.8844 70.9049 43.655 72.7636 45.0257 74.1343C46.3964 75.505 48.2551 76.2756 50.1935 76.2768H61.1999C63.5383 76.2697 65.8549 76.7267 68.0153 77.6216C70.1757 78.5164 72.1371 79.8312 73.7855 81.4896L74.4719 82.176L37.5648 82.1616Z" fill="#002D6E"/>
        <path d="M90.0528 26.7119H77.6304V31.0319H75.2304C73.7384 31.0282 72.2831 31.4947 71.0712 32.3651C69.8594 33.2356 68.9526 34.4657 68.4797 35.8808C68.0067 37.2959 67.9917 38.8241 68.4366 40.2482C68.8816 41.6724 69.764 42.9201 70.9584 43.8143H70.4784C68.5931 43.8143 66.7849 44.5633 65.4517 45.8964C64.1186 47.2296 63.3696 49.0377 63.3696 50.9231C63.3696 52.8085 64.1186 54.6166 65.4517 55.9498C66.7849 57.2829 68.5931 58.0319 70.4784 58.0319H70.9584C69.7954 58.9039 68.9283 60.112 68.4745 61.4929C68.0206 62.8738 68.0019 64.3608 68.4208 65.7527C68.8397 67.1446 69.6761 68.3743 70.8168 69.2753C71.9574 70.1762 73.3473 70.7051 74.7984 70.7903C73.5989 71.6815 72.711 72.9282 72.261 74.3531C71.8109 75.778 71.8216 77.3086 72.2916 78.727C72.7616 80.1455 73.6669 81.3797 74.8788 82.2539C76.0906 83.1282 77.5473 83.5981 79.0416 83.5967H90.0816C91.6523 83.5866 93.1554 82.9565 94.2639 81.8436C95.3723 80.7307 95.9963 79.225 96 77.6543V32.6399C95.9924 31.0667 95.3628 29.5604 94.2486 28.4498C93.1344 27.3392 91.626 26.7144 90.0528 26.7119V26.7119ZM79.0704 28.1519H82.3968V31.0319H79.0704V28.1519ZM84.9024 43.8191H83.8368V32.4767H87.1584V43.8191H84.9024ZM83.8368 69.3791V58.0367H87.1584V69.3791H83.8368ZM79.0704 56.5967V45.2591H82.3968V56.5967H79.0704ZM69.5424 38.1455C69.545 36.642 70.1437 35.2009 71.2073 34.1382C72.2709 33.0755 73.7125 32.478 75.216 32.4767H82.416V43.8191H75.216C73.7117 43.8178 72.2693 43.2197 71.2056 42.1559C70.1419 41.0922 69.5437 39.6498 69.5424 38.1455ZM70.4496 56.5967C68.9462 56.5967 67.5043 55.9994 66.4412 54.9363C65.3781 53.8732 64.7808 52.4314 64.7808 50.9279C64.7808 49.4244 65.3781 47.9826 66.4412 46.9194C67.5043 45.8563 68.9462 45.2591 70.4496 45.2591H77.6496V56.5967H70.4496ZM75.216 69.3791C74.4574 69.4012 73.702 69.2708 72.9947 68.9957C72.2873 68.7207 71.6424 68.3065 71.0979 67.7777C70.5535 67.2489 70.1208 66.6162 69.8252 65.9171C69.5297 65.2181 69.3774 64.4669 69.3774 63.7079C69.3774 62.9489 69.5297 62.1977 69.8252 61.4986C70.1208 60.7996 70.5535 60.1669 71.0979 59.6381C71.6424 59.1093 72.2873 58.6951 72.9947 58.4201C73.702 58.145 74.4574 58.0146 75.216 58.0367H82.416V69.3791H75.216ZM73.3536 76.4879C73.3562 74.9844 73.9549 73.5433 75.0185 72.4806C76.0821 71.4179 77.5237 70.8204 79.0272 70.8191H86.2272V82.1615H79.0272C77.5229 82.1602 76.0805 81.5621 75.0168 80.4983C73.9531 79.4346 73.3549 77.9922 73.3536 76.4879V76.4879ZM87.648 82.1615V70.8191H90.048C90.3551 70.8156 90.6615 70.7899 90.9648 70.7423V82.0799C90.6634 82.1439 90.3562 82.1761 90.048 82.1759L87.648 82.1615ZM94.56 77.6543C94.5602 78.4249 94.3625 79.1826 93.986 79.8549C93.6095 80.5273 93.0667 81.0917 92.4096 81.4943V70.3295C93.2371 69.9688 93.9722 69.4257 94.56 68.7407V77.6543ZM94.56 64.8719C94.5588 66.0669 94.0835 67.2126 93.2385 68.0576C92.3935 68.9025 91.2478 69.3778 90.0528 69.3791H88.6128V58.0367H90.0528C90.9097 58.0369 91.7565 57.8512 92.5346 57.4924C93.3128 57.1335 94.0038 56.6101 94.56 55.9583V64.8719ZM94.56 52.0895C94.5588 53.2845 94.0835 54.4302 93.2385 55.2752C92.3935 56.1201 91.2478 56.5954 90.0528 56.5967H83.8128V45.2591H90.5328V45.2303C92.09 45.1095 93.5369 44.38 94.56 43.1999V52.0895ZM90.0528 43.8191H88.6128V32.4767H90.576V31.0367H83.856V28.1567H90.096C91.2794 28.1693 92.4104 28.6462 93.2454 29.4848C94.0804 30.3234 94.5526 31.4565 94.56 32.6399V39.3119C94.5588 40.5069 94.0835 41.6526 93.2385 42.4976C92.3935 43.3426 91.2478 43.8178 90.0528 43.8191V43.8191Z" fill="#002D6E"/>
        <path d="M43.8767 64.4256L43.3343 63.0912L43.6031 63.7584L43.3343 63.0912C43.6847 62.9472 51.9119 59.472 51.9119 49.92H53.3519C53.3519 60.48 43.9727 64.3872 43.8767 64.4256Z" fill="#002D6E"/>
    </g>
    <defs>
        <clipPath id="default_modal_icon">
            <rect width="96" height="96" fill="white"/>
        </clipPath>
    </defs>
</svg>