<svg viewBox="0 0 746 926" fill="none" xmlns="http://www.w3.org/2000/svg">
    <path d="M696.188 119.662C497.475 213.212 365.225 35.1499 365.225 35.1499C365.225 35.1499 475.55 255.8 700.063 221.6" stroke="#001465" stroke-miterlimit="10"/>
    <path d="M365.225 35.1499C365.225 35.1499 376.838 329.337 703.938 351.275" stroke="#001465" stroke-miterlimit="10"/>
    <path d="M34.2627 119.662C232.975 213.212 365.225 35.1499 365.225 35.1499C365.225 35.1499 254.9 255.8 30.3877 221.6" stroke="#001465" stroke-miterlimit="10"/>
    <path d="M365.225 35.1499C365.225 35.1499 353.613 329.337 26.5127 351.275" stroke="#001465" stroke-miterlimit="10"/>
    <path d="M124.575 432.325L84.25 386.512C84.25 386.512 82.225 366.512 101.138 366.512C120.05 366.512 147.788 299.087 144.563 268.45C141.338 237.8 52.175 244.5 47.7875 282.637C43.4 320.787 55.2125 340.7 55.2125 340.7C55.2125 340.7 51.6625 381.662 44.8875 391.662C38.125 401.675 136.188 465.875 124.575 432.325Z" fill="white" stroke="#001465" stroke-miterlimit="10"/>
    <path d="M67.8121 311.675C67.8121 311.675 86.8497 275.862 114.587 278.45C142.325 281.037 164.912 267.487 164.912 267.487C164.912 267.487 132.512 251.4 132.337 251.037C132.337 251.037 93.7372 224.812 57.5996 251.362C45.2121 260.462 37.5996 274.825 37.4121 290.187C37.2496 303.862 40.7246 322.162 55.2371 340.712L59.4246 332C59.4246 332 55.2371 331.35 56.5246 325.55C57.8121 319.737 51.6871 298.125 62.9746 295.875C74.2621 293.625 67.8121 311.675 67.8121 311.675Z" fill="#001465" stroke="#001465" stroke-miterlimit="10"/>
    <path d="M730.387 0.712402L7.16241 16.8374L0.712402 665.875L744.587 669.1L730.387 0.712402ZM31.7499 627.675L37.6249 43.4124L696.487 28.8874L709.412 630.562L31.7499 627.675Z" fill="#EEF2FF" stroke="#001465" stroke-miterlimit="10"/>
    <path d="M91.4497 297.962C93.9122 297 97.8497 295.812 102.762 295.862C106.037 295.887 108.8 296.45 110.85 297.037" stroke="#001465" stroke-miterlimit="10" stroke-linecap="round"/>
    <path d="M127.25 297.05C129.3 296.45 132.063 295.887 135.338 295.862C137.763 295.85 139.963 296.125 141.85 296.525" stroke="#001465" stroke-miterlimit="10" stroke-linecap="round"/>
    <path d="M387.162 828.45L377.488 858.125C377.488 858.125 372.612 878.187 387.2 881.025C391.812 881.925 396.125 884.075 399.175 887.637C401.912 890.837 404.637 895.337 405.875 901.337C405.875 901.337 420.1 937.362 463.225 920.262C467.225 918.675 468.975 913.925 467 910.1C464.575 905.387 458.7 898.325 445.55 888.112C445.55 888.112 428.412 874.237 422.625 866.825C422.625 866.825 408.125 852.95 415.875 834.887C423.612 816.837 384.575 819.737 387.162 828.45Z" fill="white" stroke="#001465" stroke-miterlimit="10"/>
    <path d="M556.513 626.512C556.513 626.512 578.125 649.412 572.963 663.937C572.963 663.937 564.825 693.487 601.238 685.238C609.038 683.475 617.063 682.962 625 683.95C643.925 686.3 678.35 688.262 687.8 673.3C687.8 673.3 689.737 668.812 681.987 668.137C672.4 667.3 609.088 659.425 588.113 614.587C567.163 569.737 547.813 624.575 556.513 626.512Z" fill="white" stroke="#001465" stroke-miterlimit="10"/>
    <path d="M170.712 543.937C170.712 543.937 345.9 435.312 426.087 399.812C427.175 399.337 428.25 398.85 429.312 398.325C433.212 396.387 450.212 389.075 470.4 400.062C499.425 415.875 618.125 619.1 618.125 619.1C618.125 619.1 593.612 640.387 552.962 635.55L435.225 465.875C435.225 465.875 229.1 611.037 201.675 615.875C174.262 620.712 147.487 580.712 170.712 543.937Z" fill="#2E3192" stroke="#001465" stroke-miterlimit="10"/>
    <path d="M120.062 594.9C120.062 594.9 135.55 649.087 272.962 633.612C272.962 633.612 346.512 628.775 378.45 628.775L364.9 840.712C364.9 840.712 382.512 839.912 394.587 848.175C398.95 851.162 403.85 853.337 409.087 853.962C416.812 854.887 426.637 853.512 431.675 842.65L456.837 601.362C456.837 601.362 459.637 552.087 416.187 551.037L276.087 540.3C262.6 539.262 249.037 540.587 236 544.212C196.687 555.175 114.15 580.125 120.062 594.9Z" fill="#2E3192" stroke="#001465" stroke-miterlimit="10"/>
    <path d="M104.262 429.425C104.262 429.425 76.0499 383.962 47.0874 387.175C18.1249 390.387 28.4499 455.875 34.2624 470.075C40.0749 484.262 84.5874 584.587 131.037 622.337C131.037 622.337 180.387 538.462 199.1 528.15C199.1 528.15 129.537 419.625 122 410.725C117.075 404.912 97.8124 382.337 84.2624 386.537C84.2624 386.512 108.45 418.125 104.262 429.425Z" fill="#526EFF" stroke="#001465" stroke-miterlimit="10"/>
    <path d="M62.6499 478.45C62.6499 478.45 75.5499 529.1 130.387 568.45C130.387 568.45 151.037 576.187 177.162 548.125C203.287 520.062 232.65 495.55 232.65 495.55C232.65 495.55 262.325 464.262 269.1 462C275.875 459.737 279.1 457.162 292.65 457.162L349.425 425.55C349.425 425.55 313.3 404.587 293.612 419.425C273.925 434.262 142.962 521.037 142.962 521.037C142.962 521.037 114.25 463.937 103.287 454.262C92.3249 444.587 62.6499 478.45 62.6499 478.45Z" fill="white" stroke="#001465" stroke-miterlimit="10"/>
    <path d="M67.1625 399.737C67.4875 401.025 91.35 402.637 111.675 461.35C111.675 461.35 63.9375 485.862 62.9625 491.025C62.9625 491.025 53.2625 456.837 44.5625 467.8" fill="#526EFF"/>
    <path d="M67.1625 399.737C67.4875 401.025 91.35 402.637 111.675 461.35C111.675 461.35 63.9375 485.862 62.9625 491.025C62.9625 491.025 53.2625 456.837 44.5625 467.8" stroke="#001465" stroke-miterlimit="10"/>
    <path d="M393.537 400.362L379.2 408.637L393.375 246.6L386.987 246.037L372.412 412.55L240.05 488.975L246.462 500.1L399.962 411.475L393.537 400.362Z" fill="#001465" stroke="#001465" stroke-miterlimit="10"/>
    <path d="M97.1372 304.962C98.2372 304.737 99.4247 304.55 100.712 304.462C102.05 304.362 103.287 304.375 104.437 304.45" stroke="#001465" stroke-miterlimit="10" stroke-linecap="round"/>
    <path d="M103.409 308.781C103.715 306.698 102.789 304.837 101.341 304.624C99.8928 304.412 98.4711 305.929 98.1654 308.012C97.8597 310.095 98.7857 311.956 100.234 312.169C101.682 312.381 103.103 310.865 103.409 308.781Z" fill="#001465" stroke="#001465" stroke-miterlimit="10" stroke-linecap="round"/>
    <path d="M127.25 304.175C128.213 303.95 129.25 303.762 130.363 303.675C131.525 303.575 132.613 303.587 133.613 303.662" stroke="#001465" stroke-miterlimit="10" stroke-linecap="round"/>
    <path d="M132.554 307.992C132.86 305.909 131.934 304.048 130.486 303.836C129.038 303.623 127.616 305.14 127.31 307.223C127.005 309.306 127.931 311.167 129.379 311.38C130.827 311.592 132.248 310.076 132.554 307.992Z" fill="#001465" stroke="#001465" stroke-miterlimit="10" stroke-linecap="round"/>
    <path d="M118.85 304.962L121.512 329.025C121.65 330.212 120.775 331.275 119.587 331.387L112.562 332.037" stroke="#001465" stroke-miterlimit="10" stroke-linecap="round"/>
    <path d="M93.0874 341.962C93.0874 341.962 97.3249 354.775 112.562 345.55" stroke="#001465" stroke-miterlimit="10" stroke-linecap="round"/>
</svg>