<svg width="24" height="24" viewBox="0 0 24 24" fill="none" xmlns="http://www.w3.org/2000/svg">
    <path fill-rule="evenodd" clip-rule="evenodd" d="M14.4974 1.61913C14.3309 -0.0269455 12.2284 -0.593232 11.2654 0.748614L3.33943 11.7927C2.60639 12.8141 3.11743 14.2569 4.32768 14.5829L8.83651 15.7973L9.50256 22.3809C9.66909 24.0269 11.7716 24.5933 12.7346 23.2514L20.6606 12.2073C21.3936 11.1859 20.8826 9.74307 19.6723 9.41709L15.1634 8.20269L14.4974 1.61913Z" fill="url(#paint0_radial)"/>
    <path d="M4.89457 13.2532C4.48455 13.142 4.44496 12.5729 4.83558 12.4053L7.96923 11.0613C8.25216 10.94 8.56971 11.1352 8.59117 11.4436L8.74675 13.6802C8.76821 13.9886 8.48078 14.2263 8.1838 14.1458L4.89457 13.2532Z" fill="#005BFD"/>
    <path d="M19.2561 10.5267C19.6661 10.638 19.7057 11.2071 19.3151 11.3746L16.1815 12.7186C15.8985 12.8399 15.581 12.6447 15.5595 12.3362L15.404 10.0998C15.3824 9.79132 15.6699 9.55359 15.9668 9.63418L19.2561 10.5267Z" fill="#6EAEFF"/>
    <defs>
        <radialGradient id="paint0_radial" cx="0" cy="0" r="1" gradientUnits="userSpaceOnUse" gradientTransform="translate(3 12) scale(18 115.529)">
            <stop stop-color="#60A5FA"/>
            <stop offset="1" stop-color="#6366F1"/>
        </radialGradient>
    </defs>
</svg>