<svg width="63" height="63" viewBox="0 0 63 63" fill="none" xmlns="http://www.w3.org/2000/svg">
<g clip-path="url(#clip0)">
<path d="M31.5089 62.3796C48.5579 62.3796 62.3789 48.5586 62.3789 31.5096C62.3789 14.4605 48.5579 0.639557 31.5089 0.639557C14.4599 0.639557 0.638916 14.4605 0.638916 31.5096C0.638916 48.5586 14.4599 62.3796 31.5089 62.3796Z" fill="url(#paint0_linear)"/>
<path d="M58.415 42.9905C64.7586 28.1405 57.8627 10.9597 43.0126 4.61611C28.1626 -1.72745 10.9818 5.16843 4.63821 20.0185C-1.70534 34.8685 5.19054 52.0494 20.0406 58.3929C34.8906 64.7365 52.0714 57.8406 58.415 42.9905Z" fill="url(#paint1_linear)"/>
<path d="M31.5089 55.6961C44.8668 55.6961 55.6955 44.8674 55.6955 31.5095C55.6955 18.1517 44.8668 7.32303 31.5089 7.32303C18.1511 7.32303 7.32242 18.1517 7.32242 31.5095C7.32242 44.8674 18.1511 55.6961 31.5089 55.6961Z" fill="url(#paint2_linear)"/>
<path d="M47.3475 47.3496C56.095 38.6021 56.095 24.4197 47.3475 15.6723C38.6001 6.92482 24.4177 6.92482 15.6702 15.6723C6.92278 24.4197 6.92278 38.6021 15.6702 47.3496C24.4177 56.097 38.6001 56.097 47.3475 47.3496Z" fill="url(#paint3_linear)"/>
<path opacity="0.8" d="M45.2868 31.4274C45.1517 31.3486 44.9981 31.307 44.8417 31.307C44.6853 31.307 44.5317 31.3486 44.3966 31.4274L32.1938 39.1106L20.4086 31.6876V29.2155L31.7281 36.3441C31.8681 36.4338 32.0309 36.4815 32.1972 36.4815C32.3634 36.4815 32.5262 36.4338 32.6662 36.3441L45.3279 28.3664C45.4546 28.2893 45.5591 28.1806 45.6311 28.0509C45.7031 27.9213 45.7402 27.7751 45.7388 27.6268C45.7394 27.4777 45.702 27.331 45.6301 27.2003C45.5582 27.0697 45.4542 26.9596 45.3279 26.8804L32.6662 18.9096C32.5254 18.8222 32.3629 18.7759 32.1972 18.7759C32.0314 18.7759 31.869 18.8222 31.7281 18.9096L19.0665 26.8804L18.9158 27.0105L18.8473 27.0585L18.7583 27.1817V27.2365C18.7371 27.2809 18.7188 27.3267 18.7035 27.3735C18.7005 27.3916 18.7005 27.4101 18.7035 27.4282C18.6932 27.4963 18.6932 27.5656 18.7035 27.6337V32.1806C18.7021 32.3289 18.7392 32.4751 18.8112 32.6047C18.8832 32.7344 18.9877 32.8431 19.1144 32.9202L31.776 40.8979C31.9169 40.9853 32.0794 41.0315 32.2451 41.0315C32.4109 41.0315 32.5733 40.9853 32.7142 40.8979L44.0336 33.7693V36.2414L32.2417 43.6644L20.0457 35.988C19.9481 35.9269 19.8395 35.8855 19.7259 35.8664C19.6124 35.8472 19.4962 35.8506 19.3839 35.8764C19.2717 35.9021 19.1656 35.9497 19.0718 36.0165C18.978 36.0832 18.8982 36.1678 18.8371 36.2654C18.7759 36.3629 18.7346 36.4716 18.7154 36.5851C18.6963 36.6987 18.6997 36.8149 18.7254 36.9271C18.7512 37.0394 18.7988 37.1454 18.8655 37.2393C18.9323 37.3331 19.0168 37.4129 19.1144 37.474L31.776 45.4449C31.916 45.5346 32.0788 45.5822 32.2451 45.5822C32.4114 45.5822 32.5742 45.5346 32.7142 45.4449L45.3758 37.474C45.5021 37.3948 45.6062 37.2847 45.678 37.1541C45.7499 37.0235 45.7873 36.8767 45.7867 36.7276V32.1943C45.7837 32.0325 45.7352 31.8747 45.6468 31.7391C45.5584 31.6035 45.4337 31.4954 45.2868 31.4274ZM32.1938 20.7105L43.2119 27.6474L32.1938 34.5911L21.1824 27.6542L32.1938 20.7105Z" fill="white"/>
<path d="M44.602 30.7426C44.4669 30.6638 44.3133 30.6223 44.1569 30.6223C44.0005 30.6223 43.8469 30.6638 43.7118 30.7426L31.509 38.4259L19.7238 31.0028V28.5307L31.0433 35.6593C31.1833 35.749 31.3461 35.7967 31.5124 35.7967C31.6787 35.7967 31.8414 35.749 31.9815 35.6593L44.6431 27.6816C44.7698 27.6045 44.8743 27.4958 44.9463 27.3661C45.0183 27.2365 45.0554 27.0904 45.054 26.942C45.0546 26.793 45.0172 26.6462 44.9453 26.5156C44.8734 26.385 44.7694 26.2748 44.6431 26.1956L31.9815 18.2248C31.8406 18.1374 31.6781 18.0912 31.5124 18.0912C31.3466 18.0912 31.1842 18.1374 31.0433 18.2248L18.3817 26.1956L18.231 26.3257L18.1625 26.3737L18.0735 26.4969V26.5517C18.0523 26.5961 18.034 26.6419 18.0187 26.6887C18.0157 26.7068 18.0157 26.7253 18.0187 26.7435C18.0084 26.8115 18.0084 26.8808 18.0187 26.9489V31.4958C18.0173 31.6442 18.0544 31.7903 18.1264 31.9199C18.1984 32.0496 18.3029 32.1583 18.4296 32.2354L31.0912 40.2131C31.2321 40.3005 31.3946 40.3468 31.5603 40.3468C31.7261 40.3468 31.8885 40.3005 32.0294 40.2131L43.3489 33.0845V35.5566L31.5569 42.9797L19.3609 35.3032C19.2633 35.2421 19.1547 35.2008 19.0411 35.1816C18.9276 35.1624 18.8114 35.1658 18.6991 35.1916C18.5869 35.2173 18.4809 35.2649 18.387 35.3317C18.2932 35.3984 18.2134 35.483 18.1523 35.5806C18.0911 35.6782 18.0498 35.7868 18.0306 35.9004C18.0115 36.0139 18.0149 36.1301 18.0406 36.2423C18.0664 36.3546 18.114 36.4606 18.1807 36.5545C18.2475 36.6483 18.332 36.7281 18.4296 36.7892L31.0912 44.7601C31.2313 44.8498 31.394 44.8974 31.5603 44.8974C31.7266 44.8974 31.8894 44.8498 32.0294 44.7601L44.691 36.7892C44.8173 36.71 44.9214 36.5999 44.9933 36.4693C45.0651 36.3387 45.1025 36.1919 45.1019 36.0428V31.5095C45.0989 31.3477 45.0505 31.1899 44.9621 31.0543C44.8737 30.9187 44.7489 30.8107 44.602 30.7426ZM31.509 20.0257L42.5271 26.9626L31.509 33.9063L20.4977 26.9694L31.509 20.0257Z" fill="url(#paint4_linear)"/>
<path opacity="0.9" d="M31.5089 60.7361C38.3949 60.7318 45.0583 58.2969 50.3247 53.8606C55.5911 49.4242 59.1224 43.2712 60.2963 36.4861C61.4701 29.7009 60.2111 22.7192 56.7411 16.7715C53.2711 10.8237 47.813 6.29178 41.3287 3.97446L11.7872 53.0802C17.168 58.0158 24.2074 60.7484 31.5089 60.7361Z" fill="url(#paint5_radial)"/>
<path opacity="0.9" d="M56.5583 44.8628C58.0511 47.8622 52.4017 53.7102 43.9309 57.9285C35.4601 62.1467 27.3865 63.1328 25.8937 60.1335C24.4009 57.1341 30.0572 51.2861 38.5211 47.0678C46.985 42.8496 55.0655 41.8635 56.5583 44.8628Z" fill="url(#paint6_radial)"/>
<path opacity="0.9" d="M9.02066 10.3703C8.98528 10.4832 8.97311 10.602 8.98488 10.7197C8.99665 10.8374 9.03212 10.9515 9.08914 11.0551C9.77392 12.0823 13.3142 10.9866 17.06 8.59675C20.8058 6.20686 23.3052 3.42665 22.6478 2.39948C22.5366 2.24389 22.3742 2.13238 22.189 2.08447C17.1654 3.67963 12.6326 6.53178 9.02066 10.3703Z" fill="url(#paint7_radial)"/>
</g>
<defs>
<linearGradient id="paint0_linear" x1="-11.4004" y1="53.5507" x2="86.7045" y2="3.10916" gradientUnits="userSpaceOnUse">
<stop offset="0.03" stop-color="#5E6577"/>
<stop offset="0.2" stop-color="#AAB0BF"/>
<stop offset="0.35" stop-color="#F0F1F6"/>
<stop offset="0.55" stop-color="#C2C8D0"/>
<stop offset="0.82" stop-color="#848A99"/>
<stop offset="1" stop-color="#C0C6CF"/>
</linearGradient>
<linearGradient id="paint1_linear" x1="34.7593" y1="77.0804" x2="27.3263" y2="-27.1391" gradientUnits="userSpaceOnUse">
<stop stop-color="#C0C6CF"/>
<stop offset="0.18" stop-color="#848A99"/>
<stop offset="0.45" stop-color="#C2C8D0"/>
<stop offset="0.65" stop-color="#F0F1F6"/>
<stop offset="0.8" stop-color="#AAB0BF"/>
<stop offset="0.97" stop-color="#5E6577"/>
</linearGradient>
<linearGradient id="paint2_linear" x1="-2.11033" y1="48.7787" x2="67.0148" y2="13.2729" gradientUnits="userSpaceOnUse">
<stop offset="0.03" stop-color="#5E6577"/>
<stop offset="0.2" stop-color="#AAB0BF"/>
<stop offset="0.35" stop-color="#F0F1F6"/>
<stop offset="0.55" stop-color="#C2C8D0"/>
<stop offset="0.82" stop-color="#848A99"/>
<stop offset="1" stop-color="#C0C6CF"/>
</linearGradient>
<linearGradient id="paint3_linear" x1="-4.82499" y1="39.0818" x2="120.839" y2="12.948" gradientUnits="userSpaceOnUse">
<stop stop-color="#C0C6CF"/>
<stop offset="0.18" stop-color="#848A99"/>
<stop offset="0.45" stop-color="#C2C8D0"/>
<stop offset="0.65" stop-color="#F0F1F6"/>
<stop offset="0.8" stop-color="#AAB0BF"/>
<stop offset="0.97" stop-color="#5E6577"/>
</linearGradient>
<linearGradient id="paint4_linear" x1="22.2913" y1="40.7425" x2="40.5432" y2="22.0802" gradientUnits="userSpaceOnUse">
<stop stop-color="#C0C6CF"/>
<stop offset="0.18" stop-color="#848A99"/>
<stop offset="0.45" stop-color="#C2C8D0"/>
<stop offset="0.65" stop-color="#F0F1F6"/>
<stop offset="0.8" stop-color="#AAB0BF"/>
<stop offset="0.97" stop-color="#5E6577"/>
</linearGradient>
<radialGradient id="paint5_radial" cx="0" cy="0" r="1" gradientUnits="userSpaceOnUse" gradientTransform="translate(16.9184 -15.9489) scale(79.2467 79.2393)">
<stop stop-color="white"/>
<stop offset="0.88" stop-color="white" stop-opacity="0"/>
</radialGradient>
<radialGradient id="paint6_radial" cx="0" cy="0" r="1" gradientUnits="userSpaceOnUse" gradientTransform="translate(10.5832 -266.793) rotate(-39.7216) scale(20.0189 5.38409)">
<stop stop-color="white"/>
<stop offset="0.08" stop-color="white" stop-opacity="0.851"/>
<stop offset="0.2" stop-color="white" stop-opacity="0.62"/>
<stop offset="0.32" stop-color="white" stop-opacity="0.431"/>
<stop offset="0.44" stop-color="white" stop-opacity="0.278"/>
<stop offset="0.56" stop-color="white" stop-opacity="0.161"/>
<stop offset="0.67" stop-color="white" stop-opacity="0.071"/>
<stop offset="0.78" stop-color="white" stop-opacity="0.02"/>
<stop offset="0.88" stop-color="white" stop-opacity="0"/>
</radialGradient>
<radialGradient id="paint7_radial" cx="0" cy="0" r="1" gradientUnits="userSpaceOnUse" gradientTransform="translate(-17.3697 -167.778) rotate(-44.6422) scale(9.25763 1.90625)">
<stop stop-color="white"/>
<stop offset="0.08" stop-color="white" stop-opacity="0.851"/>
<stop offset="0.2" stop-color="white" stop-opacity="0.62"/>
<stop offset="0.32" stop-color="white" stop-opacity="0.431"/>
<stop offset="0.44" stop-color="white" stop-opacity="0.278"/>
<stop offset="0.56" stop-color="white" stop-opacity="0.161"/>
<stop offset="0.67" stop-color="white" stop-opacity="0.071"/>
<stop offset="0.78" stop-color="white" stop-opacity="0.02"/>
<stop offset="0.88" stop-color="white" stop-opacity="0"/>
</radialGradient>
<clipPath id="clip0">
<rect width="63" height="63" fill="white"/>
</clipPath>
</defs>
</svg>
