<svg width="61" height="61" viewBox="0 0 61 61" fill="none" xmlns="http://www.w3.org/2000/svg">
<path d="M30.5 61C47.3447 61 61 47.3447 61 30.5C61 13.6553 47.3447 0 30.5 0C13.6553 0 0 13.6553 0 30.5C0 47.3447 13.6553 61 30.5 61Z" fill="url(#paint0_linear)"/>
<path d="M30.5 59.3743C46.4468 59.3743 59.3743 46.4468 59.3743 30.5C59.3743 14.5532 46.4468 1.6257 30.5 1.6257C14.5532 1.6257 1.6257 14.5532 1.6257 30.5C1.6257 46.4468 14.5532 59.3743 30.5 59.3743Z" fill="url(#paint1_linear)"/>
<path d="M30.5007 54.395C43.6975 54.395 54.3957 43.6969 54.3957 30.5C54.3957 17.3031 43.6975 6.60495 30.5007 6.60495C17.3038 6.60495 6.60564 17.3031 6.60564 30.5C6.60564 43.6969 17.3038 54.395 30.5007 54.395Z" fill="url(#paint2_linear)"/>
<path d="M30.5 52.6307C42.7224 52.6307 52.6306 42.7224 52.6306 30.5C52.6306 18.2776 42.7224 8.36935 30.5 8.36935C18.2776 8.36935 8.36935 18.2776 8.36935 30.5C8.36935 42.7224 18.2776 52.6307 30.5 52.6307Z" fill="url(#paint3_linear)"/>
<path d="M44.1077 30.4161C43.972 30.3421 43.819 30.3055 43.6645 30.31C43.51 30.3145 43.3594 30.36 43.2282 30.4418L31.1765 38.0284L19.5328 30.6969V28.2553L30.7145 35.2959C30.853 35.383 31.0132 35.4292 31.1769 35.4292C31.3405 35.4292 31.5008 35.383 31.6393 35.2959L44.151 27.4177C44.2751 27.3395 44.3774 27.2312 44.4483 27.1027C44.5191 26.9743 44.5563 26.83 44.5563 26.6834C44.5563 26.5367 44.5191 26.3924 44.4483 26.264C44.3774 26.1355 44.2751 26.0272 44.151 25.949L31.6393 18.0715C31.5007 17.9846 31.3404 17.9385 31.1769 17.9385C31.0133 17.9385 30.853 17.9846 30.7145 18.0715L18.2027 25.949L18.1939 25.9564C18.1387 25.9921 18.0878 26.0341 18.0424 26.0816C18.0309 26.0931 18.0214 26.1066 18.0106 26.1195C17.9782 26.1571 17.949 26.1974 17.9233 26.2399C17.9125 26.2582 17.9023 26.2764 17.8929 26.2954C17.8716 26.3389 17.8539 26.3842 17.8401 26.4307C17.8334 26.4486 17.8278 26.4669 17.8232 26.4855C17.8064 26.5518 17.7978 26.62 17.7975 26.6884V31.1806C17.7975 31.3274 17.8347 31.4718 17.9057 31.6003C17.9767 31.7288 18.0791 31.8372 18.2034 31.9153L30.7145 39.7881C30.8529 39.8753 31.0132 39.9215 31.1769 39.9215C31.3405 39.9215 31.5008 39.8753 31.6393 39.7881L42.821 32.7474V35.1904L31.1765 42.5219L19.1275 34.9347C18.9329 34.8172 18.6999 34.7809 18.4788 34.8334C18.2576 34.8859 18.0658 35.0231 17.9447 35.2154C17.8236 35.4078 17.7828 35.64 17.831 35.8621C17.8792 36.0843 18.0127 36.2786 18.2027 36.4034L30.7145 44.2816C30.853 44.3687 31.0132 44.4149 31.1769 44.4149C31.3405 44.4149 31.5008 44.3687 31.6393 44.2816L44.151 36.4034C44.2753 36.3255 44.3778 36.2172 44.4488 36.0888C44.5198 35.9604 44.557 35.8161 44.5569 35.6694V31.1765C44.5567 31.0212 44.515 30.8688 44.436 30.7351C44.357 30.6014 44.2437 30.4912 44.1077 30.4161ZM31.1765 19.8311L42.0599 26.6837L31.1765 33.5363L20.2939 26.6837L31.1765 19.8311Z" fill="#FDF98C"/>
<path style="mix-blend-mode:multiply" d="M43.4312 29.7396C43.2955 29.6656 43.1425 29.629 42.988 29.6335C42.8334 29.638 42.6829 29.6835 42.5517 29.7653L30.5 37.3519L18.8562 30.0203V27.5787L30.0379 34.6194C30.1764 34.7065 30.3367 34.7527 30.5003 34.7527C30.6639 34.7527 30.8242 34.7065 30.9627 34.6194L43.4745 26.7412C43.5986 26.663 43.7009 26.5546 43.7717 26.4262C43.8426 26.2978 43.8798 26.1535 43.8798 26.0068C43.8798 25.8601 43.8426 25.7158 43.7717 25.5874C43.7009 25.459 43.5986 25.3506 43.4745 25.2724L30.9627 17.3949C30.8242 17.3081 30.6639 17.262 30.5003 17.262C30.3368 17.262 30.1765 17.3081 30.0379 17.3949L17.5262 25.2724L17.5174 25.2799C17.4622 25.3156 17.4113 25.3576 17.3658 25.405C17.3543 25.4165 17.3449 25.4301 17.334 25.4429C17.3017 25.4806 17.2725 25.5209 17.2468 25.5634C17.2359 25.5816 17.2258 25.5999 17.2163 25.6188C17.195 25.6624 17.1774 25.7077 17.1636 25.7541C17.1569 25.7721 17.1513 25.7904 17.1467 25.8089C17.1299 25.8753 17.1213 25.9434 17.1209 26.0119V30.504C17.121 30.6508 17.1582 30.7952 17.2292 30.9237C17.3002 31.0522 17.4026 31.1606 17.5269 31.2388L30.0379 39.1115C30.1764 39.1987 30.3367 39.245 30.5003 39.245C30.664 39.245 30.8243 39.1987 30.9627 39.1115L42.1444 32.0709V34.5139L30.5 41.8454L18.451 34.2581C18.2563 34.1407 18.0234 34.1043 17.8022 34.1568C17.5811 34.2093 17.3893 34.3465 17.2682 34.5389C17.1471 34.7312 17.1062 34.9634 17.1545 35.1856C17.2027 35.4077 17.3362 35.6021 17.5262 35.7269L30.0379 43.6051C30.1764 43.6921 30.3367 43.7384 30.5003 43.7384C30.6639 43.7384 30.8242 43.6921 30.9627 43.6051L43.4745 35.7269C43.5988 35.6489 43.7012 35.5407 43.7723 35.4123C43.8433 35.2839 43.8805 35.1395 43.8804 34.9928V30.5C43.8802 30.3447 43.8385 30.1923 43.7595 30.0585C43.6805 29.9248 43.5671 29.8147 43.4312 29.7396ZM30.5 19.1546L41.3833 26.0071L30.5 32.8597L19.6173 26.0071L30.5 19.1546Z" fill="url(#paint4_linear)"/>
<path style="mix-blend-mode:overlay" opacity="0.9" d="M30.5 59.3743C37.3047 59.3738 43.8906 56.9703 49.096 52.5876C54.3014 48.205 57.7919 42.1249 58.9517 35.4197C60.1115 28.7146 58.8662 21.8153 55.4353 15.9388C52.0045 10.0624 46.6086 5.58626 40.1994 3.30011L11.0119 51.8033C16.3285 56.6817 23.2843 59.3839 30.5 59.3743Z" fill="url(#paint5_radial)"/>
<path style="mix-blend-mode:overlay" opacity="0.9" d="M55.2468 43.6924C56.7223 46.6556 51.1362 52.4345 42.7709 56.5999C34.4056 60.7653 26.4273 61.7415 24.9518 58.7756C23.4763 55.8097 29.0624 50.0355 37.4256 45.8701C45.7889 41.7047 53.7713 40.7312 55.2468 43.6924Z" fill="url(#paint6_radial)"/>
<path style="mix-blend-mode:overlay" opacity="0.9" d="M8.2814 9.61756C8.24808 9.72623 8.2369 9.84049 8.24852 9.95355C8.26014 10.0666 8.29433 10.1762 8.34906 10.2758C8.99988 11.296 12.5266 10.2082 16.2259 7.84776C19.9252 5.48735 22.3952 2.7447 21.7437 1.72449C21.6345 1.5717 21.4742 1.46318 21.2918 1.4187C16.3259 2.99567 11.8468 5.81832 8.2814 9.61756Z" fill="url(#paint7_radial)"/>
<defs>
<linearGradient id="paint0_linear" x1="-11.895" y1="52.277" x2="85.034" y2="2.44" gradientUnits="userSpaceOnUse">
<stop stop-color="#C1A544"/>
<stop offset="0.204" stop-color="#E5B92B"/>
<stop offset="0.355" stop-color="#F3E175"/>
<stop offset="0.524" stop-color="#F3D53C"/>
<stop offset="0.815" stop-color="#CC9626"/>
<stop offset="1" stop-color="#EFCD37"/>
</linearGradient>
<linearGradient id="paint1_linear" x1="-9.63527" y1="51.1162" x2="82.1272" y2="3.93564" gradientUnits="userSpaceOnUse">
<stop stop-color="#EFCD37"/>
<stop offset="0.185" stop-color="#CC9626"/>
<stop offset="0.476" stop-color="#F3D53C"/>
<stop offset="0.645" stop-color="#F3E175"/>
<stop offset="0.796" stop-color="#E5B92B"/>
<stop offset="1" stop-color="#C1A544"/>
</linearGradient>
<linearGradient id="paint2_linear" x1="-2.71343" y1="47.561" x2="65.5786" y2="12.4831" gradientUnits="userSpaceOnUse">
<stop stop-color="#C1A544"/>
<stop offset="0.204" stop-color="#E5B92B"/>
<stop offset="0.355" stop-color="#F3E175"/>
<stop offset="0.524" stop-color="#F3D53C"/>
<stop offset="0.815" stop-color="#CC9626"/>
<stop offset="1" stop-color="#EFCD37"/>
</linearGradient>
<linearGradient id="paint3_linear" x1="-0.173076" y1="10.4054" x2="105.877" y2="79.9399" gradientUnits="userSpaceOnUse">
<stop stop-color="#EFCD37"/>
<stop offset="0.185" stop-color="#CC9626"/>
<stop offset="0.476" stop-color="#F3D53C"/>
<stop offset="0.645" stop-color="#F3E175"/>
<stop offset="0.796" stop-color="#E5B92B"/>
<stop offset="1" stop-color="#C1A544"/>
</linearGradient>
<linearGradient id="paint4_linear" x1="21.3757" y1="39.6081" x2="39.4299" y2="21.2003" gradientUnits="userSpaceOnUse">
<stop stop-color="#EFCD37"/>
<stop offset="0.185" stop-color="#CC9626"/>
<stop offset="0.476" stop-color="#F3D53C"/>
<stop offset="0.645" stop-color="#F3E175"/>
<stop offset="0.796" stop-color="#E5B92B"/>
<stop offset="1" stop-color="#C1A544"/>
</linearGradient>
<radialGradient id="paint5_radial" cx="0" cy="0" r="1" gradientUnits="userSpaceOnUse" gradientTransform="translate(4.93029 -16.3819) scale(78.2487 78.2796)">
<stop stop-color="white"/>
<stop offset="0.878" stop-color="white" stop-opacity="0"/>
</radialGradient>
<radialGradient id="paint6_radial" cx="0" cy="0" r="1" gradientUnits="userSpaceOnUse" gradientTransform="translate(50.2779 -238.614) rotate(-39.5432) scale(19.656 5.15963)">
<stop stop-color="white"/>
<stop offset="0.076" stop-color="white" stop-opacity="0.847"/>
<stop offset="0.198" stop-color="white" stop-opacity="0.624"/>
<stop offset="0.319" stop-color="white" stop-opacity="0.435"/>
<stop offset="0.439" stop-color="white" stop-opacity="0.278"/>
<stop offset="0.556" stop-color="white" stop-opacity="0.157"/>
<stop offset="0.67" stop-color="white" stop-opacity="0.071"/>
<stop offset="0.779" stop-color="white" stop-opacity="0.02"/>
<stop offset="0.878" stop-color="white" stop-opacity="0"/>
</radialGradient>
<radialGradient id="paint7_radial" cx="0" cy="0" r="1" gradientUnits="userSpaceOnUse" gradientTransform="translate(12.5593 -127.692) rotate(-44.6422) scale(9.15521 1.88487)">
<stop stop-color="white"/>
<stop offset="0.076" stop-color="white" stop-opacity="0.847"/>
<stop offset="0.198" stop-color="white" stop-opacity="0.624"/>
<stop offset="0.319" stop-color="white" stop-opacity="0.435"/>
<stop offset="0.439" stop-color="white" stop-opacity="0.278"/>
<stop offset="0.556" stop-color="white" stop-opacity="0.157"/>
<stop offset="0.67" stop-color="white" stop-opacity="0.071"/>
<stop offset="0.779" stop-color="white" stop-opacity="0.02"/>
<stop offset="0.878" stop-color="white" stop-opacity="0"/>
</radialGradient>
</defs>
</svg>
