<svg width="16" height="16" viewBox="0 0 16 16" fill="none" xmlns="http://www.w3.org/2000/svg">
    <g clip-path="url(#clip0)">
        <path d="M7.99989 16C12.3806 16 15.9319 12.4487 15.9319 8.068C15.9319 3.68727 12.3806 0.135986 7.99989 0.135986C3.61916 0.135986 0.0678711 3.68727 0.0678711 8.068C0.0678711 12.4487 3.61916 16 7.99989 16Z" fill="url(#paint0_linear)"/>
        <path d="M15.4539 10.7866V10.7869C15.4163 10.8898 15.3765 10.9918 15.3347 11.0928C14.809 12.3668 13.9607 13.474 12.8917 14.3126C12.4698 14.6434 12.0136 14.9326 11.5296 15.1737C10.5726 15.6497 9.50616 15.9381 8.37788 15.9909C7.022 15.5292 5.74834 14.7574 4.66731 13.6761C1.39999 10.4087 0.959361 5.3847 3.34609 1.64403C3.71777 1.06094 4.1584 0.509282 4.66734 0L5.2815 0.614157L5.61109 0.944064L5.85359 1.18656L6.13041 1.46307V1.46338L11.2043 6.53726H11.2046V6.53758L11.8058 7.1388H11.8061V7.13911L15.4539 10.7866Z" fill="#4AC688"/>
        <path d="M15.4538 10.7869C15.4163 10.8899 15.3764 10.9919 15.3347 11.0929C14.8089 12.3668 13.9606 13.4741 12.8916 14.3126C12.4698 14.6435 12.0136 14.9326 11.5296 15.1738C9.38793 15.1803 7.24465 14.3664 5.61067 12.7327C2.35563 9.47733 2.35563 4.19947 5.61099 0.944092L6.1303 1.46341L11.2042 6.53729L11.2045 6.5376L15.4538 10.7869Z" fill="#C9F4C9"/>
        <path d="M15.4537 10.7865V10.7868C15.4161 10.8898 15.3763 10.9918 15.3345 11.0928C14.8087 12.3667 13.9605 13.474 12.8915 14.3125C12.5324 14.3789 12.1695 14.4191 11.8056 14.4333C11.6055 14.4414 11.4044 14.4414 11.2044 14.433C9.45348 14.3643 7.72238 13.6938 6.34706 12.4215C6.27391 12.3541 6.20138 12.2842 6.13016 12.213C6.05894 12.1417 5.989 12.0692 5.92166 11.9961C4.64931 10.6207 3.97881 8.8893 3.91015 7.13877C3.90175 6.93836 3.90175 6.73764 3.90984 6.53755C3.97847 4.78636 4.64897 3.05523 5.92166 1.67991C5.989 1.60676 6.05859 1.53454 6.13016 1.46332L11.204 6.5372H11.2044V6.53752L11.8056 7.13874H11.8059V7.13905L15.4537 10.7865Z" fill="#D4D65B"/>
        <path d="M15.4538 10.7869C15.4163 10.8899 15.3764 10.9919 15.3347 11.0929L5.64111 1.3993L5.85349 1.18658L6.1303 1.4634L11.2042 6.53728L11.2045 6.53759L15.4538 10.7869Z" fill="#C9F4C9"/>
        <path d="M11.2048 6.53754L11.8063 7.13901L11.8061 7.56407V14.8308L11.2046 14.8306V14.4331V7.56435V7.13901V6.96257V6.71363L11.2048 6.53754Z" fill="#C9F4C9"/>
        <path d="M11.7183 7.05089L11.293 6.62555L5.64148 12.277L6.06682 12.7024L11.7183 7.05089Z" fill="#C9F4C9"/>
        <path d="M11.2046 6.53723L11.8063 7.13901H11.6299H11.381H3.51301L3.5127 6.53754H3.91016H10.7795L11.2046 6.53723Z" fill="#C9F4C9"/>
        <path d="M15.4541 10.7865C15.4166 10.8895 15.3771 10.9915 15.335 11.0925C14.8118 12.3606 13.969 13.4637 12.9068 14.3009C12.4856 14.6327 12.0304 14.9228 11.5467 15.165C10.5913 15.6432 9.52616 15.9342 8.39884 15.9899C7.9255 15.83 7.4619 15.6322 7.01318 15.3965C11.3282 13.4057 13.1234 8.45581 13.1234 8.45581L15.4541 10.7865Z" fill="#32A066"/>
        <path d="M15.4541 10.7865C15.4165 10.8895 15.377 10.9915 15.3349 11.0925C14.8117 12.3606 13.969 13.4637 12.9068 14.3009C12.4855 14.6327 12.0303 14.9228 11.5467 15.165C10.4899 15.1708 9.43222 14.9765 8.43506 14.5822C11.7263 12.3079 13.1233 8.45581 13.1233 8.45581L15.4541 10.7865Z" fill="#ADDBAD"/>
        <path d="M15.4538 10.7865C15.4163 10.8895 15.3768 10.9915 15.3347 11.0925C14.8115 12.3606 13.9687 13.4637 12.9065 14.3009C12.5413 14.3692 12.1719 14.4106 11.8018 14.4252C11.6017 14.4333 11.401 14.4333 11.2006 14.4249C10.489 14.3971 9.78061 14.2698 9.09814 14.0426C11.7604 11.8727 12.9858 8.77732 13.1121 8.44482L15.4538 10.7865Z" fill="#D4D65B"/>
        <path d="M11.2007 11.8268C11.4212 11.5328 11.6212 11.2421 11.8019 10.9623V14.8225L11.2007 14.8222V11.8268Z" fill="#ADDBAD"/>
        <path d="M15.454 10.7865C15.4165 10.8895 15.377 10.9915 15.3349 11.0925L12.9893 8.74689C13.0537 8.59667 13.0942 8.49242 13.1123 8.44482L15.454 10.7865Z" fill="#ADDBAD"/>
    </g>
    <defs>
        <linearGradient id="paint0_linear" x1="0.0678711" y1="8.068" x2="15.9319" y2="8.068" gradientUnits="userSpaceOnUse">
            <stop stop-color="#0F8F62"/>
            <stop offset="0.458333" stop-color="#0F8F62"/>
            <stop offset="1" stop-color="#2BB47E"/>
        </linearGradient>
        <clipPath id="clip0">
            <rect width="16" height="16" fill="white"/>
        </clipPath>
    </defs>
</svg>