<svg width="20" height="20" viewBox="0 0 20 20" fill="none" xmlns="http://www.w3.org/2000/svg">
    <path d="M10.1438 0.230367C12.6005 0.118223 14.9098 1.16845 16.7914 2.64363C15.9883 3.54011 15.1568 4.40365 14.2683 5.21129C12.0064 3.67555 8.78968 3.23662 6.52778 5.01063C3.29208 7.20925 3.14474 12.4005 6.25715 14.7672C9.28386 17.4656 14.8251 16.1678 15.8007 12.4444C14.1489 12.4164 11.8429 12.505 9.94713 12.4444C9.94239 11.3333 9.94239 9.88851 9.94713 8.77772C13.1164 8.76841 16.529 8.7541 19.7031 8.77772C19.8931 11.392 19.495 14.0064 17.8603 16.1678C15.3847 19.5897 10.4148 20.5887 6.53726 19.1228C2.64582 17.6663 -0.110266 13.6281 0.217606 9.5107C0.303299 4.47354 5.01679 0.0623178 10.1438 0.230367Z" fill="#DB4436"/>
</svg>
