<svg width="512" height="512" viewBox="0 0 512 512" fill="none" xmlns="http://www.w3.org/2000/svg">
<g clip-path="url(#clip0)">
<path d="M255.999 511.999C396.182 511.999 509.823 398.358 509.823 258.175C509.823 117.992 396.182 4.35101 255.999 4.35101C115.816 4.35101 2.17505 117.992 2.17505 258.175C2.17505 398.358 115.816 511.999 255.999 511.999Z" fill="url(#paint0_linear)"/>
<path d="M494.522 345.169V345.179C493.32 348.474 492.046 351.737 490.709 354.969C473.884 395.736 446.74 431.168 412.531 458.001C399.032 468.589 384.434 477.841 368.946 485.559C338.321 500.788 304.195 510.019 268.09 511.708C224.702 496.934 183.945 472.236 149.352 437.633C44.7979 333.079 30.6979 172.31 107.073 52.609C118.967 33.95 133.067 16.297 149.353 0L169.006 19.653L179.553 30.21L187.313 37.97L196.171 46.818V46.828L358.535 209.192H358.545V209.202L377.784 228.441H377.794V228.451L494.522 345.169Z" fill="#4AC688"/>
<path d="M494.522 345.18C493.32 348.475 492.046 351.738 490.709 354.97C473.884 395.737 446.74 431.169 412.531 458.002C399.032 468.59 384.434 477.842 368.946 485.56C300.414 485.767 231.829 459.722 179.542 407.444C75.3811 303.273 75.3811 134.382 179.552 30.21L196.17 46.828L358.534 209.192L358.544 209.202L494.522 345.18Z" fill="#C9F4C9"/>
<path d="M494.522 345.169V345.179C493.32 348.474 492.046 351.737 490.709 354.969C473.884 395.736 446.74 431.168 412.531 458.001C401.042 460.125 389.428 461.41 377.783 461.865C371.38 462.124 364.947 462.124 358.544 461.855C302.516 459.659 247.121 438.203 203.111 397.487C200.77 395.332 198.449 393.094 196.17 390.815C193.891 388.536 191.653 386.215 189.498 383.874C148.783 339.864 127.327 284.458 125.13 228.441C124.861 222.028 124.861 215.605 125.12 209.202C127.316 153.164 148.772 97.768 189.498 53.758C191.653 51.417 193.88 49.106 196.17 46.827L358.534 209.191H358.544V209.201L377.783 228.44H377.793V228.45L494.522 345.169Z" fill="#5BD65B"/>
<path d="M494.522 345.18C493.32 348.475 492.046 351.738 490.709 354.97L180.516 44.777L187.312 37.97L196.17 46.828L358.534 209.192L358.544 209.202L494.522 345.18Z" fill="#C9F4C9"/>
<path d="M358.548 209.2L377.796 228.447L377.787 242.049V474.585L358.54 474.577V461.859V242.058V228.447V222.801V214.835L358.548 209.2Z" fill="#C9F4C9"/>
<path d="M374.974 225.626L361.363 212.015L180.516 392.862L194.127 406.473L374.974 225.626Z" fill="#C9F4C9"/>
<path d="M358.54 209.19L377.796 228.447H372.151H364.184H112.41L112.4 209.2H125.119H344.937L358.54 209.19Z" fill="#C9F4C9"/>
<path d="M494.526 345.169C493.324 348.464 492.06 351.727 490.713 354.959C473.971 395.54 447.003 430.837 413.012 457.628C399.533 468.247 384.967 477.53 369.489 485.279C338.916 500.581 304.831 509.895 268.757 511.677C253.61 506.559 238.775 500.229 224.416 492.687C362.496 428.982 419.943 270.586 419.943 270.586L494.526 345.169Z" fill="#32A066"/>
<path d="M494.526 345.169C493.324 348.464 492.06 351.727 490.713 354.959C473.971 395.54 447.003 430.837 413.012 457.628C399.533 468.247 384.967 477.53 369.489 485.279C335.673 485.465 301.827 479.249 269.918 466.631C375.239 393.851 419.943 270.586 419.943 270.586L494.526 345.169Z" fill="#ADDBAD"/>
<path d="M494.526 345.169C493.324 348.464 492.06 351.727 490.713 354.959C473.971 395.54 447.003 430.837 413.012 457.628C401.326 459.814 389.505 461.14 377.663 461.606C371.26 461.865 364.837 461.865 358.424 461.596C335.652 460.705 312.984 456.633 291.145 449.361C376.337 379.927 415.55 280.874 419.59 270.234L494.526 345.169Z" fill="#4CC14C"/>
<path d="M358.424 378.457C365.479 369.05 371.882 359.747 377.663 350.795V474.319L358.424 474.309V378.457Z" fill="#ADDBAD"/>
<path d="M494.526 345.169C493.324 348.464 492.06 351.727 490.713 354.959L415.654 279.9C417.716 275.093 419.011 271.757 419.591 270.234L494.526 345.169Z" fill="#ADDBAD"/>
</g>
<defs>
<linearGradient id="paint0_linear" x1="2.17505" y1="258.175" x2="509.823" y2="258.175" gradientUnits="userSpaceOnUse">
<stop stop-color="#0F8F62"/>
<stop offset="0.458333" stop-color="#0F8F62"/>
<stop offset="1" stop-color="#2BB47E"/>
</linearGradient>
<clipPath id="clip0">
<rect width="511.999" height="511.999" fill="white"/>
</clipPath>
</defs>
</svg>
