<svg width="38" height="38" viewBox="0 0 38 38" fill="none" xmlns="http://www.w3.org/2000/svg">
<path d="M10.5166 21.8333C11.7598 21.8333 12.6022 21.996 13.4852 22.4682C14.359 22.9356 15.0646 23.6411 15.5319 24.5149C15.9516 25.2998 16.1268 26.0526 16.1606 27.0834L16.1668 27.4836V32.3164C16.1668 33.5597 16.0041 34.4021 15.5319 35.285C15.0646 36.1589 14.359 36.8644 13.4852 37.3318C12.7003 37.7515 11.9475 37.9267 10.9167 37.9604L10.5166 37.9667H5.68367C4.44041 37.9667 3.59803 37.804 2.71506 37.3318C1.84121 36.8644 1.13568 36.1589 0.668335 35.285C0.248586 34.5002 0.0734176 33.7474 0.0396733 32.7166L0.0334473 32.3164V27.4836C0.0334473 26.2403 0.196118 25.3979 0.668335 24.5149C1.13568 23.6411 1.84121 22.9356 2.71506 22.4682C3.49992 22.0485 4.25271 21.8733 5.2835 21.8395L5.68367 21.8333H10.5166ZM30.3166 21.8333C31.5598 21.8333 32.4022 21.996 33.2852 22.4682C34.159 22.9356 34.8646 23.6411 35.3319 24.5149C35.7516 25.2998 35.9268 26.0526 35.9606 27.0834L35.9668 27.4836V32.3164C35.9668 33.5597 35.8041 34.4021 35.3319 35.285C34.8646 36.1589 34.159 36.8644 33.2852 37.3318C32.5003 37.7515 31.7475 37.9267 30.7167 37.9604L30.3166 37.9667H25.4837C24.2404 37.9667 23.398 37.804 22.5151 37.3318C21.6412 36.8644 20.9357 36.1589 20.4683 35.285C20.0486 34.5002 19.8734 33.7474 19.8397 32.7166L19.8334 32.3164V27.4836C19.8334 26.2403 19.9961 25.3979 20.4683 24.5149C20.9357 23.6411 21.6412 22.9356 22.5151 22.4682C23.2999 22.0485 24.0527 21.8733 25.0835 21.8395L25.4837 21.8333H30.3166ZM10.5166 25.1333H5.68367C4.86645 25.1333 4.5701 25.2184 4.27134 25.3782C3.97257 25.538 3.7381 25.7724 3.57832 26.0712C3.43851 26.3326 3.35589 26.5922 3.33742 27.2005L3.33345 27.4836V32.3164C3.33345 33.1337 3.41854 33.43 3.57832 33.7288C3.7381 34.0275 3.97257 34.262 4.27134 34.4218C4.53276 34.5616 4.79233 34.6442 5.40061 34.6627L5.68367 34.6667H10.5166C11.3338 34.6667 11.6301 34.5816 11.9289 34.4218C12.2277 34.262 12.4621 34.0275 12.6219 33.7288C12.7617 33.4673 12.8443 33.2078 12.8628 32.5995L12.8668 32.3164V27.4836C12.8668 26.6663 12.7817 26.37 12.6219 26.0712C12.4621 25.7724 12.2277 25.538 11.9289 25.3782C11.6301 25.2184 11.3338 25.1333 10.5166 25.1333ZM30.3166 25.1333H25.4837C24.6665 25.1333 24.3701 25.2184 24.0713 25.3782C23.7726 25.538 23.5381 25.7724 23.3783 26.0712C23.2385 26.3326 23.1559 26.5922 23.1374 27.2005L23.1334 27.4836V32.3164C23.1334 33.1337 23.2185 33.43 23.3783 33.7288C23.5381 34.0275 23.7726 34.262 24.0713 34.4218C24.3328 34.5616 24.5923 34.6442 25.2006 34.6627L25.4837 34.6667H30.3166C31.1338 34.6667 31.4301 34.5816 31.7289 34.4218C32.0277 34.262 32.2621 34.0275 32.4219 33.7288C32.5617 33.4673 32.6443 33.2078 32.6628 32.5995L32.6668 32.3164V27.4836C32.6668 26.6663 32.5817 26.37 32.4219 26.0712C32.2621 25.7724 32.0277 25.538 31.7289 25.3782C31.4301 25.2184 31.1338 25.1333 30.3166 25.1333ZM29.3474 1.03712C30.1858 1.29126 30.8348 1.691 31.5728 2.37591L31.8954 2.68731L35.3128 6.10467C36.1919 6.98379 36.6725 7.69447 36.963 8.65273C37.2504 9.6011 37.2504 10.5989 36.963 11.5472C36.7088 12.3857 36.3091 13.0346 35.6242 13.7727L35.3128 14.0953L31.8954 17.5127C31.0163 18.3918 30.3056 18.8724 29.3474 19.1629C28.399 19.4503 27.4012 19.4503 26.4529 19.1629C25.6144 18.9087 24.9655 18.509 24.2274 17.8241L23.9048 17.5127L20.4874 14.0953C19.6083 13.2162 19.1277 12.5055 18.8372 11.5472C18.5498 10.5989 18.5498 9.6011 18.8372 8.65273C19.0914 7.81425 19.4911 7.16533 20.176 6.42726L20.4874 6.10467L23.9048 2.68731C24.7839 1.80819 25.4946 1.32756 26.4529 1.03712C27.4012 0.749672 28.399 0.749672 29.3474 1.03712ZM10.5166 2.03332C11.7598 2.03332 12.6022 2.19599 13.4852 2.66821C14.359 3.13555 15.0646 3.84108 15.5319 4.71493C16.0041 5.5979 16.1668 6.44028 16.1668 7.68355V12.5164C16.1668 13.7597 16.0041 14.6021 15.5319 15.485C15.0646 16.3589 14.359 17.0644 13.4852 17.5318C12.6022 18.004 11.7598 18.1667 10.5166 18.1667H5.68367C4.44041 18.1667 3.59803 18.004 2.71506 17.5318C1.84121 17.0644 1.13568 16.3589 0.668335 15.485C0.196118 14.6021 0.0334473 13.7597 0.0334473 12.5164V7.68355C0.0334473 6.44028 0.196118 5.5979 0.668335 4.71493C1.13568 3.84108 1.84121 3.13555 2.71506 2.66821C3.59803 2.19599 4.44041 2.03332 5.68367 2.03332H10.5166ZM27.4101 4.19524C27.1264 4.28123 26.8844 4.40635 26.4412 4.82341L26.2383 5.02076L22.8209 8.43812C22.243 9.01599 22.0936 9.2857 21.9954 9.60995C21.8971 9.93419 21.8971 10.2658 21.9954 10.59C22.0814 10.8737 22.2065 11.1157 22.6235 11.5589L22.8209 11.7618L26.2383 15.1792C26.8161 15.7571 27.0858 15.9065 27.4101 16.0047C27.7343 16.103 28.0659 16.103 28.3902 16.0047C28.6739 15.9187 28.9158 15.7936 29.359 15.3766L29.562 15.1792L32.9793 11.7618C33.5572 11.184 33.7066 10.9143 33.8049 10.59C33.9031 10.2658 33.9031 9.93419 33.8049 9.60995C33.7189 9.32623 33.5937 9.08427 33.1767 8.64109L32.9793 8.43812L29.562 5.02076C28.9841 4.4429 28.7144 4.29352 28.3902 4.19524C28.0659 4.09696 27.7343 4.09696 27.4101 4.19524ZM10.5166 5.33332H5.68367C4.86645 5.33332 4.5701 5.41841 4.27134 5.57819C3.97257 5.73797 3.7381 5.97245 3.57832 6.27121C3.41854 6.56998 3.33345 6.86632 3.33345 7.68355V12.5164C3.33345 13.3337 3.41854 13.63 3.57832 13.9288C3.7381 14.2275 3.97257 14.462 4.27134 14.6218C4.5701 14.7816 4.86645 14.8667 5.68367 14.8667H10.5166C11.3338 14.8667 11.6301 14.7816 11.9289 14.6218C12.2277 14.462 12.4621 14.2275 12.6219 13.9288C12.7817 13.63 12.8668 13.3337 12.8668 12.5164V7.68355C12.8668 6.86632 12.7817 6.56998 12.6219 6.27121C12.4621 5.97245 12.2277 5.73797 11.9289 5.57819C11.6301 5.41841 11.3338 5.33332 10.5166 5.33332Z" fill="#57D4F6"/>
</svg>
