<svg width="30" height="18" viewBox="0 0 30 18" fill="none" xmlns="http://www.w3.org/2000/svg">
    <path d="M28.4679 1.44295C28.5937 0.803077 28.3166 0.444458 27.6614 0.444458H24.3607C23.6049 0.444458 23.3275 0.777202 23.1009 1.26364C23.1009 1.26364 21.3515 5.31576 19.18 7.75028C18.483 8.53738 18.3607 8.77413 17.9759 8.77413C17.6654 8.77413 17.5223 8.51124 17.5223 7.80125V1.58054C17.5223 0.710122 17.4228 0.444458 16.7161 0.444458H11.4622C11.0569 0.444458 10.7861 0.66879 10.7861 0.993772C10.7861 1.81347 12.0207 1.99847 12.0207 4.21953V8.80188C12.0207 9.72353 11.9703 10.0819 11.542 10.0819C10.4082 10.0819 7.46382 6.13753 5.95216 1.63177C5.64962 0.710122 5.32359 0.444458 4.46414 0.444458H1.17192C0.693158 0.444458 0.333313 0.78671 0.333313 1.27315C0.333313 2.16918 1.36622 6.31658 5.42297 11.8718C8.14402 15.6094 11.9539 17.632 15.1789 17.632C17.1444 17.632 17.5223 17.2853 17.5223 16.4402V13.5731C17.5223 12.8564 17.7994 12.549 18.2025 12.549C18.6561 12.549 19.3254 12.7112 21.1959 14.5855C23.413 16.7359 23.5643 17.632 24.7739 17.632H28.4774C28.8556 17.632 29.2083 17.4526 29.2083 16.8128C29.2083 15.9677 28.1247 14.4574 26.4618 12.6654C25.7816 11.7437 24.6728 10.7455 24.3201 10.2847C23.8161 9.747 23.9674 9.43962 24.3201 8.87659C24.3201 8.87659 28.0897 3.23501 28.4679 1.44295Z" fill="#4D75A3"/>
</svg>
