<svg width="243" height="243" viewBox="0 0 243 243" fill="none" xmlns="http://www.w3.org/2000/svg">
<g clip-path="url(#clip0)">
<path d="M121.5 243C188.032 243 241.967 189.065 241.967 122.533C241.967 56.0003 188.032 2.06519 121.5 2.06519C54.9674 2.06519 1.03223 56.0003 1.03223 122.533C1.03223 189.065 54.9674 243 121.5 243Z" fill="url(#paint0_linear)"/>
<path d="M234.705 163.821V163.826C234.135 165.389 233.53 166.938 232.895 168.472C224.91 187.82 212.027 204.637 195.791 217.372C189.385 222.397 182.456 226.788 175.105 230.451C160.571 237.679 144.374 242.06 127.238 242.862C106.646 235.85 87.3021 224.128 70.8839 207.705C21.2615 158.083 14.5695 81.7801 50.8179 24.9688C56.4629 16.113 63.1549 7.73472 70.8844 0L80.2119 9.32752L85.2176 14.338L88.9006 18.021L93.1047 22.2203V22.225L170.164 99.2847H170.169V99.2894L179.3 108.42H179.305V108.425L234.705 163.821Z" fill="#4AC688"/>
<path d="M234.705 163.826C234.135 165.39 233.53 166.938 232.896 168.472C224.91 187.821 212.027 204.637 195.792 217.372C189.385 222.398 182.456 226.789 175.106 230.452C142.58 230.55 110.029 218.189 85.2126 193.377C35.7767 143.936 35.7767 63.779 85.2173 14.3379L93.1044 22.225L170.164 99.2846L170.169 99.2893L234.705 163.826Z" fill="#C9F4C9"/>
<path d="M234.705 163.821V163.826C234.135 165.389 233.53 166.938 232.895 168.472C224.91 187.82 212.027 204.637 195.791 217.372C190.339 218.38 184.826 218.99 179.3 219.206C176.261 219.329 173.207 219.329 170.169 219.201C143.577 218.159 117.286 207.976 96.3984 188.651C95.2874 187.629 94.1858 186.566 93.1042 185.485C92.0225 184.403 90.9604 183.302 89.9376 182.191C70.6138 161.303 60.4306 135.007 59.3879 108.42C59.2602 105.377 59.2602 102.328 59.3831 99.2895C60.4254 72.6932 70.6086 46.4017 89.9376 25.5141C90.9604 24.4031 92.0173 23.3062 93.1042 22.2246L170.164 99.2842H170.169V99.289L179.3 108.42H179.304V108.425L234.705 163.821Z" fill="#D4D65B"/>
<path d="M234.705 163.826C234.135 165.39 233.53 166.939 232.896 168.472L85.6748 21.2517L88.9003 18.021L93.1044 22.2251L170.164 99.2847L170.169 99.2895L234.705 163.826Z" fill="#C9F4C9"/>
<path d="M170.171 99.2886L179.306 108.423L179.302 114.879V225.243L170.167 225.239V219.203V114.883V108.423V105.744V101.963L170.171 99.2886Z" fill="#C9F4C9"/>
<path d="M177.966 107.084L171.506 100.625L85.6744 186.456L92.1343 192.916L177.966 107.084Z" fill="#C9F4C9"/>
<path d="M170.167 99.2837L179.306 108.423H176.627H172.845H53.3509L53.3462 99.2884H59.3828H163.711L170.167 99.2837Z" fill="#C9F4C9"/>
<path d="M234.707 163.821C234.137 165.385 233.537 166.933 232.898 168.467C224.952 187.727 212.152 204.48 196.02 217.195C189.623 222.235 182.709 226.641 175.363 230.318C160.853 237.581 144.676 242.001 127.555 242.847C120.366 240.418 113.325 237.414 106.51 233.834C172.044 203.599 199.309 128.423 199.309 128.423L234.707 163.821Z" fill="#32A066"/>
<path d="M234.707 163.821C234.137 165.385 233.537 166.933 232.898 168.467C224.952 187.727 212.152 204.48 196.02 217.195C189.623 222.235 182.709 226.641 175.363 230.318C159.314 230.407 143.25 227.456 128.106 221.468C178.092 186.926 199.309 128.423 199.309 128.423L234.707 163.821Z" fill="#ADDBAD"/>
<path d="M234.707 163.821C234.137 165.385 233.537 166.933 232.898 168.467C224.952 187.727 212.152 204.48 196.02 217.195C190.474 218.232 184.863 218.862 179.243 219.083C176.204 219.206 173.156 219.206 170.112 219.078C159.304 218.655 148.546 216.723 138.181 213.271C178.614 180.317 197.225 133.306 199.142 128.256L234.707 163.821Z" fill="#D4D65B"/>
<path d="M170.111 179.619C173.46 175.155 176.499 170.739 179.242 166.491V225.116L170.111 225.112V179.619Z" fill="#ADDBAD"/>
<path d="M234.707 163.821C234.136 165.384 233.537 166.933 232.897 168.467L197.273 132.843C198.252 130.562 198.867 128.978 199.142 128.256L234.707 163.821Z" fill="#ADDBAD"/>
</g>
<defs>
<linearGradient id="paint0_linear" x1="1.03223" y1="122.533" x2="241.967" y2="122.533" gradientUnits="userSpaceOnUse">
<stop stop-color="#0F8F62"/>
<stop offset="0.458333" stop-color="#0F8F62"/>
<stop offset="1" stop-color="#2BB47E"/>
</linearGradient>
<clipPath id="clip0">
<rect width="243" height="243" fill="white"/>
</clipPath>
</defs>
</svg>
