<svg width="171" height="120" viewBox="0 0 171 120" fill="none" xmlns="http://www.w3.org/2000/svg">
<path fill-rule="evenodd" clip-rule="evenodd" d="M1.00021 47.3932C1.29029 44.4996 2.27712 40.9762 3.597 37.5002L3.61004 37.472C5.08844 34.0529 6.83595 30.8365 8.64001 28.5645C10.281 26.4978 12.0075 25.1766 13.6911 25.1054C15.9807 25.0087 21.0796 28.5425 26.8825 33.3297C36.5136 41.2749 48.2474 52.7153 51.9441 56.4497L53.0239 57.5403L51.4881 57.5702C46.2278 57.6724 29.8282 57.7009 17.4066 56.6894C9.90864 56.079 3.78898 55.0588 2.21107 53.3909C1.0541 52.1679 0.736903 50.0181 1.00021 47.3932ZM13.1344 80.7145C11.9697 77.7746 11.088 74.7946 10.8069 72.3459C10.549 70.0975 10.7986 68.2457 11.7849 67.172C13.1171 65.7217 18.3086 64.7762 24.672 64.1659C35.1898 63.1574 49.0715 62.9819 53.5234 63.0042L55.0582 63.0118L53.9951 64.1173C50.9089 67.3255 41.1094 77.1587 33.054 84.0012C28.1836 88.1379 23.8882 91.2005 21.9179 91.1461C20.4594 91.1054 18.9569 89.9941 17.525 88.2432C15.9652 86.3356 14.4417 83.6252 13.1448 80.7404L13.1344 80.7145ZM41.3363 108.53C38.4341 107.275 35.7029 105.791 33.7725 104.258C32.0009 102.851 30.8677 101.365 30.8062 99.9066C30.7235 97.9398 33.7246 93.6013 37.7917 88.6715C44.5211 80.5141 54.2093 70.5774 57.3711 67.4473L58.4617 66.3672L58.4916 67.9033C58.5781 72.3584 58.6022 86.2482 57.7461 96.7652C57.2274 103.135 56.3555 108.339 54.9219 109.695C53.8628 110.697 52.0155 110.973 49.7653 110.747C47.3059 110.501 44.3144 109.663 41.3646 108.542L41.3363 108.53ZM50.0036 -0.000366211H124.873V5.50585H119.567C116.292 5.50585 113.934 6.36957 112.493 8.09683C110.659 10.3641 109.742 14.4396 109.742 20.3775V97.8403C109.742 102.887 116.564 101.7 120.064 101.7C127.064 101.7 129.027 101.7 132.564 101.7C141.341 101.7 138.064 101.7 145.703 101.7C152.777 96.1939 157.821 89.2844 160.834 80.9713H170.266L161.423 120H50.0037V114.493H52.7548C56.1609 114.493 58.6174 113.468 60.1241 111.417C61.6307 109.365 62.384 105.452 62.384 99.6218V20.3777C62.384 14.3588 61.5977 10.3643 60.0256 8.42089C58.4535 6.47753 55.9645 5.50602 52.5583 5.50602H50.0037L50.0036 -0.000366211Z" fill="#0AC36A"/>
<path d="M40.4062 12.4328C37.5214 13.7294 34.8114 15.2531 32.9036 16.813C31.1528 18.2449 30.0414 19.7471 30.0007 21.2059C29.9461 23.1764 33.0091 27.4714 37.1458 32.3418C43.9879 40.3976 53.8211 50.1969 57.0294 53.2833L58.1345 54.3464L58.1426 52.8116C58.1649 48.3595 57.9895 34.4787 56.9807 23.9609C56.3707 17.5973 55.4246 12.4051 53.9747 11.0727C52.9012 10.0864 51.0488 9.83688 48.8009 10.0949C46.352 10.376 43.3716 11.258 40.4321 12.4226L40.4062 12.4328Z" fill="#FFA832"/>
</svg>
