<svg width="64" height="64" viewBox="0 0 64 64" fill="none" xmlns="http://www.w3.org/2000/svg">
<path d="M20.2652 32.8532C20.1372 32.8532 20.0092 32.8106 19.9239 32.7679L8.40383 25.5146C8.10517 25.3439 8.01983 24.9172 8.1905 24.6186C8.36117 24.3199 8.78783 24.2346 9.0865 24.4052L20.1799 31.4026L25.3852 26.6239C25.5985 26.4106 25.9399 26.4106 26.1959 26.5812L30.8892 29.9946C31.1879 30.2079 31.2305 30.5919 31.0172 30.8906C30.8039 31.1892 30.4199 31.2319 30.1212 31.0186L25.8545 27.9039L20.6919 32.6826C20.5639 32.8106 20.4359 32.8532 20.2652 32.8532Z" fill="#0AC36A"/>
<path d="M56.7465 12.416L49.0665 9.85601C48.7251 9.72801 48.3838 9.94132 48.2558 10.24C48.1278 10.5813 48.3411 10.9226 48.6398 11.0506L48.8531 11.136V15.744L48.5972 15.872C48.2558 16 48.1278 16.384 48.2558 16.7253C48.3411 16.9813 48.5971 17.1093 48.8531 17.1093C48.9385 17.1093 49.0238 17.1093 49.1091 17.0666L56.7892 13.6533C57.0452 13.5253 57.1731 13.312 57.1731 13.056C57.1731 12.7146 57.0025 12.5013 56.7465 12.416Z" fill="#0AC36A"/>
<path d="M8.74702 54.1867C8.57636 54.1867 8.40569 54.1013 8.27769 53.9733C8.02169 53.7173 8.02169 53.3333 8.27769 53.0773L23.5523 38.1013C24.8323 36.864 26.667 36.736 28.0323 37.8027L33.1096 41.6L48.427 24.9173C48.683 24.6613 49.067 24.6187 49.323 24.8747C49.579 25.1307 49.6216 25.5147 49.3656 25.7707L33.6643 42.88C33.451 43.136 33.067 43.136 32.811 42.9653L27.2643 38.8267C26.411 38.1867 25.259 38.272 24.4483 39.04L9.17374 54.016C9.08836 54.144 8.91769 54.1867 8.74702 54.1867Z" fill="#1E2329"/>
<path d="M52.4805 54.1866H8.74718C8.40584 54.1866 8.10718 53.8879 8.10718 53.5466C8.10718 53.2052 8.40584 52.9066 8.74718 52.9066H52.4805C52.8218 52.9066 53.1205 53.2052 53.1205 53.5466C53.1205 53.8879 52.8218 54.1866 52.4805 54.1866Z" fill="#1E2329"/>
<path d="M48.8544 26.0267C48.513 26.0267 48.2144 25.728 48.2144 25.3867V10.4534C48.2144 10.112 48.513 9.81335 48.8544 9.81335C49.1957 9.81335 49.4944 10.112 49.4944 10.4534V25.3867C49.4944 25.728 49.1957 26.0267 48.8544 26.0267Z" fill="#1E2329"/>
<path d="M48.8554 23.0826C48.5567 23.0826 48.258 22.8692 48.2154 22.5279C48.1727 22.1866 48.4287 21.8452 48.77 21.8026C49.3247 21.7172 49.8793 21.3332 49.8367 20.7359C49.8367 20.3092 49.6234 19.9252 48.6847 19.6692C48.3434 19.5839 48.1727 19.1999 48.258 18.8586C48.3434 18.5172 48.7274 18.3466 49.0687 18.4319C49.5807 18.5599 51.074 19.0292 51.1593 20.6932C51.202 21.8879 50.306 22.9119 48.9834 23.0826C48.898 23.0826 48.898 23.0826 48.8554 23.0826Z" fill="#1E2329"/>
<path d="M39.5523 16.64C38.9549 16.128 38.1869 15.872 37.3336 15.9573L37.2909 15.9146C37.1203 15.7866 36.9496 15.744 36.7789 15.7866C36.0109 15.9573 35.2856 16.384 34.6883 16.9386C34.3469 16.64 33.9629 16.4693 33.5363 16.4693C32.7683 16.4693 32.1709 16.9813 32.0856 17.6213C32.0856 17.664 32.0856 17.664 32.0856 17.7066C32.0856 18.0906 32.2136 18.432 32.4269 18.688C32.4269 18.7306 32.4696 18.7306 32.5123 18.7733C32.0003 18.9866 31.7443 19.328 31.6163 19.712C31.3603 20.5226 31.7869 21.3333 32.6829 21.6746C32.9816 21.8026 33.2803 21.8453 33.5363 21.888C33.8349 22.4426 34.1763 22.9546 34.5176 23.296C34.9016 23.68 35.2856 24.064 35.6696 24.4053C35.9683 24.6613 36.2669 24.9173 36.5229 25.216C36.6509 25.344 36.8216 25.3866 36.9923 25.3866C37.1629 25.3866 37.3336 25.344 37.4616 25.216C37.7176 24.96 37.7176 24.576 37.4616 24.32C37.1629 24.0213 36.8643 23.7653 36.5656 23.4666C36.1816 23.1253 35.8403 22.8266 35.4989 22.4426C35.0296 21.9306 34.4323 21.12 34.4323 20.1813C34.4323 19.1146 35.3709 17.792 36.4803 17.2373L37.5469 24.192C37.5896 24.5333 37.9309 24.7893 38.2723 24.704C38.6136 24.6613 38.8696 24.32 38.7843 23.9786L38.7416 23.7226C38.8269 23.3813 38.8696 23.04 38.8696 22.6986C39.5523 22.6133 40.1069 22.2293 40.4483 21.5893C41.2163 20.096 40.5763 17.4933 39.5523 16.64ZM39.2963 21.0346C39.1683 21.2906 38.9549 21.5466 38.4003 21.4186L37.6749 17.1946C38.0589 17.1946 38.4003 17.3226 38.6989 17.5786C39.3389 18.1333 39.7656 20.096 39.2963 21.0346Z" fill="#1E2329"/>
<path d="M48.9409 18.8586C48.6849 18.7733 48.3862 18.9013 48.2155 19.1146C46.5942 21.632 41.9862 24.1493 38.6582 23.5093C38.5729 23.5093 38.4875 23.5093 38.4022 23.5093L38.3169 23.552C36.9942 23.5946 35.5862 23.6373 34.2209 23.808C31.8742 24.064 31.0209 25.7706 30.3382 27.4773L30.2529 27.648C29.6129 29.184 28.4182 32.0853 30.1249 33.7066C30.7649 34.304 31.6182 34.3893 32.3009 34.3466V41.6853C32.3009 41.9413 32.4716 42.1546 32.6849 42.2826C32.7702 42.3253 32.8555 42.3253 32.9409 42.3253C33.1115 42.3253 33.2396 42.2826 33.3676 42.1546L40.6209 35.328C40.7489 35.2 40.8342 35.0293 40.8342 34.8586V28.3733C41.7729 28.288 42.6689 28.032 43.7356 27.6053C45.6982 26.752 47.7035 25.4293 49.1968 23.936C49.3249 23.808 49.3675 23.6373 49.3675 23.4666V19.456C49.4102 19.1573 49.2395 18.944 48.9409 18.8586ZM38.6155 31.1466H33.0689C33.0262 31.1466 33.0262 31.1466 32.9835 31.1466H32.9409C32.8982 31.1466 32.8555 31.1466 32.8129 31.104H32.7702C32.7276 31.104 32.7276 31.0613 32.6849 31.0613L32.6422 31.0186L32.5996 30.976L32.5569 30.9333L32.5142 30.8906C32.5142 30.8906 32.5142 30.848 32.4716 30.848C32.4716 30.848 32.4716 30.8053 32.4289 30.8053V30.7626V30.72C32.4289 30.6773 32.4289 30.6773 32.4289 30.6346V30.592C32.4289 30.5493 32.4289 30.5493 32.4289 30.5066V30.464V30.4213C32.4289 30.3786 32.4289 30.3786 32.4716 30.336L34.1782 26.496C34.3062 26.1546 34.6902 26.0266 35.0316 26.1546C35.3729 26.2826 35.5009 26.6666 35.3729 27.008L34.0502 29.8666H38.6155C38.9569 29.8666 39.2555 30.1653 39.2555 30.5066C39.2555 30.848 38.9569 31.1466 38.6155 31.1466Z" fill="#1E2329"/>
<path d="M26.24 54.1866C25.8987 54.1866 25.6 53.888 25.6 53.5466V37.76C25.6 37.4186 25.8987 37.12 26.24 37.12C26.5813 37.12 26.88 37.4186 26.88 37.76V53.5466C26.88 53.888 26.5813 54.1866 26.24 54.1866Z" fill="#1E2329"/>
<path d="M33.0649 54.1867C32.7236 54.1867 32.4249 53.888 32.4249 53.5467V42.4534C32.4249 42.112 32.7236 41.8134 33.0649 41.8134C33.4063 41.8134 33.7049 42.112 33.7049 42.4534V53.5467C33.7049 53.888 33.4063 54.1867 33.0649 54.1867Z" fill="#1E2329"/>
<path d="M48.8544 54.1866C48.513 54.1866 48.2144 53.888 48.2144 53.5466V25.3867C48.2144 25.0453 48.513 24.7467 48.8544 24.7467C49.1957 24.7467 49.4944 25.0453 49.4944 25.3867V53.5466C49.4944 53.888 49.1957 54.1866 48.8544 54.1866Z" fill="#1E2329"/>
</svg>
