<svg width="64" height="64" viewBox="0 0 64 64" fill="none" xmlns="http://www.w3.org/2000/svg">
<path d="M37.2497 17.4508L36.7377 16.6401C35.5857 14.8054 34.391 12.9281 32.9403 11.3921C31.9163 10.3254 31.0203 10.2827 30.423 10.4107C29.3563 10.7094 28.631 11.8188 28.1617 13.0134C27.863 12.8428 27.5217 12.6721 27.1377 12.5441C26.327 12.2881 25.5163 12.3734 24.8763 12.7574C24.279 13.1414 23.8523 13.8241 23.7243 14.6774C23.639 15.2321 23.6817 15.7441 23.7243 16.2134C23.7243 16.2988 23.7243 16.4268 23.767 16.5548C24.023 18.6454 24.3643 20.6081 24.7483 22.6561L24.791 22.9974C24.8337 23.2108 24.9617 23.3388 25.1323 23.4668C25.2177 23.5094 25.3457 23.5521 25.431 23.5521C25.5163 23.5521 25.6017 23.5521 25.687 23.5094L36.951 18.4748C37.1217 18.3894 37.2497 18.2614 37.2923 18.0908C37.3777 17.7921 37.335 17.6214 37.2497 17.4508Z" fill="#0AC36A"/>
<path d="M19.6682 32.2134C19.1135 32.2134 18.5588 32.1281 18.0042 32.0001C17.6628 31.9148 17.4495 31.5308 17.5775 31.1894C17.6628 30.8481 18.0468 30.6348 18.3882 30.7628C19.5828 31.1041 21.0762 30.9334 22.0148 30.3361C22.6122 29.9521 22.9108 29.4401 22.9962 28.8001C22.9962 28.6721 22.9962 28.5014 22.9962 28.3308C22.9962 28.0321 22.9535 27.7334 22.9962 27.3921C23.1242 26.7521 23.5508 26.2828 23.9348 25.8561C23.2522 25.1734 22.6548 24.2774 22.6975 23.0401V22.7841C22.6975 21.9734 22.6975 21.2054 22.4415 20.6081C22.0575 19.7548 21.4602 19.0721 20.7348 18.6028C18.2602 17.1521 15.1028 17.5361 13.3535 19.4988C13.1402 19.7548 12.7135 19.7974 12.4575 19.5414C12.2015 19.3281 12.1588 18.9014 12.4148 18.6454C14.5482 16.2134 18.3882 15.7014 21.4175 17.4934C22.3988 18.0908 23.1242 18.9441 23.6362 20.0961C24.0202 20.9494 23.9775 21.8881 23.9775 22.8268V23.1254C23.9348 23.9788 24.4042 24.6188 25.0868 25.2588C25.1722 25.3441 25.3855 25.5574 25.3855 25.8561C25.3855 25.9841 25.3428 26.0694 25.3428 26.1121C25.3428 26.2401 25.3002 26.3254 25.2148 26.4108C25.1295 26.4961 25.0442 26.6241 24.9588 26.7094C24.6602 27.0508 24.3615 27.3921 24.2762 27.6908C24.2335 27.8188 24.2762 28.0321 24.2762 28.2881C24.2762 28.5014 24.3188 28.7574 24.2762 29.0134C24.1482 30.0374 23.5935 30.8908 22.6975 31.4881C21.8442 31.9148 20.7348 32.2134 19.6682 32.2134Z" fill="#1E2329"/>
<path d="M20.4363 24.192C20.0096 23.7653 20.2229 22.9547 20.9483 22.9973C21.9296 22.9973 21.6309 24.7467 20.6923 24.4053C20.5643 24.32 20.4789 24.2773 20.4363 24.192Z" fill="black"/>
<path d="M22.5721 29.3974C22.1881 29.3974 21.8041 29.3548 21.3775 29.2694C21.0361 29.1841 20.8228 28.8428 20.9081 28.5014C20.9935 28.1601 21.3348 27.9468 21.6761 28.0321C22.1455 28.1601 22.6148 28.1601 22.9988 28.1174C23.3401 28.0748 23.6815 28.2881 23.7241 28.6294C23.7668 28.9708 23.5535 29.3121 23.2121 29.3548C22.9988 29.3974 22.7855 29.3974 22.5721 29.3974Z" fill="#1E2329"/>
<path d="M34.431 31.6588C32.8097 31.6588 31.103 31.1468 29.6097 30.4641C29.2683 30.3361 29.1403 29.9521 29.311 29.6108C29.4817 29.2694 29.823 29.1414 30.1643 29.3121C30.7617 29.5681 35.8817 31.8721 37.6737 28.7574C38.2283 27.7761 37.9723 26.4961 37.759 25.2588L37.7163 25.1734C37.6737 24.9174 37.759 24.7041 37.9723 24.5335C38.2283 24.3201 38.527 24.1068 38.8257 23.8934C38.783 23.8508 38.6977 23.8081 38.655 23.7654C38.3563 23.5094 38.015 23.2534 37.7163 23.0401C37.5457 22.9121 37.4603 22.7414 37.4603 22.5281V22.3148C37.4603 21.0774 37.4603 20.0108 36.8203 18.9014C36.6497 18.6028 36.735 18.2188 37.0337 18.0054C37.3323 17.8348 37.7163 17.9201 37.9297 18.2188C38.7403 19.5841 38.7403 20.9068 38.7403 22.1441C38.9537 22.3148 39.2097 22.5281 39.423 22.6988C39.7217 22.9548 40.0203 23.1681 40.319 23.4241C40.4897 23.5521 40.575 23.7654 40.575 23.9788C40.575 24.1921 40.447 24.4054 40.2337 24.4908C39.8497 24.7041 39.423 25.0028 39.039 25.2588C39.295 26.5814 39.5083 28.0321 38.783 29.3548C37.8443 31.0615 36.223 31.6588 34.431 31.6588Z" fill="#1E2329"/>
<path d="M36.4818 24.7467C36.4391 24.7467 36.3965 24.7467 36.3965 24.7467C36.0551 24.704 35.7991 24.3627 35.8845 24.0214L36.3111 21.4614C36.3538 21.12 36.6951 20.864 37.0365 20.9494C37.3778 20.992 37.6338 21.3334 37.5485 21.6747L37.1218 24.2347C37.0791 24.5334 36.7805 24.7467 36.4818 24.7467Z" fill="#1E2329"/>
<path d="M36.4817 23.4666H32.2151C31.8737 23.4666 31.5751 23.168 31.5751 22.8266C31.5751 22.4853 31.8737 22.1866 32.2151 22.1866H36.4817C36.8231 22.1866 37.1217 22.4853 37.1217 22.8266C37.1217 23.168 36.8231 23.4666 36.4817 23.4666Z" fill="#1E2329"/>
<path d="M44.7555 14.8907C44.6275 14.5494 44.2435 14.4214 43.9022 14.5494L23.4222 23.5094C23.0809 23.6374 22.9529 24.0214 23.0809 24.3627C23.1662 24.6187 23.4222 24.7467 23.6782 24.7467C23.7635 24.7467 23.8489 24.7467 23.9342 24.704L25.2995 24.1067L26.4942 26.9227C26.5369 27.0507 26.6649 27.1787 26.7502 27.2214C26.9209 27.52 27.0915 27.7334 27.3049 27.904C27.7315 28.2454 28.3289 28.416 29.0115 28.416C29.2675 28.416 29.5662 28.3734 29.8649 28.3307C30.2062 28.2454 30.4622 27.9467 30.3769 27.6054C30.2915 27.264 29.9929 27.008 29.6515 27.0934C29.0115 27.2214 28.4569 27.136 28.1582 26.9227C27.9875 26.7947 27.8595 26.5387 27.8595 26.24C27.8595 25.8987 28.0302 25.6854 28.2009 25.5574C28.4995 25.344 28.8835 25.2587 29.2249 25.344C29.5235 25.4294 29.8222 25.3014 29.9502 25.0454C30.8035 23.6374 32.1262 22.2294 33.2782 20.9494L33.4062 20.8214C33.4915 20.736 33.5342 20.608 33.5769 20.48L44.4995 15.7014C44.7555 15.5734 44.8835 15.232 44.7555 14.8907Z" fill="#1E2329"/>
<path d="M44.8874 31.616C44.1194 31.616 43.3514 31.488 42.5408 31.1894C42.1994 31.0614 42.0288 30.72 42.1568 30.3787C42.2848 30.0374 42.6688 29.8667 42.9674 29.9947C43.7354 30.2507 46.2528 31.0187 47.8314 28.9707C48.3861 28.2454 48.5141 27.0507 48.6421 26.1974C48.6421 26.0694 48.6848 25.8134 48.8554 25.6C48.8981 25.5574 49.0261 25.4294 49.1968 25.344C49.3674 25.2587 49.5808 25.1307 49.7941 25.0027C49.1541 24.448 48.4288 23.7654 48.1728 22.912C48.0021 22.4 47.9168 21.9307 47.8314 21.4187C47.7461 20.864 47.6608 20.352 47.4474 19.8827C47.1914 19.2854 46.7648 18.7307 46.2528 18.2187C45.9968 17.9627 45.9968 17.5787 46.2101 17.3227C46.4661 17.0667 46.8501 17.0667 47.1061 17.28C47.7888 17.8774 48.3008 18.6027 48.6421 19.3707C48.8981 19.968 49.0261 20.608 49.1114 21.248C49.1968 21.7174 49.2394 22.144 49.4101 22.5707C49.5808 23.168 50.2208 23.7227 50.8181 24.2347C50.9888 24.4054 51.1594 24.5334 51.3301 24.704C51.4581 24.832 51.5434 25.0454 51.5434 25.2587C51.5008 25.472 51.4154 25.6427 51.2021 25.728C50.9888 25.856 50.7328 25.984 50.5194 26.112C50.3061 26.24 50.0928 26.368 49.8794 26.4534C49.7514 27.4347 49.5808 28.7574 48.8128 29.7387C47.9168 30.976 46.4661 31.616 44.8874 31.616Z" fill="#1E2329"/>
<path d="M42.4533 31.5734C42.112 31.5734 41.8133 31.2747 41.8133 30.9334C41.8133 29.6534 41.728 28.4161 41.728 27.2641C41.6853 26.0694 41.6427 24.8747 41.6 23.5521C41.6 23.4241 41.6427 23.2534 41.728 23.1681L46.208 17.4081C46.4213 17.1094 46.848 17.0668 47.104 17.2801C47.36 17.4934 47.4453 17.9201 47.232 18.1761L42.88 23.7654C42.9227 24.9601 42.9227 26.1121 42.9653 27.2214C43.008 28.4161 43.0507 29.6108 43.0933 30.9334C43.0933 31.2747 42.8373 31.5734 42.4533 31.5734Z" fill="#1E2329"/>
<path d="M18.986 44.3733C18.7727 44.3733 18.602 44.2879 18.474 44.1173L12.5007 35.5839C12.2874 35.2853 12.3727 34.9013 12.6714 34.6879C12.97 34.4746 13.354 34.5599 13.5673 34.8586L18.858 42.4533L21.802 35.4133C21.93 35.0719 22.314 34.9439 22.6553 35.0719C22.9967 35.1999 23.1247 35.5839 22.9967 35.9253L19.5834 44.0319C19.498 44.2453 19.2847 44.416 19.0713 44.416C19.0287 44.3733 19.0287 44.3733 18.986 44.3733Z" fill="#1E2329"/>
<path d="M34.7732 36.2667C34.7732 36.2667 34.7305 36.2667 34.6879 36.2667C34.3465 36.224 34.0905 35.9254 34.1332 35.584L34.5599 31.3174C34.6025 30.976 34.9012 30.72 35.2425 30.7627C35.5839 30.8054 35.8399 31.104 35.7972 31.4454L35.3705 35.712C35.3705 36.0107 35.1145 36.2667 34.7732 36.2667Z" fill="#1E2329"/>
<path d="M56.1072 57.1733C55.8086 57.1733 55.5099 56.96 55.4672 56.6187L55.2966 55.552C54.6139 51.328 53.9312 47.36 52.8646 43.1787C52.0539 39.9787 50.0059 37.8027 46.8912 36.9067C46.2086 36.6933 45.5686 36.5227 44.8859 36.352L44.3739 36.224C44.0326 36.1387 43.8192 35.7973 43.9046 35.456C43.9899 35.1147 44.3312 34.9013 44.6726 34.9867L45.1846 35.1147C45.8246 35.2853 46.5499 35.456 47.2326 35.6693C50.7739 36.6933 53.1632 39.2107 54.0592 42.88C55.1259 47.104 55.8086 51.1147 56.4912 55.3387L56.6619 56.4053C56.7046 56.7467 56.4912 57.088 56.1499 57.1307C56.1926 57.1733 56.1499 57.1733 56.1072 57.1733Z" fill="#1E2329"/>
<path d="M44.5875 36.2667C44.5448 36.2667 44.5448 36.2667 44.5022 36.2667C44.1608 36.2241 43.9048 35.9254 43.9475 35.5414L44.3742 31.7014C44.4168 31.3601 44.7155 31.1041 45.0995 31.1467C45.4408 31.1894 45.6968 31.4881 45.6542 31.8721L45.2275 35.7121C45.1848 36.0107 44.9288 36.2667 44.5875 36.2667Z" fill="#1E2329"/>
<path d="M13.0119 35.84C12.9692 35.84 12.8839 35.84 12.8412 35.7973C12.4999 35.712 12.3292 35.328 12.4146 34.9866L13.6946 30.72C13.7799 30.3786 14.1639 30.208 14.5052 30.2933C14.8466 30.3786 15.0172 30.7626 14.9319 31.104L13.6519 35.3706C13.5239 35.6693 13.2679 35.84 13.0119 35.84Z" fill="#1E2329"/>
<path d="M46.4648 23.3386C46.0381 22.9119 46.2514 22.1013 46.9768 22.1439C47.9581 22.1439 47.6594 23.8933 46.7208 23.552C46.5928 23.4666 46.5075 23.4239 46.4648 23.3386Z" fill="black"/>
<path d="M46.934 56.448L46.7633 55.3814C46.0807 51.1574 45.398 47.1467 44.3313 42.9227C43.3927 39.2534 41.046 36.7787 37.5047 35.712C36.822 35.4987 36.1393 35.328 35.4567 35.1574L35.03 35.0294L28.2887 30.8054C28.118 30.72 27.9047 30.6774 27.734 30.7627C27.5633 30.848 27.3927 30.976 27.35 31.1467L26.07 34.9867H22.4007C22.0593 34.9867 21.7607 35.328 21.7607 35.6694C21.7607 35.968 21.974 36.224 22.2727 36.3094C23.126 36.5227 23.9367 36.8214 24.662 37.248C26.838 38.5707 27.9473 40.192 28.5873 42.8374C29.6967 47.4027 30.5073 52.1387 31.2753 56.576C31.318 56.8747 31.574 57.1307 31.9153 57.1307L46.3367 57.216C46.5073 57.216 46.7207 57.1307 46.806 57.0027C46.8913 56.7894 46.9767 56.6187 46.934 56.448Z" fill="#1E2329"/>
<path d="M22.4858 18.4321L22.4431 18.3467C22.4004 18.3041 22.4004 18.2614 22.3578 18.2187C22.0591 17.9201 21.7178 17.6641 21.3764 17.4507C18.3898 15.6587 14.5071 16.1281 12.3738 18.6027C11.9044 19.1574 11.5204 19.7547 11.2218 20.3947C13.0138 20.1387 14.7631 20.6081 16.0858 21.8454C16.3418 22.1014 16.3418 22.4854 16.1284 22.7414C16.0004 22.8694 15.8298 22.9547 15.6591 22.9547C15.4884 22.9547 15.3604 22.9121 15.2324 22.7841C13.9098 21.5894 11.9898 21.2907 10.1978 22.0161C10.0271 22.1441 9.81375 22.2721 9.64305 22.4001C8.02176 23.8081 7.42443 26.4107 8.32043 28.6294C9.00309 30.4214 10.7524 31.5734 12.6724 31.5734C12.8431 31.5734 13.0564 31.5734 13.2271 31.5307C15.1471 31.3174 16.5124 29.9521 16.8111 27.9894C16.9818 26.7521 16.8964 25.6001 16.5551 24.6614C18.8591 23.1254 20.7791 21.0347 22.4431 19.2427C22.6138 18.9441 22.6564 18.6454 22.4858 18.4321Z" fill="#1E2329"/>
</svg>
