<svg width="64" height="64" viewBox="0 0 64 64" fill="none" xmlns="http://www.w3.org/2000/svg">
<path d="M27.0092 20.9919C26.5398 20.2239 25.8998 19.5839 25.2172 19.1573C22.1878 17.3226 18.3052 17.8346 16.2145 20.3093C14.4652 22.2719 13.8678 25.0026 14.5505 27.3066C13.1852 26.9226 11.8198 26.7093 10.4972 26.7093C8.02246 26.7093 6.23046 28.2879 6.01713 30.6346C5.88913 32.6826 6.99846 34.9866 9.38776 35.2426C9.60116 35.2853 9.77176 35.2853 9.98515 35.2853C11.3078 35.2853 12.7585 34.7733 13.9105 33.8346C15.0198 32.8959 15.9158 31.4453 16.6412 30.2933V30.2506C19.3718 29.3546 21.6332 27.3066 23.6812 25.5146L23.7665 25.4293C24.8332 24.4906 26.0278 23.3813 26.6252 21.9306C26.7532 21.8879 26.8385 21.8026 26.9238 21.7173C27.1372 21.5039 27.1372 21.2053 27.0092 20.9919Z" fill="#0AC36A"/>
<path d="M23.4665 33.92C22.9118 33.92 22.3572 33.8347 21.8025 33.7066C21.4612 33.6213 21.2478 33.2373 21.3758 32.896C21.4612 32.5547 21.8452 32.384 22.1865 32.4693C23.3812 32.8107 24.8745 32.64 25.8132 32.0427C26.3678 31.6587 26.7092 31.1467 26.7945 30.5493C26.7945 30.5067 26.7945 30.4213 26.7945 30.336C26.7518 29.0133 26.7518 28.3733 27.3065 28.1173C27.3065 28.1173 27.3492 28.1173 27.3492 28.0747C27.4772 28.032 27.6478 27.904 27.8185 27.7333C27.7332 27.5627 27.6052 27.392 27.4772 27.264C27.3492 27.0933 27.2212 26.9227 27.1358 26.752C26.7518 26.1973 26.5385 25.5573 26.5385 24.7893V24.4907C26.5385 23.68 26.5385 22.912 26.2825 22.3147C25.8985 21.4613 25.3012 20.7787 24.5758 20.3093C22.1012 18.8587 18.9438 19.2427 17.1945 21.2053C15.8292 22.784 14.9758 25.472 16.0425 27.6053C16.2132 27.904 16.0852 28.288 15.7438 28.4587C15.4452 28.6293 15.0612 28.5013 14.8905 28.16C13.6958 25.7707 14.2505 22.5707 16.2132 20.3093C18.3465 17.8773 22.1865 17.3653 25.2158 19.1573C26.1972 19.7547 26.9225 20.608 27.4345 21.76C27.8185 22.6133 27.7758 23.552 27.7758 24.4907V24.7893C27.7758 25.3013 27.9038 25.728 28.1172 26.0267C28.1172 26.0267 28.1172 26.0693 28.1598 26.0693C28.2452 26.24 28.3732 26.4107 28.5012 26.5387C28.6292 26.7093 28.7145 26.88 28.8425 27.0507C29.0558 27.3067 29.1412 27.6053 29.0985 27.9467C29.0558 28.288 28.8852 28.5867 28.5865 28.8C28.4158 28.928 28.2452 29.056 28.0745 29.184C28.0318 29.4827 28.0745 30.08 28.0745 30.2933C28.0745 30.4213 28.0745 30.5493 28.0745 30.592C28.0745 30.6347 28.0745 30.6347 28.0745 30.6773C27.9465 31.7013 27.3918 32.5546 26.5385 33.152C25.6425 33.6213 24.5332 33.92 23.4665 33.92Z" fill="#1E2329"/>
<path d="M24.704 25.8986C24.2774 25.472 24.4907 24.6613 25.216 24.704C26.1974 24.704 25.8987 26.4533 24.96 26.112C24.832 26.0266 24.7467 25.984 24.704 25.8986Z" fill="#1E2329"/>
<path d="M21.1196 37.12C21.0769 37.12 21.0343 37.12 20.9489 37.12C20.6076 37.0347 20.3943 36.6934 20.4796 36.352L21.3329 32.9387C21.4183 32.5974 21.7596 32.384 22.1009 32.4694C22.4423 32.5547 22.6556 32.896 22.5703 33.2374L21.7169 36.6507C21.6743 36.9067 21.4183 37.12 21.1196 37.12Z" fill="#1E2329"/>
<path d="M35.5416 54.8266C35.3283 54.8266 35.0723 54.6986 34.987 54.4853C34.4323 53.4186 33.835 52.3093 33.2376 51.2426C32.6403 50.1333 32.043 49.0666 31.4883 47.9573C31.2323 47.4453 30.9336 46.9333 30.6776 46.4213C28.5443 42.368 26.3683 38.144 21.547 37.5466C19.755 37.3333 17.7496 37.4613 15.6163 37.9733C15.275 38.0586 14.9336 37.8453 14.8483 37.504C14.8056 37.12 15.019 36.7786 15.3603 36.6933C17.6216 36.1386 19.7976 36.0106 21.7176 36.2666C27.179 36.992 29.6536 41.6853 31.8296 45.824C32.0856 46.336 32.3843 46.848 32.6403 47.3173C33.2376 48.4266 33.7923 49.4933 34.3896 50.6026C34.987 51.6693 35.5416 52.7786 36.139 53.8453C36.3096 54.144 36.1816 54.528 35.883 54.6986C35.755 54.784 35.627 54.8266 35.5416 54.8266Z" fill="#1E2329"/>
<path d="M19.3713 19.4132C19.2433 19.4132 19.158 19.3706 19.0727 19.3279C17.1953 18.2612 16.342 16.1279 16.7687 13.6532C17.7073 8.49056 23.1687 8.74656 27.1793 8.87456C27.8193 8.91722 28.4593 8.91722 29.014 8.91722H38.0593C40.3207 8.91722 43.4353 8.87456 45.1847 10.7519C46.9767 12.6719 47.19 16.2986 45.654 18.3039C45.4407 18.6026 45.0567 18.6452 44.758 18.4319C44.4593 18.2186 44.4167 17.8346 44.63 17.5359C45.782 15.9999 45.6113 13.0986 44.246 11.6052C42.9233 10.1546 40.1073 10.1972 38.102 10.1972H37.5473H29.014C28.4167 10.1972 27.7767 10.1546 27.1367 10.1546C22.4007 9.98389 18.7313 10.1119 18.0487 13.8666C17.7073 15.7866 18.3473 17.4079 19.7553 18.1759C20.054 18.3466 20.182 18.7306 20.0113 19.0292C19.798 19.2852 19.5847 19.4132 19.3713 19.4132Z" fill="#1E2329"/>
<path d="M32 27.4348C31.8293 27.4348 31.7013 27.3921 31.5733 27.2641C29.7813 25.6428 28.9279 22.9974 29.3119 20.4801H25.4293C25.0879 20.4801 24.7893 20.1814 24.7893 19.8401C24.7893 19.4988 25.0879 19.2001 25.4293 19.2001H30.08C30.2933 19.2001 30.4639 19.2854 30.5919 19.4561C30.7199 19.6268 30.7626 19.7974 30.72 20.0108C30.1226 22.3148 30.8053 24.8321 32.4693 26.3254C32.7253 26.5814 32.7679 26.9654 32.5119 27.2214C32.3413 27.3494 32.1706 27.4348 32 27.4348Z" fill="#1E2329"/>
<path d="M24.0226 15.488C23.3826 14.848 23.7239 13.6106 24.7906 13.6533C26.2839 13.6533 25.8572 16.3413 24.4066 15.7866C24.2786 15.6586 24.1506 15.5733 24.0226 15.488Z" fill="#1E2329"/>
<path d="M29.1404 15.488C28.5004 14.848 28.8417 13.6106 29.9084 13.6533C31.4017 13.6533 30.9751 16.3413 29.5244 15.7866C29.3964 15.6586 29.2684 15.5733 29.1404 15.488Z" fill="#1E2329"/>
<path d="M33.8368 15.488C33.1968 14.848 33.5382 13.6106 34.6048 13.6533C36.0982 13.6533 35.6715 16.3413 34.2208 15.7866C34.0928 15.6586 33.9648 15.5733 33.8368 15.488Z" fill="#1E2329"/>
<path d="M58.0275 44.1599C58.0275 44.0319 57.9848 43.9466 57.9422 43.8613C56.9182 39.9359 52.8222 37.0773 48.4275 37.2479L46.8488 34.4746C46.7635 34.3039 46.5502 34.1759 46.3368 34.1759C46.1235 34.1759 45.9102 34.2186 45.7822 34.3893L40.5342 40.2773V33.8346C40.7475 33.8346 40.9608 33.8346 41.1742 33.8346C41.7715 33.8346 42.3688 33.7919 42.9662 33.5786C44.0755 33.1946 45.0568 32.6399 45.8248 32.1706C46.1235 31.9999 46.2088 31.5733 46.0382 31.2746C45.8675 30.9759 45.4408 30.8906 45.1422 31.0613C44.3742 31.5306 43.5208 31.9999 42.5395 32.3839C41.9422 32.5973 41.3022 32.5973 40.5768 32.5546C39.5955 32.4266 38.3155 32.0426 37.8888 30.7199C37.8888 30.6773 37.8462 30.5919 37.8462 30.5493C39.1688 30.1226 39.9368 29.3119 40.6195 28.2879C40.7475 28.0746 40.7475 27.8186 40.6622 27.6479C40.5768 27.4346 40.3635 27.3066 40.1075 27.3066H37.3768C37.3342 26.4106 37.3768 25.4719 37.4195 24.4053C37.4622 24.0213 37.5048 23.6373 37.5475 23.2959L46.1662 25.4293C46.0808 25.8559 45.9528 26.2399 45.7822 26.6666C45.6542 26.9653 45.7822 27.3066 46.0382 27.4773C46.3368 27.6479 46.6782 27.5626 46.8915 27.3066C47.1475 26.9653 47.8728 26.6666 48.2142 26.7946C48.5128 26.9226 48.5555 27.5626 48.4702 28.1173C48.3422 28.8426 47.7448 29.3546 47.0195 29.3546C46.6782 29.3546 46.3795 29.6533 46.3795 29.9946C46.3795 30.3359 46.6782 30.6346 47.0195 30.6346C48.3422 30.6346 49.5368 29.6533 49.7502 28.3306C49.8782 27.6053 49.8355 26.8373 49.4515 26.2399L51.2008 26.6666C51.2435 26.6666 51.2862 26.6666 51.3715 26.6666C51.6702 26.6666 51.9262 26.4533 52.0115 26.1973C52.0968 25.8559 51.8835 25.5146 51.5422 25.4293L48.7262 24.7466C50.0488 19.4986 50.4328 17.9626 52.2675 13.5679C52.4382 13.1413 52.4382 12.7146 52.2248 12.2879C52.0115 11.9039 51.6275 11.6053 51.2008 11.4773L40.5342 8.83198C40.1075 8.70398 39.6382 8.74665 39.2542 9.00265C38.8702 9.25864 38.6568 9.64264 38.6142 10.1119C38.2302 14.8906 37.8888 16.4693 36.5662 21.6746L32.7688 20.7359C32.4275 20.6506 32.0862 20.8639 32.0008 21.2053C31.9155 21.5466 32.1288 21.8879 32.4702 21.9733L36.3528 22.9119C36.2675 23.3386 36.2248 23.7653 36.1822 24.2346C36.0115 27.1359 36.1822 29.4399 36.7368 31.0613C37.1208 32.2559 38.0168 33.0666 39.2968 33.4933V34.3893L30.4648 44.0746C30.2088 44.3306 30.2515 44.7573 30.5075 44.9706C30.7208 45.1413 30.9768 45.1839 31.2328 45.0559L35.4142 53.7173C35.2008 53.8026 35.0302 54.0586 35.0302 54.2719C35.0302 54.6133 35.3288 54.9119 35.6702 54.9119H49.3235C52.0542 54.9119 54.6142 53.6746 56.3208 51.5413C57.9848 49.5359 58.6248 46.8053 58.0275 44.1599Z" fill="#1E2329"/>
</svg>
