<svg width="64" height="64" viewBox="0 0 64 64" fill="none" xmlns="http://www.w3.org/2000/svg">
<path d="M55.257 45.6534C55.001 45.6534 54.7449 45.4828 54.6596 45.1841L49.5396 28.1174C49.4542 27.7761 49.6249 27.4348 49.9663 27.3068C50.3076 27.2214 50.6489 27.3921 50.7769 27.7334L55.8969 44.8001C55.9823 45.1414 55.8116 45.4828 55.4703 45.6108C55.3849 45.6534 55.2996 45.6534 55.257 45.6534Z" fill="black"/>
<path d="M35.329 37.0774C35.1157 37.0774 34.8597 36.9494 34.7743 36.736C34.4757 36.224 34.177 35.6694 33.8783 35.1147C32.6837 33.024 31.4037 30.8907 31.4037 28.3734C31.4037 28.032 31.7023 27.7334 32.0437 27.7334C32.385 27.7334 32.6837 28.032 32.6837 28.3734C32.7263 30.5494 33.8783 32.5547 34.9877 34.5174C35.2863 35.072 35.6277 35.6267 35.9263 36.1814C36.097 36.48 35.969 36.864 35.6703 37.0347C35.5423 37.0347 35.4143 37.0774 35.329 37.0774Z" fill="black"/>
<path d="M33.6644 39.4667C33.451 39.4667 33.2377 39.3387 33.1097 39.1253C32.939 38.8267 32.7684 38.528 32.5977 38.2293C31.1044 35.712 29.5684 33.1093 31.659 29.952C31.8724 29.6533 32.2564 29.568 32.555 29.7813C32.8537 29.9947 32.939 30.3787 32.7257 30.6773C31.1044 33.152 32.2564 35.1147 33.707 37.5893C33.8777 37.888 34.091 38.1867 34.2617 38.528C34.4324 38.8267 34.347 39.2107 34.0057 39.3813C33.8777 39.424 33.7924 39.4667 33.6644 39.4667Z" fill="black"/>
<path d="M53.9331 27.3068C53.2931 27.2641 52.6958 26.9654 52.2265 26.4534C51.7998 25.9841 51.6291 25.3441 51.6718 24.7041C51.7145 24.0641 52.0131 23.5094 52.5251 23.0828C52.8665 22.8268 53.2505 22.6561 53.5918 22.5708C53.9331 22.5281 54.1465 22.1868 54.1038 21.8881C54.0611 21.5468 53.7625 21.2908 53.4638 21.3334L29.1865 22.0588C28.8451 22.0588 28.5465 22.3574 28.5465 22.6988L28.7171 28.7148C28.7171 29.0561 29.0158 29.3548 29.3571 29.3548L34.0078 29.2268C34.2211 29.2268 34.4345 29.0988 34.5625 28.8854C34.6905 28.6721 34.6478 28.4161 34.5198 28.2454C33.9651 27.3494 33.8371 26.7948 34.0078 26.3254C34.1358 25.9841 34.3918 25.7281 34.7331 25.6001C35.4585 25.3441 36.4398 25.5574 37.0371 25.8561C37.9758 26.3254 38.7011 27.3494 39.3838 28.3308C39.5118 28.5014 39.5971 28.6294 39.7251 28.8001C39.8531 28.9708 40.0665 29.0561 40.2798 29.0561L53.8905 28.6294C54.2318 28.6294 54.4878 28.3308 54.5305 27.9894C54.5305 27.6054 54.2745 27.3068 53.9331 27.3068Z" fill="#0AC36A"/>
<path d="M54.0622 28.6293C52.0569 28.6293 50.3929 26.9653 50.3929 24.96C50.3929 22.9546 52.0569 21.2906 54.0622 21.2906C56.0676 21.2906 57.7316 22.9546 57.7316 24.96C57.7316 26.9653 56.0676 28.6293 54.0622 28.6293ZM54.0622 22.5706C52.7396 22.5706 51.6729 23.6373 51.6729 24.96C51.6729 26.2826 52.7396 27.3493 54.0622 27.3493C55.3849 27.3493 56.4516 26.2826 56.4516 24.96C56.4516 23.6373 55.3849 22.5706 54.0622 22.5706Z" fill="black"/>
<path d="M29.4418 29.3547C29.3565 29.3547 29.2712 29.3547 29.1858 29.312L22.4018 26.496C22.1885 26.4107 22.0178 26.1974 22.0178 25.9414C22.0178 25.6854 22.1458 25.472 22.3592 25.344L28.9725 22.1014C29.2712 21.9307 29.6552 22.0587 29.8258 22.4C29.9965 22.6987 29.8685 23.0827 29.5272 23.2534L24.1938 25.856L29.6552 28.1174C29.9965 28.2454 30.1245 28.6294 29.9965 28.9707C29.9112 29.2267 29.6978 29.3547 29.4418 29.3547Z" fill="black"/>
<path d="M54.1026 25.9413C54.6682 25.9413 55.1266 25.4829 55.1266 24.9173C55.1266 24.3517 54.6682 23.8933 54.1026 23.8933C53.537 23.8933 53.0786 24.3517 53.0786 24.9173C53.0786 25.4829 53.537 25.9413 54.1026 25.9413Z" fill="black"/>
<path d="M25.6865 27.1362L22.6571 25.8988L25.7291 24.3628L25.6865 27.1362Z" fill="black"/>
<path d="M25.6872 27.7761C25.6018 27.7761 25.5165 27.7761 25.4312 27.7335L22.4018 26.4961C22.1885 26.4108 22.0178 26.1975 22.0178 25.9415C22.0178 25.6855 22.1458 25.4721 22.3592 25.3441L25.4312 23.8081C25.6445 23.7228 25.8578 23.7228 26.0712 23.8508C26.2418 23.9788 26.3698 24.1921 26.3698 24.4055L26.3272 27.1788C26.3272 27.3921 26.1992 27.6055 26.0285 27.6908C25.9432 27.7335 25.8152 27.7761 25.6872 27.7761ZM24.1938 25.8561L25.0472 26.1975V25.4295L24.1938 25.8561Z" fill="black"/>
<path d="M41.9425 44.0747C41.8145 44.0747 41.6438 44.032 41.5585 43.9467C40.9185 43.4347 40.3638 42.8374 39.8091 41.984C38.6145 40.192 38.2305 38.5707 37.8891 36.8214C37.7185 36.1387 37.5905 35.3707 37.3345 34.6454C37.0785 33.664 36.4811 32.8534 35.8411 32C35.6278 31.7014 35.4145 31.4454 35.2438 31.1467C35.0731 30.848 34.7745 30.5494 34.5185 30.208C33.5371 29.0134 32.2571 27.52 32.8971 25.856C33.1531 25.1307 33.6651 24.6187 34.3905 24.3627C35.5851 23.936 36.9078 24.2774 37.7185 24.704C38.9985 25.3867 39.8945 26.6667 40.6625 27.8187C40.7905 27.9894 40.8758 28.1174 41.0038 28.288C42.4971 30.3787 43.6065 32.0427 44.5878 33.6214C44.7585 33.92 44.6731 34.304 44.3745 34.5174C44.0758 34.688 43.6918 34.6027 43.4785 34.304C42.4971 32.7254 41.4305 31.104 39.9798 29.056C39.8518 28.8854 39.7665 28.7574 39.6385 28.5867C38.9131 27.52 38.1451 26.4534 37.1211 25.8987C36.3958 25.5147 35.4571 25.3867 34.8598 25.6C34.4758 25.728 34.2625 25.984 34.0918 26.368C33.7505 27.3494 34.6891 28.4587 35.4998 29.4827C35.7985 29.8667 36.0971 30.208 36.3105 30.5494C36.4811 30.8054 36.6945 31.104 36.9078 31.36C37.5905 32.256 38.2731 33.1947 38.5718 34.3894C38.7851 35.1574 38.9558 35.9254 39.1265 36.6507C39.5105 38.3147 39.8091 39.7654 40.8758 41.3867C41.3878 42.112 41.8571 42.6667 42.3691 43.0934C42.6678 43.3067 42.7105 43.7334 42.4971 43.9894C42.3265 43.9894 42.1131 44.0747 41.9425 44.0747Z" fill="black"/>
<path d="M36.0564 22.8694C35.8004 22.8694 35.5444 22.8267 35.2884 22.784C34.0938 22.5707 33.4111 22.0587 33.2831 21.2907C32.9418 19.4134 36.5684 16.896 39.6404 15.0614C42.0724 13.6534 43.7364 15.616 44.6324 16.6827C45.4004 17.5787 45.9978 18.3467 46.6378 19.2C47.1071 19.7974 47.5338 20.3947 48.1311 21.12C48.3444 21.376 48.3018 21.8027 48.0458 22.016C47.7898 22.2294 47.3631 22.1867 47.1498 21.9307C46.5524 21.2054 46.0831 20.608 45.6564 20.0107C45.0591 19.2 44.4618 18.4747 43.7364 17.5787C42.4991 16.0854 41.6458 15.488 40.3658 16.2134C36.6111 18.432 34.5204 20.4374 34.6058 21.12C34.6058 21.2054 34.8618 21.4187 35.5871 21.5894C37.0804 21.888 39.1284 20.9067 41.6031 18.688C41.8591 18.432 42.2858 18.4747 42.4991 18.7307C42.7551 18.9867 42.7124 19.4134 42.4564 19.6267C39.9391 21.8027 37.8484 22.8694 36.0564 22.8694Z" fill="black"/>
<path d="M57.2606 40.6187C57.0473 40.4907 56.8339 40.4907 56.6206 40.6187L56.4073 40.7467C56.3646 40.7893 56.3219 40.7893 56.2793 40.832C54.1459 42.8373 51.6713 43.904 47.9166 44.3733H47.7886C45.3139 44.544 43.6499 44.1173 42.3273 42.9653C42.0713 42.752 41.6446 42.752 41.4313 43.0507C41.2606 43.264 41.2179 43.5627 41.3459 43.776C41.3459 43.8613 41.3886 43.9893 41.4313 44.0747C42.4553 45.824 43.3513 47.36 44.2046 48.896C45.4419 51.1147 46.5086 52.992 47.7033 54.784C47.8313 54.9546 48.0019 55.0827 48.2153 55.0827H56.8766C57.2179 55.0827 57.5166 54.784 57.5166 54.4426V41.216C57.6019 40.96 57.4739 40.7467 57.2606 40.6187Z" fill="black"/>
<path d="M48.3004 53.7601L16.6417 54.1868C7.59635 41.8561 5.76168 24.3628 11.991 10.4534L43.5644 10.0267C43.9057 10.0267 44.2044 9.72805 44.2044 9.38675C44.2044 9.04537 43.9057 8.7467 43.5644 8.7467L11.5644 9.17336C11.3084 9.17336 11.095 9.30136 11.0097 9.55736C4.35368 24.0641 6.27368 42.4108 15.831 55.2108C15.959 55.3814 16.1297 55.4668 16.343 55.4668L48.343 55.0401C48.6844 55.0401 48.983 54.7414 48.983 54.4001C48.983 54.0588 48.6417 53.7601 48.3004 53.7601Z" fill="black"/>
<path d="M14.8501 39.808C14.9354 39.8507 15.0208 39.8934 15.0634 39.8934L15.1061 39.936C15.7461 40.192 16.4288 40.3627 17.0688 40.3627C18.3488 40.3627 19.5861 39.8507 20.4821 38.8267C21.8048 37.4187 22.0181 35.4134 21.0794 33.664C20.5248 32.64 19.4581 31.9147 18.1354 31.7014C16.7701 31.4454 15.3621 31.8294 14.4661 32.64C13.2288 33.7067 12.5888 35.328 12.7594 36.864C12.9728 38.144 13.6981 39.2107 14.8501 39.808Z" fill="black"/>
<path d="M14.3796 17.5787C15.2756 18.4747 16.2569 19.2854 17.2809 20.0961C17.7503 19.4561 18.2196 18.7734 18.6463 18.0907C19.2009 17.3227 19.7129 16.5121 20.2676 15.7441C19.7129 15.2321 18.9449 14.8481 18.0916 14.7201C16.7263 14.4641 15.2756 14.8054 14.3369 15.6161C13.1423 16.6827 12.5023 18.3041 12.7156 19.8401C12.8863 21.1627 13.6543 22.2721 14.8489 22.8267C14.8916 22.8694 14.9769 22.8694 15.0196 22.9121C15.6596 23.1681 16.3423 23.3387 16.9823 23.3387C18.2623 23.3387 19.4996 22.8267 20.4383 21.8027C21.7183 20.3521 21.9743 18.4747 21.1209 16.7681C20.6516 17.4081 20.1823 18.0907 19.7129 18.7734C19.1156 19.6267 18.5183 20.4801 17.9209 21.3334C17.8356 21.4614 17.6649 21.5467 17.4943 21.5894C17.4516 21.5894 17.4089 21.5894 17.4089 21.5894C17.2809 21.5894 17.1529 21.5467 17.0249 21.4614C15.7876 20.5654 14.5929 19.5414 13.4836 18.4747C13.2276 18.2187 13.2276 17.8347 13.4836 17.5787C13.7396 17.3227 14.1236 17.3227 14.3796 17.5787Z" fill="black"/>
</svg>
