<svg width="10" height="10" viewBox="0 0 10 10" fill="none" xmlns="http://www.w3.org/2000/svg">
    <path d="M3.78886 9.62144C4.06036 9.62144 4.27036 9.50894 4.41886 9.28844L9.23911 1.78244C9.34711 1.61294 9.39286 1.46969 9.39286 1.33094C9.39286 0.967192 9.13711 0.715942 8.76811 0.715942C8.51686 0.715942 8.36311 0.808192 8.20861 1.04894L3.76411 8.09894L1.48261 5.17169C1.32886 4.97144 1.16986 4.88969 0.944106 4.88969C0.575106 4.88969 0.308105 5.15069 0.308105 5.50994C0.308105 5.66894 0.364355 5.82269 0.497855 5.98169L3.15361 9.29369C3.33361 9.51869 3.52261 9.62144 3.78961 9.62144H3.78886Z" fill="black"/>
</svg>
